<svg viewBox="0 0 330 200" xmlns="http://www.w3.org/2000/svg"><g><g><g><g><g><line x1="40" y1="178" x2="35" y2="178" style="visibility: inherit;" fill="rgb(0, 0, 0)" stroke="rgb(204, 204, 204)" stroke-width="1px"></line><line x1="40" y1="155.75" x2="35" y2="155.75" style="visibility: inherit;" fill="rgb(0, 0, 0)" stroke="rgb(204, 204, 204)" stroke-width="1px"></line><line x1="40" y1="133.5" x2="35" y2="133.5" style="visibility: inherit;" fill="rgb(0, 0, 0)" stroke="rgb(204, 204, 204)" stroke-width="1px"></line><line x1="40" y1="111.25" x2="35" y2="111.25" style="visibility: inherit;" fill="rgb(0, 0, 0)" stroke="rgb(204, 204, 204)" stroke-width="1px"></line><line x1="40" y1="89" x2="35" y2="89" style="visibility: inherit;" fill="rgb(0, 0, 0)" stroke="rgb(204, 204, 204)" stroke-width="1px"></line><line x1="40" y1="66.75" x2="35" y2="66.75" style="visibility: inherit;" fill="rgb(0, 0, 0)" stroke="rgb(204, 204, 204)" stroke-width="1px"></line><line x1="40" y1="44.5" x2="35" y2="44.5" style="visibility: inherit;" fill="rgb(0, 0, 0)" stroke="rgb(204, 204, 204)" stroke-width="1px"></line><line x1="40" y1="22.25" x2="35" y2="22.25" style="visibility: inherit;" fill="rgb(0, 0, 0)" stroke="rgb(204, 204, 204)" stroke-width="1px"></line><line x1="40" y1="0" x2="35" y2="0" style="visibility: inherit;" fill="rgb(0, 0, 0)" stroke="rgb(204, 204, 204)" stroke-width="1px"></line></g><g transform="translate(30, 0)"><text x="0" y="178" dx="0em" dy="0.3em" style="text-anchor: end; visibility: hidden; font-family: &quot;Helvetica Neue&quot;, sans-serif; font-size: 12px; font-weight: 200;" fill="rgb(50, 49, 63)" stroke="none" stroke-width="1px">160</text><text x="0" y="155.75" dx="0em" dy="0.3em" style="text-anchor: end; visibility: inherit; font-family: &quot;Helvetica Neue&quot;, sans-serif; font-size: 12px; font-weight: 200;" fill="rgb(50, 49, 63)" stroke="none" stroke-width="1px">170</text><text x="0" y="133.5" dx="0em" dy="0.3em" style="text-anchor: end; visibility: hidden; font-family: &quot;Helvetica Neue&quot;, sans-serif; font-size: 12px; font-weight: 200;" fill="rgb(50, 49, 63)" stroke="none" stroke-width="1px">180</text><text x="0" y="111.25" dx="0em" dy="0.3em" style="text-anchor: end; visibility: inherit; font-family: &quot;Helvetica Neue&quot;, sans-serif; font-size: 12px; font-weight: 200;" fill="rgb(50, 49, 63)" stroke="none" stroke-width="1px">190</text><text x="0" y="89" dx="0em" dy="0.3em" style="text-anchor: end; visibility: hidden; font-family: &quot;Helvetica Neue&quot;, sans-serif; font-size: 12px; font-weight: 200;" fill="rgb(50, 49, 63)" stroke="none" stroke-width="1px">200</text><text x="0" y="66.75" dx="0em" dy="0.3em" style="text-anchor: end; visibility: inherit; font-family: &quot;Helvetica Neue&quot;, sans-serif; font-size: 12px; font-weight: 200;" fill="rgb(50, 49, 63)" stroke="none" stroke-width="1px">210</text><text x="0" y="44.5" dx="0em" dy="0.3em" style="text-anchor: end; visibility: hidden; font-family: &quot;Helvetica Neue&quot;, sans-serif; font-size: 12px; font-weight: 200;" fill="rgb(50, 49, 63)" stroke="none" stroke-width="1px">220</text><text x="0" y="22.25" dx="0em" dy="0.3em" style="text-anchor: end; visibility: inherit; font-family: &quot;Helvetica Neue&quot;, sans-serif; font-size: 12px; font-weight: 200;" fill="rgb(50, 49, 63)" stroke="none" stroke-width="1px">230</text><text x="0" y="0" dx="0em" dy="0.3em" style="text-anchor: end; visibility: hidden; font-family: &quot;Helvetica Neue&quot;, sans-serif; font-size: 12px; font-weight: 200;" fill="rgb(50, 49, 63)" stroke="none" stroke-width="1px">240</text></g><line x1="40" y1="0" x2="40" y2="178" fill="rgb(0, 0, 0)" stroke="rgb(204, 204, 204)" stroke-width="1px"></line></g></g><g transform="translate(40, 0)" clip-path="url(#clip_0)"><clipPath id="clip_0"><rect width="290" height="177"></rect></clipPath><g><g><g><line x1="0" y1="0" x2="0" y2="178" fill="rgb(0, 0, 0)" stroke="rgb(60, 60, 60)" stroke-width="1px" opacity="0.25"></line><line x1="32.22222222222222" y1="0" x2="32.22222222222222" y2="178" fill="rgb(0, 0, 0)" stroke="rgb(60, 60, 60)" stroke-width="1px" opacity="0.25"></line><line x1="64.44444444444444" y1="0" x2="64.44444444444444" y2="178" fill="rgb(0, 0, 0)" stroke="rgb(60, 60, 60)" stroke-width="1px" opacity="0.25"></line><line x1="96.66666666666666" y1="0" x2="96.66666666666666" y2="178" fill="rgb(0, 0, 0)" stroke="rgb(60, 60, 60)" stroke-width="1px" opacity="0.25"></line><line x1="128.88888888888889" y1="0" x2="128.88888888888889" y2="178" fill="rgb(0, 0, 0)" stroke="rgb(60, 60, 60)" stroke-width="1px" opacity="0.25"></line><line x1="161.11111111111111" y1="0" x2="161.11111111111111" y2="178" fill="rgb(0, 0, 0)" stroke="rgb(60, 60, 60)" stroke-width="1px" opacity="0.25"></line><line x1="193.33333333333331" y1="0" x2="193.33333333333331" y2="178" fill="rgb(0, 0, 0)" stroke="rgb(60, 60, 60)" stroke-width="1px" opacity="0.25"></line><line x1="225.55555555555557" y1="0" x2="225.55555555555557" y2="178" fill="rgb(0, 0, 0)" stroke="rgb(60, 60, 60)" stroke-width="1px" opacity="0.25"></line><line x1="257.77777777777777" y1="0" x2="257.77777777777777" y2="178" fill="rgb(0, 0, 0)" stroke="rgb(60, 60, 60)" stroke-width="1px" opacity="0.25"></line><line x1="290" y1="0" x2="290" y2="178" fill="rgb(0, 0, 0)" stroke="rgb(60, 60, 60)" stroke-width="1px" opacity="0.25"></line></g><g><line x1="0" y1="178" x2="290" y2="178" fill="rgb(0, 0, 0)" stroke="rgb(60, 60, 60)" stroke-width="1px" opacity="0.25"></line><line x1="0" y1="155.75" x2="290" y2="155.75" fill="rgb(0, 0, 0)" stroke="rgb(60, 60, 60)" stroke-width="1px" opacity="0.25"></line><line x1="0" y1="133.5" x2="290" y2="133.5" fill="rgb(0, 0, 0)" stroke="rgb(60, 60, 60)" stroke-width="1px" opacity="0.25"></line><line x1="0" y1="111.25" x2="290" y2="111.25" fill="rgb(0, 0, 0)" stroke="rgb(60, 60, 60)" stroke-width="1px" opacity="0.25"></line><line x1="0" y1="89" x2="290" y2="89" fill="rgb(0, 0, 0)" stroke="rgb(60, 60, 60)" stroke-width="1px" opacity="0.25"></line><line x1="0" y1="66.75" x2="290" y2="66.75" fill="rgb(0, 0, 0)" stroke="rgb(60, 60, 60)" stroke-width="1px" opacity="0.25"></line><line x1="0" y1="44.5" x2="290" y2="44.5" fill="rgb(0, 0, 0)" stroke="rgb(60, 60, 60)" stroke-width="1px" opacity="0.25"></line><line x1="0" y1="22.25" x2="290" y2="22.25" fill="rgb(0, 0, 0)" stroke="rgb(60, 60, 60)" stroke-width="1px" opacity="0.25"></line><line x1="0" y1="0" x2="290" y2="0" fill="rgb(0, 0, 0)" stroke="rgb(60, 60, 60)" stroke-width="1px" opacity="0.25"></line></g></g></g><g><g><line x1="0" y1="534" x2="290" y2="534" fill="rgb(0, 0, 0)" stroke="rgb(153, 153, 153)" stroke-width="1.5px"></line></g></g><g><g><line x1="32.22222222222222" y1="0" x2="32.22222222222222" y2="178" fill="rgb(0, 0, 0)" stroke="rgb(153, 153, 153)" stroke-width="1.5px"></line></g></g><g><g><g><g><g><path stroke="rgb(255, 112, 67)" stroke-width="2px" d="M36.733333333333334,179.8929203671568L37.05555555555555,148.10378677254332L37.37777777777778,174.58079535085324L37.7,178.90016947736254L38.98888888888889,259.5033423253137L39.31111111111112,176.1931262130048L39.63333333333333,135.65746520163387L39.955555555555556,124.12809620487951L40.27777777777778,136.573599609508L40.6,161.53768968405868L40.92222222222222,147.23585735565842L41.24444444444445,162.62856765610303L41.56666666666667,190.51204053642198L41.888888888888886,150.60800383140273L42.21111111111111,92.46888426468529L42.53333333333333,128.52905494478105L42.855555555555554,137.3625147818141L43.17777777777778,107.1830526653841L43.5,113.81073621463072L43.82222222222222,128.1634922739695L44.144444444444446,77.48168500204983L44.46666666666666,87.81296021669996L44.788888888888884,76.84707033785726L45.111111111111114,84.16022532580982L45.43333333333334,139.31168099368102L45.75555555555555,130.53631408066823L46.077777777777776,105.42539442703949L46.4,124.9074830029828L46.72222222222223,128.59959621901953L47.044444444444444,158.05590442805882L47.36666666666667,91.21268881909346L47.68888888888889,170.20069318985628L48.01111111111111,150.51578192840708L48.33333333333333,106.98504557590532L48.65555555555555,114.24619397734358L48.97777777777778,169.6576496558696L49.300000000000004,197.2586873967061L49.62222222222222,148.82178271161476L49.94444444444444,132.95039704841486L50.266666666666666,131.7783502590051L50.588888888888896,134.9251571281771L50.91111111111111,167.87359754302688L51.233333333333334,126.64671223619828L51.55555555555556,154.4014327984862L51.87777777777777,89.39885650494834L52.199999999999996,88.38626595985089L52.522222222222226,133.0851111690061L52.84444444444445,104.92715892549528L53.166666666666664,60.82258228153897L53.48888888888889,89.74089296634641L53.81111111111111,99.8988851450445L54.13333333333333,153.06076877013936L54.45555555555555,161.36939522204523L54.77777777777778,140.9927624689195L55.1,136.56641004482816L55.422222222222224,124.08323912382045L55.74444444444444,92.11234764909659L56.06666666666666,158.32482115659707L56.38888888888889,168.38469249864576L56.711111111111116,167.2208988121757L57.03333333333333,108.1730568654304L57.355555555555554,95.84761692565478L57.67777777777778,93.63559530187722L58,117.84764502292319L58.32222222222222,145.2809884419766L58.644444444444446,122.06073234741254L58.96666666666667,170.6570947734377L59.28888888888889,126.51318081425796L59.61111111111111,118.25105454568371L59.93333333333333,141.64594721105283L60.25555555555556,132.3013024574911L60.57777777777778,91.57554420032471L60.9,125.99924299358355L61.22222222222222,104.89455525659938L61.544444444444444,172.01314825405728L61.86666666666667,153.05941864603787L62.18888888888889,118.93443735095283L62.51111111111111,127.45536501677287L62.833333333333336,137.59470506353054L63.15555555555555,154.613931497591L63.477777777777774,114.66801374474602L63.8,131.24424361061716L64.12222222222222,167.8756135491828L64.44444444444444,138.0772025411307L64.76666666666667,134.21465099245182L65.08888888888889,106.81335495704339L65.41111111111111,93.64608685728268L65.73333333333333,131.05437986705513L66.05555555555556,140.33847524078968L66.37777777777778,124.29006436200314L66.7,123.82033408839331L67.02222222222223,129.43831754898326L67.34444444444445,149.55751537069852L67.66666666666667,127.0357976745675L67.9888888888889,118.8338273901409L68.3111111111111,103.935630601565L68.63333333333333,98.08737659091946L68.95555555555556,120.32852138301848L69.27777777777779,109.6932245851822L69.6,74.7201310706894L69.92222222222222,97.38089120344881L70.24444444444444,115.97286882851456L70.56666666666668,106.28054960521415L70.88888888888889,111.54091582269882L71.21111111111111,96.99036446554312L71.53333333333333,123.43668068494114L71.85555555555555,117.03859501985139L72.17777777777778,125.20211392109053L72.5,106.72767582335746L72.82222222222222,111.94574169396562L73.14444444444445,145.68507944631102L73.46666666666667,152.54983749322608L73.78888888888888,114.21291107137509L74.1111111111111,104.64587667822546L74.43333333333332,141.6236868956072L74.75555555555556,123.54564097037212L75.07777777777778,95.60340127533851L75.4,83.94986730328908L75.72222222222223,145.1893464989168L76.04444444444445,122.04464122454539L76.36666666666666,131.39956183433657L76.68888888888888,150.05842362403948L77.0111111111111,100.59410782432602L77.33333333333333,94.74697403297452L77.65555555555555,92.4827327596285L77.97777777777777,93.2409256665193L78.30000000000001,94.74194721509713L78.62222222222223,88.6088630922419L78.94444444444444,139.8303851466049L79.26666666666667,129.07994968537508L79.58888888888889,117.52398970868596L79.91111111111111,99.97904867140295L80.23333333333333,87.45403839473632L80.55555555555556,85.77901895358977L80.87777777777778,56.796873042075774L81.2,86.77326435869271L81.52222222222221,89.27226260081133L81.84444444444443,102.14672960028169L82.16666666666667,97.95001896134092L82.4888888888889,122.79666787094516L82.81111111111112,117.4158458763757L83.13333333333334,105.7944962343215L83.45555555555556,166.15081929210658L83.77777777777777,121.14700692560575L84.1,104.78938350717013L84.42222222222222,126.56042545342314L84.74444444444444,99.39502617659488L85.06666666666666,110.84118623818345L85.38888888888889,88.17489988377923L85.71111111111111,110.28832005722067L86.03333333333335,80.546921172516L86.35555555555555,66.69742623256232L86.67777777777778,70.2284665732776L87,125.55264772350762L87.32222222222222,119.3670872913311L87.64444444444445,120.58358825126349L87.96666666666667,124.43764196442996L88.28888888888889,185.2465586436238L88.61111111111111,179.88720795228755L88.93333333333332,114.53461572596234L89.25555555555555,124.69267876785281L89.57777777777777,117.82789653683471L89.9,162.00154947605594L90.22222222222223,149.67657147030152L90.54444444444445,146.6181346546419L90.86666666666667,145.86957982842964L91.1888888888889,90.88987152376679L91.5111111111111,56.20511737226792L91.83333333333333,87.62886952614394L92.15555555555555,44.11035745177034L92.47777777777777,74.44044115563256L92.8,93.92912446510812L93.12222222222222,105.77364640147698L93.44444444444446,97.75856207794672L93.76666666666667,109.34707160345748L94.08888888888889,103.6270205804827L94.41111111111111,144.661718177147L94.73333333333333,118.54679225882724L95.05555555555556,90.47225305915377L95.37777777777778,93.84240960526766L95.7,69.12475392966451L96.02222222222223,115.97174719422455L96.34444444444443,127.47198310047028L96.66666666666666,150.56502930730366L96.98888888888888,92.57273615127673L97.3111111111111,133.48312106088324L97.63333333333334,144.8775703904362L97.95555555555556,101.92352297766992L98.27777777777779,119.2425978259086L98.60000000000001,91.86091956590646L98.92222222222222,84.32011130985644L99.24444444444444,66.6056568738045L99.56666666666666,77.73094936109915L99.88888888888889,94.97985883174735L100.21111111111111,88.61033396970271L100.53333333333333,58.04247311741736L100.85555555555555,24.31294282430781L101.17777777777779,56.733956337895236L101.5,107.29684200342076L101.82222222222222,70.67304630312665L102.14444444444445,71.10111293812602L102.46666666666667,91.01504840862752L102.78888888888889,95.04885219581129L103.11111111111111,77.95839411167623L103.43333333333334,89.26021911471082L103.75555555555555,90.62231738191238L104.07777777777777,95.96934715522163L104.39999999999999,36.68700593717591L104.72222222222221,69.44289142851649L105.04444444444445,78.15535460808647L105.36666666666667,105.03847613155112L105.6888888888889,72.94557530295413L106.01111111111112,109.32985464222169L106.33333333333333,97.8315546005186L106.65555555555555,102.54865260894397L106.97777777777777,131.2358585880715L107.3,83.60553843775499L107.62222222222222,49.46688339590497L107.94444444444444,39.01319293427153L108.26666666666667,124.33919986395648L108.5888888888889,117.54407793228987L108.9111111111111,75.71327430453994L109.23333333333333,63.92455363301694L109.55555555555556,71.82764630334538L109.87777777777778,48.110999555688835L110.2,60.2503170796047L110.52222222222223,63.994889191854625L110.84444444444445,56.36183936838424L111.16666666666667,64.9675653519876L111.48888888888888,45.32627071754018L111.8111111111111,76.30754480967447L112.13333333333333,72.81910528546294L112.45555555555555,65.8996493590219L112.77777777777779,133.9999754674639L113.10000000000001,124.64691597505845L113.42222222222223,128.6719621460702L113.74444444444445,105.07604182011278L114.06666666666666,130.36525170949932L114.38888888888889,120.22072481720343L114.71111111111111,84.40977955584937L115.03333333333333,69.69038204625375L115.35555555555555,80.13822458908038L115.67777777777778,123.29753604129002L116,136.77378239747907L116.32222222222221,191.7796726519884L116.64444444444445,167.30486627429852L116.96666666666667,99.0014479017861L117.28888888888889,132.42575170615956L117.61111111111111,92.05562711012152L117.93333333333334,75.20821055562368L118.25555555555556,78.65836795324725L118.57777777777778,92.70416093918469L118.89999999999999,101.2921968808936L119.22222222222221,65.3701658458213L119.54444444444444,61.3624655658424L119.86666666666666,37.30889688100936L120.1888888888889,14.262417748966897L120.51111111111112,37.707503749966065L120.83333333333334,66.62516738059489L121.15555555555557,102.1513429515503L121.47777777777777,91.88512614446532L121.8,74.71591028140574L122.12222222222222,76.14746685365795L122.44444444444444,89.64367832386469L122.76666666666667,61.71454851653559L123.08888888888889,74.10586076275335L123.41111111111111,58.632491372202736L123.73333333333333,62.09478367219856L124.05555555555554,49.344552088084754L124.37777777777778,96.67201201456962L124.7,87.61831844531403L125.02222222222223,76.18713074614355L125.34444444444445,96.81967560344785L125.66666666666667,106.6180993073812L125.9888888888889,88.31991567573733L126.3111111111111,62.34970132804989L126.63333333333333,49.307459651810404L126.95555555555555,109.57940483771712L127.27777777777777,97.16444191386073L127.6,99.84465986877542L127.92222222222223,102.38813533776917L128.24444444444444,104.37663059230994L128.56666666666666,93.24392848966332L128.88888888888889,90.25672895048741L129.2111111111111,59.307620286552236L129.53333333333333,78.81566760039817L129.85555555555555,95.71041984734828L130.17777777777778,103.12232521163163L130.5,164.29033253542624L130.82222222222222,120.18214904518152L131.14444444444445,119.00796816856402L131.46666666666667,78.15638749903879L131.7888888888889,125.79061594668889L132.11111111111111,135.98527075209537L132.43333333333334,95.76319293831776L132.75555555555556,78.95267330083243L133.07777777777778,80.03111112161275L133.4,90.62628950621962L133.72222222222223,44.72672386852665L134.04444444444445,50.22197395734649L134.36666666666667,59.776420458392266L134.6888888888889,76.94715552820917L135.01111111111112,72.12782624539231L135.33333333333334,85.78353900895421L135.65555555555557,61.46816036215964L135.9777777777778,66.81814627833091L136.29999999999998,72.4994984542544L136.6222222222222,113.97535184354875L136.94444444444443,155.37293327409802L137.26666666666665,125.82436924790606L137.5888888888889,77.52337231168306L137.91111111111113,85.28168787675591L138.23333333333335,78.08970654319224L138.55555555555557,88.04772163099345L138.87777777777777,84.699911054768L139.2,65.5961792378413L139.5222222222222,76.29531496457977L139.84444444444443,47.390368300036926L140.16666666666666,113.11562417826438L140.48888888888888,107.41919765759339L140.8111111111111,98.59721546345253L141.13333333333335,58.46938594921407L141.45555555555555,56.432763619089044L141.77777777777777,60.058354155340155L142.1,69.7546810723057L142.42222222222222,56.56955943684048L142.74444444444444,33.08059384691876L143.06666666666666,83.40571760575868L143.38888888888889,85.99829796457824L143.7111111111111,54.91494038763366L144.03333333333333,58.99429763712122L144.35555555555555,61.92150106762426L144.67777777777778,61.45644907197102L145,48.61625805402247L145.3222222222222,77.13675678553851L145.64444444444445,108.07747719754379L145.96666666666667,107.79296535295015L146.2888888888889,150.37910166050054L146.61111111111111,128.31495504537259L146.93333333333334,126.95770090197938L147.25555555555556,50.942707699390766L147.57777777777775,71.04451835742748L147.9,40.392055405325635L148.2222222222222,64.78828912088092L148.54444444444445,125.10222106163985L148.86666666666665,114.32864434352686L149.1888888888889,74.727126791663L149.51111111111112,72.75691618119899L149.83333333333334,77.3750540971471L150.15555555555557,108.33637721536834L150.47777777777776,80.88010208605694L150.8,69.83816714763026L151.1222222222222,110.66573491382228L151.44444444444446,90.053849975393L151.76666666666665,108.87327723987451L152.0888888888889,73.54700085930554L152.4111111111111,97.969452346638L152.73333333333332,115.12926677541445L153.05555555555557,105.01666071222135L153.37777777777777,145.4504291665906L153.70000000000002,112.59466591670241L154.0222222222222,85.67005684372262L154.34444444444446,93.90068843362616L154.66666666666666,95.78035782335928L154.9888888888889,101.76338269328313L155.3111111111111,109.37217176684875L155.63333333333333,134.42103911357603L155.95555555555555,143.62729387830188L156.27777777777777,105.36307661384633L156.60000000000002,107.71784596830783L156.92222222222222,113.16582873576988L157.24444444444447,123.44017702051468L157.56666666666666,81.86935569350999L157.88888888888889,73.5431205267017L158.2111111111111,92.49701107944874L158.53333333333333,114.3646937692513L158.85555555555555,114.88063221003713L159.17777777777778,92.78880184189141L159.5,117.09434906778134L159.82222222222222,90.66036462865709L160.14444444444442,146.20845907260443L160.46666666666667,121.85939200240048L160.7888888888889,117.40390439699688L161.11111111111111,129.6446982900536L161.43333333333334,151.57416913272354L161.75555555555556,95.1536273036087L162.07777777777778,104.50317278109101L162.4,76.26503324629134L162.72222222222223,60.30000063014786L163.04444444444442,73.17931678433877L163.36666666666667,93.53994694316184L163.68888888888887,52.185090755008474L164.01111111111112,20.384856790651554L164.33333333333334,45.63528831145146L164.65555555555557,22.253093915825986L164.9777777777778,29.227674068001505L165.29999999999998,40.141539743535304L165.62222222222223,65.71113753020319L165.94444444444443,85.58739296734068L166.26666666666668,151.94162477576575L166.58888888888887,118.37954685642622L166.91111111111113,79.90692306014473L167.23333333333332,83.3575058868681L167.55555555555554,63.395561729142344L167.8777777777778,48.523016206186526L168.2,112.74793920979589L168.52222222222224,106.05353464404159L168.84444444444443,119.40023022246012L169.16666666666669,138.69251758904244L169.48888888888888,117.27973906905044L169.81111111111113,114.77437008327601L170.13333333333333,131.34261933390115L170.45555555555555,108.75486740722546L170.77777777777777,68.43113684448177L171.1,51.980411843017194L171.42222222222222,42.9568864795896L171.74444444444444,137.04749004205064L172.0666666666667,121.4863945684433L172.38888888888889,67.25503879795076L172.7111111111111,31.394057519493117L173.03333333333333,46.49441760495756L173.35555555555555,32.927331562730416L173.67777777777778,67.58929520839013L174,66.62377609964348L174.32222222222222,92.39117255065523L174.64444444444445,135.86882019909433L174.96666666666667,109.50987457795267L175.2888888888889,99.38356222846106L175.6111111111111,88.3843783649087L175.93333333333334,85.13230884267567L176.25555555555556,36.770967642031195L176.57777777777778,27.9439329716933L176.9,60.41131553252768L177.22222222222223,81.89590186834472L177.54444444444445,80.24123222208105L177.86666666666665,90.81279460058259L178.1888888888889,70.27051001230271L178.5111111111111,64.51360163116091L178.83333333333334,131.16655300750512L179.15555555555554,96.55664323028435L179.4777777777778,106.83584369573899L179.8,93.28477678629105L180.1222222222222,110.77198866088594L180.44444444444446,74.90343138622879L180.76666666666665,71.46721218256742L181.0888888888889,93.48359574215765L181.4111111111111,73.43702283225747L181.73333333333335,54.351860916151324L182.05555555555554,130.42545187683925L182.3777777777778,117.62979947693361L182.7,91.75821202258594L183.0222222222222,111.72242065227228L183.34444444444446,87.23969537232037L183.66666666666666,126.8786418999059L183.9888888888889,77.52642006425994L184.3111111111111,64.07246550291141L184.63333333333335,63.12393599730353L184.95555555555555,85.88376131762045L185.27777777777777,43.96535185282815L185.6,108.17973906579849L185.92222222222222,100.3582561897232L186.24444444444444,93.65800470870697L186.56666666666666,72.83891369558549L186.8888888888889,139.89922147784932L187.2111111111111,76.61700954076231L187.53333333333333,86.70688113949645L187.85555555555555,68.78735256065096L188.17777777777778,68.67602161329485L188.5,76.25141359663904L188.82222222222222,62.92752494631351L189.14444444444445,53.7926076496729L189.46666666666667,2.511056227987382L189.7888888888889,34.77388745993696L190.11111111111111,78.73026219397977L190.4333333333333,52.055844541729726L190.75555555555556,60.288633372987036L191.07777777777778,82.97653848326495L191.4,99.25162224767382L191.72222222222223,124.86312956808678L192.04444444444445,85.39775811194585L192.36666666666667,134.05476006125932L192.68888888888887,116.07423527869891L193.01111111111112,96.38382903953378L193.33333333333331,105.62348483216753L193.65555555555557,72.09766893274781L193.97777777777776,62.02713636331083L194.3,87.30573875768377L194.6222222222222,76.48468562521573L194.94444444444446,67.76227347229737L195.26666666666668,72.19491932019483L195.58888888888887,31.96465773835712L195.91111111111113,-2.536276462942766L196.23333333333332,30.486225302654276L196.55555555555557,40.03453730561597L196.87777777777777,31.794316133369534L197.20000000000002,62.92667619735573L197.5222222222222,94.68669938296419L197.84444444444443,102.89502347499338L198.16666666666666,91.45585182303317L198.48888888888888,70.71971012946442L198.81111111111113,76.19970480082316L199.13333333333333,87.5148535506599L199.45555555555558,66.6674573574467L199.77777777777777,87.47661561930201L200.1,101.29006238915933L200.42222222222222,107.75786479555616L200.74444444444444,105.51329126502904L201.06666666666666,89.57867361155647L201.38888888888889,106.5107080426663L201.7111111111111,122.63151363175213L202.03333333333333,97.84401071811378L202.35555555555558,96.40084521260655L202.67777777777778,154.03540260485883L203,113.66842982585473L203.32222222222222,81.8481410253956L203.64444444444445,95.03894687109675L203.96666666666667,80.92051182993346L204.2888888888889,68.1219453120714L204.61111111111111,57.64922446873702L204.93333333333334,64.88739661971883L205.25555555555553,54.74134544253445L205.57777777777778,106.69309233021792L205.89999999999998,120.89852904315029L206.22222222222223,114.05769347569492L206.54444444444445,103.24936111105171L206.86666666666667,118.38833599646503L207.1888888888889,101.69932484006655L207.5111111111111,52.6098716984735L207.83333333333334,75.50100877347869L208.15555555555554,98.0500806669193L208.4777777777778,117.52583087085475L208.79999999999998,116.12275651811827L209.12222222222223,116.03862598728693L209.44444444444443,109.12500588412026L209.76666666666668,55.91782457539398L210.0888888888889,94.50377122228724L210.4111111111111,116.65426575461262L210.73333333333335,71.53607172083396L211.05555555555554,59.82341335720737L211.3777777777778,61.141075754802955L211.7,18.911208563233345L212.02222222222224,53.032624338379506L212.34444444444443,45.72075914282257L212.66666666666666,37.86580967270527L212.98888888888888,87.06987001993183L213.3111111111111,78.54279634057238L213.63333333333335,97.8989854520485L213.95555555555555,93.07369165575055L214.2777777777778,60.15967474076477L214.6,73.8795885663827L214.92222222222225,66.60781997332575L215.24444444444444,66.146507627306L215.56666666666666,50.546322850309394L215.88888888888889,50.396617410136855L216.2111111111111,100.79382860037899L216.53333333333333,115.09609528644805L216.85555555555555,83.50322251000358L217.1777777777778,115.59741049574825L217.5,95.37452768782977L217.8222222222222,105.82854061782479L218.14444444444445,73.6264287225015L218.46666666666667,85.15590560386224L218.7888888888889,125.90270412891888L219.11111111111111,119.22640931206813L219.43333333333334,151.24830393074674L219.75555555555556,143.6263300757332L220.07777777777775,92.64369813088919L220.4,57.80028671910965L220.7222222222222,46.187675388399384L221.04444444444445,26.462197060432203L221.36666666666665,39.07079754534135L221.6888888888889,61.338707317488016L222.01111111111112,68.72168050621546L222.33333333333334,61.27256640919805L222.65555555555557,56.32128169732546L222.97777777777776,123.75153977034839L223.3,89.93410470937695L223.6222222222222,117.25109301361448L223.94444444444446,97.73849913092259L224.26666666666665,87.9211199558485L224.5888888888889,119.13555512170248L224.9111111111111,96.24864950978912L225.23333333333332,123.72061625006293L225.55555555555557,116.13048864652208L225.87777777777777,112.27661350041322L226.20000000000002,97.48190804165412L226.5222222222222,72.43214317704327L226.84444444444446,114.47520463791548L227.16666666666666,138.00161356644065L227.4888888888889,152.93299801657338L227.8111111111111,140.27805320447527L228.13333333333333,112.26460017219686L228.45555555555555,94.45224994096456L228.77777777777777,106.55691194577994L229.10000000000002,91.5244730952024L229.42222222222222,88.91494905487535L229.74444444444447,67.7268097039213L230.06666666666666,91.01068878866134L230.38888888888889,69.09967270312846L230.7111111111111,74.52312164555875L231.03333333333333,60.4868333450013L231.35555555555555,68.06401086515508L231.67777777777778,58.715434106983636L232,63.952579098223396L232.32222222222222,61.87445441083831L232.64444444444442,77.98342157838779L232.96666666666667,78.3143266286733L233.2888888888889,72.16195046939151L233.61111111111111,61.72144411586345L233.93333333333334,58.190954238072734L234.25555555555556,53.28353372448427L234.57777777777778,22.924566340647573L234.9,82.69319515717174L235.22222222222223,68.59301868732061L235.54444444444442,79.86097905907212L235.86666666666667,109.51104895277722L236.18888888888887,127.95977725984994L236.51111111111112,127.23614757539235L236.83333333333334,85.66012543488385L237.15555555555557,88.07690594940686L237.4777777777778,98.8762792202789L237.79999999999998,58.388698135194616L238.12222222222223,43.82825657032575L238.44444444444443,46.47629430474427L238.76666666666668,92.49375235188957L239.08888888888887,108.23326007812594L239.41111111111113,78.37873061352599L239.73333333333332,92.93262517841835L240.05555555555554,67.63415457482445L240.3777777777778,88.37118137404508L240.7,47.66259636715159L241.02222222222224,64.15554030320108L241.34444444444443,34.49330816019213L241.66666666666669,48.57235315173054L241.98888888888888,28.28203921037425L242.31111111111113,15.912810257181633L242.63333333333333,8.614609372082356L242.95555555555555,40.92627020088614L243.27777777777777,27.954740239428133L243.6,36.14733312681116L243.92222222222222,47.52064444395785L244.24444444444444,56.797128792839544L244.5666666666667,96.12672896637761L244.88888888888889,106.91886986884026L245.2111111111111,105.06030446524946L245.53333333333333,95.50906903168872L245.85555555555555,82.80950391901318L246.17777777777778,42.49613036044113L246.5,28.09716918306151L246.82222222222222,21.469839443186544L247.14444444444445,32.42209974135139L247.46666666666667,59.59723567488899L247.7888888888889,107.20714648916193L248.1111111111111,98.83446703168072L248.43333333333334,73.28621214039514L248.75555555555556,71.77391981963748L249.07777777777778,19.05458657195831L249.4,44.876509114805856L249.72222222222223,81.90354508680343L250.04444444444445,129.09427808357623L250.36666666666665,59.96044014116137L250.6888888888889,125.4597914589644L251.0111111111111,86.31252129871851L251.33333333333334,52.88393367766864L251.65555555555554,70.64958109283167L251.9777777777778,67.75056591644119L252.3,76.76431400665186L252.6222222222222,104.28385344915714L252.94444444444446,89.19624499185757L253.26666666666665,70.9497202617161L253.5888888888889,71.42934784306479L253.9111111111111,70.22358770974513L254.23333333333335,92.21160456066153L254.55555555555554,139.9067579634477L254.8777777777778,96.11503835961157L255.2,93.26873782899938L255.5222222222222,161.2213292147336L255.84444444444446,163.59157591018777L256.1666666666667,109.10207048507755L256.4888888888889,112.36073585183753L256.81111111111113,80.65830140490135L257.1333333333333,133.57099295841934L257.4555555555556,78.49622614614533L257.77777777777777,64.87796273846845L258.1,57.70130156886236L258.4222222222222,88.09740111954005L258.74444444444447,75.27333294467327L259.06666666666666,77.98101148555398L259.3888888888889,46.97623262375424L259.7111111111111,31.79318922024862L260.0333333333333,8.396334522139398L260.35555555555555,34.67730220864496L260.67777777777775,27.881131691397854L261,77.08416699091296L261.3222222222222,60.575092021940364L261.64444444444445,81.57293332595722L261.96666666666664,94.12952552902162L262.2888888888889,98.07739305178795L262.6111111111111,85.59027311134619L262.93333333333334,39.21774220543074L263.2555555555556,99.51081011818037L263.5777777777778,75.88688325718752L263.90000000000003,120.70229642770121L264.22222222222223,114.8372057985153L264.5444444444445,97.95823778574977L264.8666666666667,78.35496983209438L265.18888888888887,80.35559283065314L265.5111111111111,95.23193510513019L265.8333333333333,68.36739867294138L266.15555555555557,99.8564520821828L266.47777777777776,113.61672601615534L266.8,134.2412367815682L267.1222222222222,110.70794153183158L267.44444444444446,112.18725957852274L267.76666666666665,94.0492670630316L268.0888888888889,53.19046325295572L268.4111111111111,39.63891464000591L268.73333333333335,62.70113015607383L269.05555555555554,63.57257888099777L269.3777777777778,46.95537029612794L269.7,72.08132383172952L270.02222222222224,80.49388737765096L270.34444444444443,58.64061327986205L270.6666666666667,58.43571303017309L270.9888888888889,89.10979314403158L271.31111111111113,54.64276019428026L271.6333333333333,58.086869342886516L271.9555555555556,69.26279772267524L272.27777777777777,52.75268519488445L272.59999999999997,26.221139009997046L272.9222222222222,7.544645381095933L273.2444444444444,44.07976101405791L273.56666666666666,40.20322922806366L273.88888888888886,58.03729855978746L274.2111111111111,72.13472197034517L274.5333333333333,67.78834447371102L274.85555555555555,83.55286065761531L275.1777777777778,72.97470116629772L275.5,59.53305129059892" style="fill: none;" fill="none"></path></g></g></g></g><g opacity="0.2"><g><g><g><path stroke="rgb(255, 112, 67)" stroke-width="2px" d="M35.766666666666666,203.30061569213868L36.08888888888889,163.71034355163573L36.41111111111111,287.78840084075927L36.733333333333334,115.92529754638672L37.05555555555555,106.599893951416L37.37777777777778,211.20802993774413L38.34444444444444,415.0079855918884L38.666666666666664,155.61144676208497L38.98888888888889,302.8624906539917L39.31111111111112,51.68117256164551L39.63333333333333,74.9863296508789L39.955555555555556,106.85662994384766L40.27777777777778,155.22722549438475L40.6,198.9662181854248L40.92222222222222,125.78916091918946L41.24444444444445,185.713724899292L41.56666666666667,232.3330020904541L41.888888888888886,90.75559616088867L42.21111111111111,5.263393402099609L42.53333333333333,182.61812438964844L42.855555555555554,150.6125301361084L43.17777777777778,61.91421699523926L43.5,123.7522144317627L43.82222222222222,149.69256515502929L44.144444444444446,1.4591037750244311L44.46666666666666,103.30985717773437L44.788888888888884,60.398245620727536L45.111111111111114,95.12995376586913L45.43333333333334,222.03884620666503L45.75555555555555,117.37326545715332L46.077777777777776,67.75901794433594L46.4,154.13061447143554L46.72222222222223,134.1377658843994L47.044444444444444,202.24036598205566L47.68888888888889,288.68269901275636L48.01111111111111,120.98841514587403L48.33333333333333,41.68894119262697L48.65555555555555,125.1379165649414L48.97777777777778,252.7748331069946L49.300000000000004,238.6602439880371L49.62222222222222,76.16642570495605L49.94444444444444,109.14331855773925L50.266666666666666,130.02028007507323L50.588888888888896,139.64536743164064L50.91111111111111,217.29625816345214L51.233333333333334,64.80638427734375L51.55555555555556,196.03351364135742L51.87777777777777,-8.105007934570324L52.199999999999996,86.86738014221191L52.522222222222226,200.13337898254395L52.84444444444445,62.69023056030274L53.166666666666664,-5.334282684326183L53.48888888888889,133.11835899353028L53.81111111111111,115.13587341308593L54.13333333333333,232.80359420776367L54.45555555555555,173.83233489990235L54.77777777777778,110.4278133392334L55.1,129.9268814086914L55.422222222222224,105.35848274230956L55.74444444444444,44.1560104370117L56.06666666666666,257.6435314178467L56.38888888888889,183.47449951171876L56.711111111111116,165.4752082824707L57.03333333333333,19.601293945312506L57.355555555555554,77.35945701599121L57.67777777777778,90.31756286621093L58,154.16571960449218L58.32222222222222,186.43100357055664L58.644444444444446,87.2303482055664L58.96666666666667,243.5516384124756L59.28888888888889,60.29730987548828L59.61111111111111,105.85786514282226L59.93333333333333,176.73828620910643L60.25555555555556,118.28433532714844L60.57777777777778,30.48690681457518L60.9,177.6347911834717L61.22222222222222,73.23752365112304L61.544444444444444,272.69103775024416L61.86666666666667,124.62882423400879L62.18888888888889,67.7469654083252L62.51111111111111,140.23675651550292L62.833333333333336,152.803715133667L63.15555555555555,180.14277114868165L63.477777777777774,54.74913711547852L63.8,156.10858840942382L64.12222222222222,222.82266845703126L64.44444444444444,93.37958602905273L64.76666666666667,128.4208236694336L65.08888888888889,65.71141090393067L65.41111111111111,73.8951847076416L65.73333333333333,187.16681938171388L66.05555555555556,154.2646183013916L66.37777777777778,100.21744804382324L66.7,123.11573867797851L67.02222222222223,137.86529273986815L67.34444444444445,179.73631210327147L67.66666666666667,93.2532211303711L67.9888888888889,106.53087196350099L68.3111111111111,81.58833541870118L68.63333333333333,89.31499557495117L68.95555555555556,153.690238571167L69.27777777777779,93.74027938842774L69.6,22.2604907989502L69.92222222222222,131.37203140258788L70.24444444444444,143.86083526611327L70.56666666666668,91.74207077026368L70.88888888888889,119.43146514892578L71.21111111111111,75.16453742980957L71.53333333333333,163.10615501403808L71.85555555555555,107.4414665222168L72.17777777777778,137.44739227294923L72.5,79.01601867675781L72.82222222222222,119.77284049987793L73.14444444444445,196.2940860748291L73.46666666666667,162.84697456359862L73.78888888888888,56.70752143859863L74.1111111111111,90.29532508850097L74.43333333333332,197.09040222167968L74.75555555555556,96.42857208251952L75.07777777777778,53.69004173278809L75.4,66.46956634521484L75.72222222222223,237.0485652923584L76.04444444444445,87.32758331298828L76.36666666666666,145.43194274902345L76.68888888888888,178.04671630859374L77.0111111111111,26.397634124755854L77.33333333333333,85.97627334594726L77.65555555555555,89.08637084960937L77.97777777777777,94.37821502685547L78.30000000000001,96.99347953796386L78.62222222222223,79.40923690795898L78.94444444444444,216.6626682281494L79.26666666666667,112.95429649353026L79.58888888888889,100.19004974365235L79.91111111111111,73.66163711547851L80.23333333333333,68.66652297973633L80.55555555555556,83.26648979187011L80.87777777777778,13.323654174804688L81.2,131.73785133361815L81.52222222222221,93.02075996398925L81.84444444444443,121.4584300994873L82.16666666666667,91.65495300292969L82.4888888888889,160.06664123535157L82.81111111111112,109.34461288452148L83.13333333333334,88.36247177124024L83.45555555555556,256.68530387878417L83.77777777777777,53.64128837585449L84.1,80.2529483795166L84.42222222222222,159.21698837280275L84.74444444444444,58.646927261352545L85.06666666666666,128.01042633056642L85.38888888888889,54.17547035217285L85.71111111111111,143.4584503173828L86.03333333333335,35.93482284545897L86.35555555555555,45.92318382263184L86.67777777777778,75.52502708435058L87,208.53891944885254L87.32222222222222,110.08874664306641L87.64444444444445,122.40833969116211L87.96666666666667,130.21872253417968L88.28888888888889,276.4599336624145L88.61111111111111,171.8481819152832L88.93333333333332,16.505727386474604L89.25555555555555,139.92977333068848L89.57777777777777,107.53072319030763L89.9,228.26202888488768L90.22222222222223,131.18910446166993L90.54444444444445,142.03047943115234L90.86666666666667,144.74674758911132L91.1888888888889,8.420309066772461L91.5111111111111,4.177986145019531L91.83333333333333,134.764497756958L92.15555555555555,-21.16741065979005L92.47777777777777,119.93556671142578L92.8,123.16214942932129L93.12222222222222,123.54042930603028L93.44444444444446,85.73593559265137L93.76666666666667,126.72983589172364L94.08888888888889,95.0469440460205L94.41111111111111,206.21376457214356L94.73333333333333,79.37440338134766L95.05555555555556,48.36044425964357L95.37777777777778,98.89764442443847L95.7,32.04827041625978L96.02222222222223,186.24223709106445L96.34444444444443,144.72233695983886L96.66666666666666,185.2045986175537L96.98888888888888,5.584296417236345L97.3111111111111,194.84869842529298L97.63333333333334,161.96924438476563L97.95555555555556,37.492451858520525L98.27777777777779,145.2212100982666L98.60000000000001,50.788402175903315L98.92222222222222,73.00889892578125L99.24444444444444,40.03397521972656L99.56666666666666,94.41888809204102L99.88888888888889,120.85322303771973L100.21111111111111,79.05604667663575L100.53333333333333,12.190681838989263L100.85555555555555,-26.28135261535644L101.17777777777779,105.36547660827637L101.5,183.14117050170898L101.82222222222222,15.737352752685553L102.14444444444445,71.743212890625L102.46666666666667,120.88595161437988L102.78888888888889,101.09955787658691L103.11111111111111,52.32270698547363L103.43333333333334,106.2129566192627L103.75555555555555,92.66546478271484L104.07777777777777,103.98989181518554L104.39999999999999,-52.236505889892584L104.72222222222221,118.57671966552735L105.04444444444445,91.2240493774414L105.36666666666667,145.36315841674804L105.6888888888889,24.80622406005861L106.01111111111112,163.90627365112306L106.33333333333333,80.58410453796387L106.65555555555555,109.62429962158204L106.97777777777777,174.26666755676268L107.3,12.16005821228029L107.62222222222222,-1.7410991668701286L107.94444444444444,23.332657241821295L108.26666666666667,252.32821025848386L108.5888888888889,107.35139503479003L108.9111111111111,12.967068862915056L109.23333333333333,46.24147262573243L109.55555555555556,83.68228530883789L109.87777777777778,12.536029434204096L110.2,78.45929336547852L110.52222222222223,69.61174736022949L110.84444444444445,44.912264633178694L111.16666666666667,77.87615432739258L111.48888888888888,15.864328765869146L111.8111111111111,122.77945594787597L112.13333333333333,67.58644599914551L112.45555555555555,55.520465469360346L112.77777777777779,236.15046463012695L113.10000000000001,110.6173267364502L113.42222222222223,134.70953140258788L113.74444444444445,69.68216133117676L114.06666666666666,168.2990665435791L114.38888888888889,105.00393447875977L114.71111111111111,30.693361663818365L115.03333333333333,47.611285781860346L115.35555555555555,95.8099884033203L115.67777777777778,188.0365032196045L116,156.9881519317627L116.32222222222221,274.28850803375246L116.64444444444445,130.59265670776367L116.96666666666667,-3.453679656982416L117.28888888888889,182.56220741271972L117.61111111111111,31.500440216064447L117.93333333333334,49.93708572387695L118.25555555555556,83.83360404968262L118.57777777777778,113.77285041809081L118.89999999999999,114.17425079345703L119.22222222222221,11.487119293212885L119.54444444444444,55.350915145874026L119.86666666666666,1.22854385375976L120.1888888888889,-20.307300949096685L120.51111111111112,72.87513275146485L120.83333333333334,110.0016628265381L121.15555555555557,155.4406063079834L121.47777777777777,76.4858009338379L121.8,48.96208648681639L122.12222222222222,78.29480171203613L122.44444444444444,109.8879955291748L122.76666666666667,19.820853805541987L123.08888888888889,92.69282913208008L123.41111111111111,35.42243728637695L123.73333333333333,67.28822212219238L124.05555555555554,30.219204711914045L124.37777777777778,167.66320190429687L124.7,74.03777809143067L125.02222222222223,59.0403491973877L125.34444444444445,127.7684928894043L125.66666666666667,121.31573486328125L125.9888888888889,60.87264022827148L126.3111111111111,23.39437980651857L126.63333333333333,29.744097137451178L126.95555555555555,199.98732261657716L127.27777777777777,78.54199752807617L127.6,103.86498680114745L127.92222222222223,106.20334854125976L128.24444444444444,107.35937347412109L128.56666666666666,76.54487533569336L128.88888888888889,85.77592964172364L129.2111111111111,12.88395729064942L129.53333333333333,108.07773857116699L129.85555555555555,121.05254821777343L130.17777777777778,114.24018325805665L130.5,256.04234352111814L130.82222222222222,54.019873809814456L131.14444444444445,117.2466968536377L131.46666666666667,16.87901649475097L131.7888888888889,197.24195861816406L132.11111111111111,151.2772529602051L132.43333333333334,35.43007621765136L132.75555555555556,53.736893844604495L133.07777777777778,81.64876785278321L133.4,106.51905708312988L133.72222222222223,-24.122624588012684L134.04444444444445,58.464849090576166L134.36666666666667,74.10809020996093L134.6888888888889,102.70325813293458L135.01111111111112,64.89883232116699L135.33333333333334,106.26710815429688L135.65555555555557,24.995092391967773L135.9777777777778,74.84312515258789L136.29999999999998,81.02152671813965L136.6222222222222,176.18913192749022L136.94444444444443,217.46930541992188L137.26666666666665,81.50152320861817L137.5888888888889,5.0718769073486385L137.91111111111113,96.91916122436523L138.23333333333335,67.30173454284667L138.55555555555557,102.98474426269532L138.87777777777777,79.67819519042969L139.2,36.94058151245119L139.5222222222222,92.34401855468751L139.84444444444443,4.032948303222639L140.16666666666666,211.70350799560546L140.48888888888888,98.8745578765869L140.8111111111111,85.3642421722412L141.13333333333335,-1.722358322143549L141.45555555555555,53.37783012390136L141.77777777777777,65.49673995971679L142.1,84.2991714477539L142.42222222222222,36.791876983642595L142.74444444444444,-2.1528545379638615L143.06666666666666,158.89340324401854L143.38888888888889,89.88716850280763L143.7111111111111,8.289904022216803L144.03333333333333,65.11333351135254L144.35555555555555,66.3123062133789L144.67777777777778,60.75887107849121L145,29.355971527099626L145.3222222222222,119.9175048828125L145.64444444444445,154.48855781555176L145.96666666666667,107.36619758605957L146.2888888888889,214.25830612182617L146.61111111111111,95.21873512268066L146.93333333333334,124.92181968688965L147.25555555555556,-63.07978210449218L147.57777777777775,101.19723434448242L147.9,-5.586639022827143L148.2222222222222,101.38263969421386L148.54444444444445,215.57311897277833L148.86666666666665,98.16827926635743L149.1888888888889,15.324850463867193L149.51111111111112,69.80160026550293L149.83333333333334,84.30226097106933L150.15555555555557,154.7783618927002L150.47777777777776,39.69568939208986L150.8,53.275264739990234L151.1222222222222,171.90708656311034L151.44444444444446,59.13602256774902L151.76666666666665,137.10241813659667L152.0888888888889,20.557586288452143L152.4111111111111,134.6031295776367L152.73333333333332,140.8689884185791L153.05555555555557,89.84775161743164L153.37777777777777,206.10108184814453L153.70000000000002,63.31102104187012L154.0222222222222,45.28314323425295L154.34444444444446,106.24663581848144L154.66666666666666,98.59986190795898L154.9888888888889,110.73791999816895L155.3111111111111,120.78535537719726L155.63333333333333,171.99434013366698L155.95555555555555,157.43667602539062L156.27777777777777,47.96675071716308L156.60000000000002,111.25L156.92222222222222,121.33780288696289L157.24444444444447,138.85169944763183L157.56666666666666,19.513123703002947L157.88888888888889,61.05376777648925L158.2111111111111,120.92784690856934L158.53333333333333,147.16621780395508L158.85555555555555,115.65453987121582L159.17777777777778,59.65105628967285L159.5,153.55266990661622L159.82222222222222,51.0093879699707L160.14444444444442,229.53060073852538L160.46666666666667,85.33579139709472L160.7888888888889,110.7206729888916L161.11111111111111,148.00588912963866L161.43333333333334,184.4683753967285L161.75555555555556,10.522814559936506L162.07777777777778,118.52749099731446L162.4,33.9078239440918L162.72222222222223,36.35245170593262L163.04444444444442,92.498291015625L163.36666666666667,124.08089218139648L163.68888888888887,-9.847193527221691L164.01111111111112,-27.315494155883783L164.33333333333334,83.51093559265136L164.65555555555557,-12.820197677612299L164.9777777777778,39.68954429626464L165.29999999999998,56.51233825683593L165.62222222222223,104.06553421020509L165.94444444444443,115.40177612304687L166.26666666666668,251.47297248840334L166.58888888888887,68.03642997741699L166.91111111111113,22.19798736572264L167.23333333333332,88.53338012695312L167.55555555555554,33.45264549255373L167.8777777777778,26.214197921752913L168.2,209.08532371520997L168.52222222222224,96.01192779541016L168.84444444444443,139.4202735900879L169.16666666666669,167.630948638916L169.48888888888888,85.1605712890625L169.81111111111113,111.01631660461426L170.13333333333333,156.19499320983886L170.45555555555555,74.87323951721191L170.77777777777777,7.945541000366205L171.1,27.30432434082033L171.42222222222222,29.421598434448242L171.74444444444444,278.1833953857422L172.0666666666667,98.14475135803222L172.38888888888889,-14.09199485778808L172.7111111111111,-22.397414398193348L173.03333333333333,69.1449577331543L173.35555555555555,12.576702499389654L173.67777777777778,119.58224067687988L174,65.17549743652344L174.32222222222222,131.04226722717286L174.64444444444445,201.08529167175294L174.96666666666667,69.97145614624023L175.2888888888889,84.19409370422363L175.6111111111111,71.88560256958007L175.93333333333334,80.25420455932617L176.25555555555556,-35.77104415893555L176.57777777777778,14.70338096618653L176.9,109.1123893737793L177.22222222222223,114.1227813720703L177.54444444444445,77.75922775268555L177.86666666666665,106.67013816833496L178.1888888888889,39.45708312988282L178.5111111111111,55.87823905944825L178.83333333333334,231.14598007202147L179.15555555555554,44.64177856445312L179.4777777777778,122.2546443939209L179.8,72.95817642211914L180.1222222222222,137.00280647277833L180.44444444444446,21.100595474243164L180.76666666666665,66.3128833770752L181.0888888888889,126.50817108154297L181.4111111111111,43.36716346740721L181.73333333333335,25.72411804199217L182.05555555555554,244.53583831787108L182.3777777777778,98.4363208770752L182.7,52.95083084106446L183.0222222222222,141.66873359680176L183.34444444444446,50.51560745239257L183.66666666666666,186.3370616912842L183.9888888888889,3.4980873107910213L184.3111111111111,43.891533660888655L184.63333333333335,61.70114173889161L184.95555555555555,120.0234992980957L185.27777777777777,-18.912262344360357L185.6,204.5013198852539L185.92222222222222,88.62603187561035L186.24444444444444,83.60762748718261L186.56666666666666,41.61027717590332L186.8888888888889,240.48968315124512L187.2111111111111,-18.30630836486816L187.53333333333333,101.84168853759765L187.85555555555555,41.90805969238281L188.17777777777778,68.50902519226074L188.5,87.61450157165527L188.82222222222222,42.94169197082519L189.14444444444445,40.0902317047119L189.46666666666667,-74.41127090454103L189.7888888888889,83.16813430786132L190.11111111111111,144.66482429504396L190.4333333333333,12.044218063354492L190.75555555555556,72.63781661987305L191.07777777777778,117.00839614868164L191.4,123.66424789428712L191.72222222222223,163.28039054870607L192.04444444444445,26.19970092773437L192.36666666666667,207.0402629852295L192.68888888888887,89.1034481048584L193.01111111111112,66.84821968078613L193.33333333333331,119.48296852111817L193.65555555555557,21.80894508361817L193.97777777777776,46.92133750915528L194.3,125.22364234924316L194.6222222222222,60.25310592651367L194.94444444444446,54.678655242919916L195.26666666666668,78.84388809204101L195.58888888888887,-28.380734634399403L195.91111111111113,-54.28767776489258L196.23333333333332,80.01997795104981L196.55555555555557,54.3570053100586L196.87777777777777,19.433984374999994L197.20000000000002,109.62521629333496L197.5222222222222,142.32673416137695L197.84444444444443,115.2075096130371L198.16666666666666,74.29709434509277L198.48888888888888,39.61549758911133L198.81111111111113,84.41969680786133L199.13333333333333,104.48757667541504L199.45555555555558,35.396363067626936L199.77777777777777,118.69035301208496L200.1,122.0102325439453L200.42222222222222,117.45956840515137L200.74444444444444,102.14643096923828L201.06666666666666,65.67674713134765L201.38888888888889,131.90875968933105L201.7111111111111,146.81272201538087L202.03333333333333,60.662756347656256L202.35555555555558,94.23609695434571L202.67777777777778,240.48723869323732L203,53.117970657348636L203.32222222222222,34.117707824707026L203.64444444444445,114.82515563964844L203.96666666666667,59.74285926818848L204.2888888888889,48.924095535278326L204.61111111111111,41.940143203735346L204.93333333333334,75.74465484619141L205.25555555555553,39.52226867675782L205.57777777777778,184.62071266174317L205.89999999999998,142.20668411254883L206.22222222222223,103.79644012451172L206.54444444444445,87.03686256408692L206.86666666666667,141.09679832458497L207.1888888888889,76.66580810546876L207.5111111111111,-21.024308013916027L207.83333333333334,109.83771438598633L208.15555555555554,131.8736885070801L208.4777777777778,146.7394561767578L208.79999999999998,114.01814498901368L209.12222222222223,115.91243019104004L209.44444444444443,98.75457572937012L209.76666666666668,-23.8929473876953L210.0888888888889,152.38269119262696L210.4111111111111,149.8800075531006L210.73333333333335,3.8587806701659986L211.05555555555554,42.25442581176756L211.3777777777778,63.117569351196295L211.7,-44.4335922241211L212.02222222222224,104.21474800109864L212.34444444444443,34.75296134948732L212.66666666666666,26.083385467529297L212.98888888888888,160.87596054077147L213.3111111111111,65.7521858215332L213.63333333333335,126.93326911926269L213.95555555555555,85.83575096130372L214.2777777777778,10.788649368286116L214.6,94.45945930480957L214.92222222222225,55.70016708374024L215.24444444444444,65.45453910827636L215.56666666666666,27.146045684814453L215.88888888888889,50.17205924987793L216.2111111111111,176.3896453857422L216.53333333333333,136.54949531555175L216.85555555555555,36.1139133453369L217.1777777777778,163.73869247436522L217.5,65.04020347595215L217.8222222222222,121.50956001281739L218.14444444444445,25.323260879516596L218.46666666666667,102.45012092590332L218.7888888888889,187.0229019165039L219.11111111111111,109.211967086792L219.43333333333334,199.28114585876466L219.75555555555556,132.1933692932129L220.07777777777775,16.169750213623047L220.4,5.53516960144043L220.7222222222222,28.76875839233398L221.04444444444445,-3.1260204315185547L221.36666666666665,57.983698272705084L221.6888888888889,94.74057197570801L222.01111111111112,79.79614028930663L222.33333333333334,50.09889526367188L222.65555555555557,48.894354629516585L222.97777777777776,224.8969268798828L223.3,39.207952117919916L223.6222222222222,158.2265754699707L223.94444444444446,68.46960830688477L224.26666666666665,73.1950511932373L224.5888888888889,165.9572078704834L224.9111111111111,61.918291091918945L225.23333333333332,164.92856636047364L225.55555555555557,104.74529724121093L225.87777777777777,106.49580078125L226.20000000000002,75.28984985351562L226.5222222222222,34.85749588012695L226.84444444444446,177.53979682922363L227.16666666666666,173.2912269592285L227.4888888888889,175.33007469177247L227.8111111111111,121.29563598632812L228.13333333333333,70.24442062377929L228.45555555555555,67.73372459411621L228.77777777777777,124.71390495300292L229.10000000000002,68.97581481933594L229.42222222222222,85.00066299438477L229.74444444444447,35.94460067749023L230.06666666666666,125.93650741577149L230.38888888888889,36.2331485748291L230.7111111111111,82.65829505920411L231.03333333333333,39.432400894165056L231.35555555555555,79.42977714538574L231.67777777777778,44.69256896972658L232,71.80829658508301L232.32222222222222,58.75726737976075L232.64444444444442,102.14687232971191L232.96666666666667,78.81068420410156L233.2888888888889,62.933386230468756L233.61111111111111,46.060684585571295L233.93333333333334,52.89521942138671L234.25555555555556,45.92240295410156L234.57777777777778,-22.613884735107433L234.9,172.346138381958L235.22222222222223,47.44275398254396L235.54444444444442,96.76291961669922L235.86666666666667,153.98615379333495L236.18888888888887,155.63286972045898L236.51111111111112,126.15070304870605L236.83333333333334,23.29609222412111L237.15555555555557,91.7020767211914L237.4777777777778,115.07533912658691L237.79999999999998,-2.3426734924316293L238.12222222222223,21.987594223022455L238.44444444444443,50.44835090637207L238.76666666666668,161.51993942260742L239.08888888888887,131.84252166748047L239.41111111111113,33.596936416625994L239.73333333333332,114.76346702575684L240.05555555555554,29.686448669433588L240.3777777777778,119.47672157287597L240.7,-13.400281143188465L241.02222222222224,88.89495620727538L241.34444444444443,-10.000040054321289L241.66666666666669,69.69092063903808L241.98888888888888,-2.1534317016601676L242.63333333333333,-2.3326919555664176L242.95555555555555,89.3937614440918L243.27777777777777,8.497445297241228L243.6,48.43622245788575L243.92222222222222,64.58061141967774L244.24444444444444,70.71185531616212L244.5666666666667,155.12112922668456L244.88888888888889,123.10708122253418L245.2111111111111,102.27245635986328L245.53333333333333,81.18221588134766L245.85555555555555,63.760156249999994L246.17777777777778,-17.973929977416987L246.5,6.498727416992182L246.82222222222222,11.528844833374023L247.14444444444445,48.85049018859863L247.46666666666667,100.35993957519531L247.7888888888889,178.62201271057128L248.1111111111111,86.27544784545898L248.43333333333334,34.96382980346678L248.75555555555556,69.50548133850097L249.07777777777778,-60.024413299560536L249.4,83.60939292907715L249.72222222222223,137.4440990447998L250.04444444444445,199.88037757873536L250.6888888888889,223.70881843566895L251.0111111111111,27.591616058349615L251.33333333333334,2.7410522460937443L251.65555555555554,97.29805221557616L251.9777777777778,63.402043151855466L252.3,90.28493614196778L252.6222222222222,145.56316261291505L252.94444444444446,66.5648323059082L253.26666666666665,43.579933166503906L253.5888888888889,72.14878921508789L253.9111111111111,68.41494750976562L254.23333333333335,125.19362983703613L254.55555555555554,211.44948806762696L254.8777777777778,30.42745895385744L255.2,88.99928703308106L255.5222222222222,263.15021629333495L255.84444444444446,167.14694595336914L256.1666666666667,27.367812347412126L256.4888888888889,117.24873390197754L256.81111111111113,33.10464973449709L257.1333333333333,212.94003028869628L257.4555555555556,-4.115924072265614L257.77777777777777,44.45056762695313L258.1,46.936309814453125L258.4222222222222,133.69155044555663L258.74444444444447,56.03723068237305L259.06666666666666,82.042529296875L259.3888888888889,0.4690643310546818L259.7111111111111,9.018624114990217L260.0333333333333,-26.69894752502441L260.35555555555555,74.09875373840332L260.67777777777775,17.686875915527338L261,150.88871994018555L261.3222222222222,35.811479568481445L261.64444444444445,113.06969528198242L261.96666666666664,112.96441383361817L262.2888888888889,103.9991943359375L262.6111111111111,66.85959320068359L262.93333333333334,-30.34105415344237L263.2555555555556,189.95041198730468L263.5777777777778,40.45099296569825L263.90000000000003,187.92541618347167L264.22222222222223,106.03956985473633L264.5444444444445,72.63978576660156L264.8666666666667,48.950067901611334L265.18888888888887,83.35652732849121L265.5111111111111,117.5464485168457L265.8333333333333,28.07059402465822L266.15555555555557,147.09003219604492L266.47777777777776,134.25713691711425L266.8,165.1780029296875L267.1222222222222,75.40799865722656L267.44444444444446,114.40623664855957L267.76666666666665,66.84227828979492L268.0888888888889,-8.097742462158209L268.4111111111111,19.31159172058105L268.73333333333335,97.29445343017578L269.05555555555554,64.87975196838379L269.3777777777778,22.02955741882326L269.7,109.77025413513184L270.02222222222224,93.1127326965332L270.34444444444443,25.860702133178705L270.6666666666667,58.12836265563965L270.9888888888889,135.12091331481935L271.31111111111113,2.9422107696533146L271.6333333333333,63.253033065795904L271.9555555555556,86.0266902923584L272.27777777777777,27.987516403198242L272.59999999999997,-13.576180267333996L272.9222222222222,-20.470095062255865L273.2444444444444,98.88243446350099L273.56666666666666,34.388431549072266L273.88888888888886,84.78840255737305L274.2111111111111,93.28085708618164L274.5333333333333,61.26877822875977L274.85555555555555,107.19963493347167L275.1777777777778,57.10746192932129L275.5,39.370576477050776" style="fill: none;" fill="none"></path></g></g></g></g></g></g><g transform="translate(40, 178)" clip-path="url(#clip_1)"><clipPath id="clip_1"><rect width="290" height="21"></rect></clipPath><g><g><line x1="0" y1="0" x2="0" y2="5" style="visibility: inherit;" fill="rgb(0, 0, 0)" stroke="rgb(204, 204, 204)" stroke-width="1px"></line><line x1="32.22222222222222" y1="0" x2="32.22222222222222" y2="5" style="visibility: inherit;" fill="rgb(0, 0, 0)" stroke="rgb(204, 204, 204)" stroke-width="1px"></line><line x1="64.44444444444444" y1="0" x2="64.44444444444444" y2="5" style="visibility: inherit;" fill="rgb(0, 0, 0)" stroke="rgb(204, 204, 204)" stroke-width="1px"></line><line x1="96.66666666666666" y1="0" x2="96.66666666666666" y2="5" style="visibility: inherit;" fill="rgb(0, 0, 0)" stroke="rgb(204, 204, 204)" stroke-width="1px"></line><line x1="128.88888888888889" y1="0" x2="128.88888888888889" y2="5" style="visibility: inherit;" fill="rgb(0, 0, 0)" stroke="rgb(204, 204, 204)" stroke-width="1px"></line><line x1="161.11111111111111" y1="0" x2="161.11111111111111" y2="5" style="visibility: inherit;" fill="rgb(0, 0, 0)" stroke="rgb(204, 204, 204)" stroke-width="1px"></line><line x1="193.33333333333331" y1="0" x2="193.33333333333331" y2="5" style="visibility: inherit;" fill="rgb(0, 0, 0)" stroke="rgb(204, 204, 204)" stroke-width="1px"></line><line x1="225.55555555555557" y1="0" x2="225.55555555555557" y2="5" style="visibility: inherit;" fill="rgb(0, 0, 0)" stroke="rgb(204, 204, 204)" stroke-width="1px"></line><line x1="257.77777777777777" y1="0" x2="257.77777777777777" y2="5" style="visibility: inherit;" fill="rgb(0, 0, 0)" stroke="rgb(204, 204, 204)" stroke-width="1px"></line><line x1="290" y1="0" x2="290" y2="5" style="visibility: inherit;" fill="rgb(0, 0, 0)" stroke="rgb(204, 204, 204)" stroke-width="1px"></line></g><g transform="translate(0, 8)"><text x="0" y="0" dx="0em" dy="0.95em" style="text-anchor: middle; visibility: hidden; font-family: &quot;Helvetica Neue&quot;, sans-serif; font-size: 12px; font-weight: 200;" fill="rgb(50, 49, 63)" stroke="none" stroke-width="1px">-100</text><text x="32.22222222222222" y="0" dx="0em" dy="0.95em" style="text-anchor: middle; visibility: inherit; font-family: &quot;Helvetica Neue&quot;, sans-serif; font-size: 12px; font-weight: 200;" fill="rgb(50, 49, 63)" stroke="none" stroke-width="1px">0</text><text x="64.44444444444444" y="0" dx="0em" dy="0.95em" style="text-anchor: middle; visibility: inherit; font-family: &quot;Helvetica Neue&quot;, sans-serif; font-size: 12px; font-weight: 200;" fill="rgb(50, 49, 63)" stroke="none" stroke-width="1px">100</text><text x="96.66666666666666" y="0" dx="0em" dy="0.95em" style="text-anchor: middle; visibility: inherit; font-family: &quot;Helvetica Neue&quot;, sans-serif; font-size: 12px; font-weight: 200;" fill="rgb(50, 49, 63)" stroke="none" stroke-width="1px">200</text><text x="128.88888888888889" y="0" dx="0em" dy="0.95em" style="text-anchor: middle; visibility: inherit; font-family: &quot;Helvetica Neue&quot;, sans-serif; font-size: 12px; font-weight: 200;" fill="rgb(50, 49, 63)" stroke="none" stroke-width="1px">300</text><text x="161.11111111111111" y="0" dx="0em" dy="0.95em" style="text-anchor: middle; visibility: inherit; font-family: &quot;Helvetica Neue&quot;, sans-serif; font-size: 12px; font-weight: 200;" fill="rgb(50, 49, 63)" stroke="none" stroke-width="1px">400</text><text x="193.33333333333331" y="0" dx="0em" dy="0.95em" style="text-anchor: middle; visibility: inherit; font-family: &quot;Helvetica Neue&quot;, sans-serif; font-size: 12px; font-weight: 200;" fill="rgb(50, 49, 63)" stroke="none" stroke-width="1px">500</text><text x="225.55555555555557" y="0" dx="0em" dy="0.95em" style="text-anchor: middle; visibility: inherit; font-family: &quot;Helvetica Neue&quot;, sans-serif; font-size: 12px; font-weight: 200;" fill="rgb(50, 49, 63)" stroke="none" stroke-width="1px">600</text><text x="257.77777777777777" y="0" dx="0em" dy="0.95em" style="text-anchor: middle; visibility: inherit; font-family: &quot;Helvetica Neue&quot;, sans-serif; font-size: 12px; font-weight: 200;" fill="rgb(50, 49, 63)" stroke="none" stroke-width="1px">700</text><text x="290" y="0" dx="0em" dy="0.95em" style="text-anchor: middle; visibility: hidden; font-family: &quot;Helvetica Neue&quot;, sans-serif; font-size: 12px; font-weight: 200;" fill="rgb(50, 49, 63)" stroke="none" stroke-width="1px">800</text></g><line x1="0" y1="0" x2="290" y2="0" fill="rgb(0, 0, 0)" stroke="rgb(204, 204, 204)" stroke-width="1px"></line></g></g></g></g></svg>