<svg viewBox="0 0 330 200" xmlns="http://www.w3.org/2000/svg"><g><g><g><g><g><line x1="40" y1="178" x2="35" y2="178" style="visibility: inherit;" fill="rgb(0, 0, 0)" stroke="rgb(204, 204, 204)" stroke-width="1px"></line><line x1="40" y1="161.8181818181818" x2="35" y2="161.8181818181818" style="visibility: inherit;" fill="rgb(0, 0, 0)" stroke="rgb(204, 204, 204)" stroke-width="1px"></line><line x1="40" y1="145.63636363636363" x2="35" y2="145.63636363636363" style="visibility: inherit;" fill="rgb(0, 0, 0)" stroke="rgb(204, 204, 204)" stroke-width="1px"></line><line x1="40" y1="129.45454545454547" x2="35" y2="129.45454545454547" style="visibility: inherit;" fill="rgb(0, 0, 0)" stroke="rgb(204, 204, 204)" stroke-width="1px"></line><line x1="40" y1="113.27272727272727" x2="35" y2="113.27272727272727" style="visibility: inherit;" fill="rgb(0, 0, 0)" stroke="rgb(204, 204, 204)" stroke-width="1px"></line><line x1="40" y1="97.0909090909091" x2="35" y2="97.0909090909091" style="visibility: inherit;" fill="rgb(0, 0, 0)" stroke="rgb(204, 204, 204)" stroke-width="1px"></line><line x1="40" y1="80.90909090909092" x2="35" y2="80.90909090909092" style="visibility: inherit;" fill="rgb(0, 0, 0)" stroke="rgb(204, 204, 204)" stroke-width="1px"></line><line x1="40" y1="64.72727272727273" x2="35" y2="64.72727272727273" style="visibility: inherit;" fill="rgb(0, 0, 0)" stroke="rgb(204, 204, 204)" stroke-width="1px"></line><line x1="40" y1="48.54545454545453" x2="35" y2="48.54545454545453" style="visibility: inherit;" fill="rgb(0, 0, 0)" stroke="rgb(204, 204, 204)" stroke-width="1px"></line><line x1="40" y1="32.363636363636346" x2="35" y2="32.363636363636346" style="visibility: inherit;" fill="rgb(0, 0, 0)" stroke="rgb(204, 204, 204)" stroke-width="1px"></line><line x1="40" y1="16.181818181818187" x2="35" y2="16.181818181818187" style="visibility: inherit;" fill="rgb(0, 0, 0)" stroke="rgb(204, 204, 204)" stroke-width="1px"></line><line x1="40" y1="0" x2="35" y2="0" style="visibility: inherit;" fill="rgb(0, 0, 0)" stroke="rgb(204, 204, 204)" stroke-width="1px"></line></g><g transform="translate(30, 0)"><text x="0" y="178" dx="0em" dy="0.3em" style="text-anchor: end; visibility: hidden; font-family: &quot;Helvetica Neue&quot;, sans-serif; font-size: 12px; font-weight: 200;" fill="rgb(50, 49, 63)" stroke="none" stroke-width="1px">225</text><text x="0" y="161.8181818181818" dx="0em" dy="0.3em" style="text-anchor: end; visibility: inherit; font-family: &quot;Helvetica Neue&quot;, sans-serif; font-size: 12px; font-weight: 200;" fill="rgb(50, 49, 63)" stroke="none" stroke-width="1px">230</text><text x="0" y="145.63636363636363" dx="0em" dy="0.3em" style="text-anchor: end; visibility: hidden; font-family: &quot;Helvetica Neue&quot;, sans-serif; font-size: 12px; font-weight: 200;" fill="rgb(50, 49, 63)" stroke="none" stroke-width="1px">235</text><text x="0" y="129.45454545454547" dx="0em" dy="0.3em" style="text-anchor: end; visibility: inherit; font-family: &quot;Helvetica Neue&quot;, sans-serif; font-size: 12px; font-weight: 200;" fill="rgb(50, 49, 63)" stroke="none" stroke-width="1px">240</text><text x="0" y="113.27272727272727" dx="0em" dy="0.3em" style="text-anchor: end; visibility: hidden; font-family: &quot;Helvetica Neue&quot;, sans-serif; font-size: 12px; font-weight: 200;" fill="rgb(50, 49, 63)" stroke="none" stroke-width="1px">245</text><text x="0" y="97.0909090909091" dx="0em" dy="0.3em" style="text-anchor: end; visibility: inherit; font-family: &quot;Helvetica Neue&quot;, sans-serif; font-size: 12px; font-weight: 200;" fill="rgb(50, 49, 63)" stroke="none" stroke-width="1px">250</text><text x="0" y="80.90909090909092" dx="0em" dy="0.3em" style="text-anchor: end; visibility: hidden; font-family: &quot;Helvetica Neue&quot;, sans-serif; font-size: 12px; font-weight: 200;" fill="rgb(50, 49, 63)" stroke="none" stroke-width="1px">255</text><text x="0" y="64.72727272727273" dx="0em" dy="0.3em" style="text-anchor: end; visibility: inherit; font-family: &quot;Helvetica Neue&quot;, sans-serif; font-size: 12px; font-weight: 200;" fill="rgb(50, 49, 63)" stroke="none" stroke-width="1px">260</text><text x="0" y="48.54545454545453" dx="0em" dy="0.3em" style="text-anchor: end; visibility: hidden; font-family: &quot;Helvetica Neue&quot;, sans-serif; font-size: 12px; font-weight: 200;" fill="rgb(50, 49, 63)" stroke="none" stroke-width="1px">265</text><text x="0" y="32.363636363636346" dx="0em" dy="0.3em" style="text-anchor: end; visibility: inherit; font-family: &quot;Helvetica Neue&quot;, sans-serif; font-size: 12px; font-weight: 200;" fill="rgb(50, 49, 63)" stroke="none" stroke-width="1px">270</text><text x="0" y="16.181818181818187" dx="0em" dy="0.3em" style="text-anchor: end; visibility: hidden; font-family: &quot;Helvetica Neue&quot;, sans-serif; font-size: 12px; font-weight: 200;" fill="rgb(50, 49, 63)" stroke="none" stroke-width="1px">275</text><text x="0" y="0" dx="0em" dy="0.3em" style="text-anchor: end; visibility: hidden; font-family: &quot;Helvetica Neue&quot;, sans-serif; font-size: 12px; font-weight: 200;" fill="rgb(50, 49, 63)" stroke="none" stroke-width="1px">280</text></g><line x1="40" y1="0" x2="40" y2="178" fill="rgb(0, 0, 0)" stroke="rgb(204, 204, 204)" stroke-width="1px"></line></g></g><g transform="translate(40, 0)" clip-path="url(#clip_0)"><clipPath id="clip_0"><rect width="290" height="177"></rect></clipPath><g><g><g><line x1="0" y1="0" x2="0" y2="178" fill="rgb(0, 0, 0)" stroke="rgb(60, 60, 60)" stroke-width="1px" opacity="0.25"></line><line x1="32.22222222222222" y1="0" x2="32.22222222222222" y2="178" fill="rgb(0, 0, 0)" stroke="rgb(60, 60, 60)" stroke-width="1px" opacity="0.25"></line><line x1="64.44444444444444" y1="0" x2="64.44444444444444" y2="178" fill="rgb(0, 0, 0)" stroke="rgb(60, 60, 60)" stroke-width="1px" opacity="0.25"></line><line x1="96.66666666666666" y1="0" x2="96.66666666666666" y2="178" fill="rgb(0, 0, 0)" stroke="rgb(60, 60, 60)" stroke-width="1px" opacity="0.25"></line><line x1="128.88888888888889" y1="0" x2="128.88888888888889" y2="178" fill="rgb(0, 0, 0)" stroke="rgb(60, 60, 60)" stroke-width="1px" opacity="0.25"></line><line x1="161.11111111111111" y1="0" x2="161.11111111111111" y2="178" fill="rgb(0, 0, 0)" stroke="rgb(60, 60, 60)" stroke-width="1px" opacity="0.25"></line><line x1="193.33333333333331" y1="0" x2="193.33333333333331" y2="178" fill="rgb(0, 0, 0)" stroke="rgb(60, 60, 60)" stroke-width="1px" opacity="0.25"></line><line x1="225.55555555555557" y1="0" x2="225.55555555555557" y2="178" fill="rgb(0, 0, 0)" stroke="rgb(60, 60, 60)" stroke-width="1px" opacity="0.25"></line><line x1="257.77777777777777" y1="0" x2="257.77777777777777" y2="178" fill="rgb(0, 0, 0)" stroke="rgb(60, 60, 60)" stroke-width="1px" opacity="0.25"></line><line x1="290" y1="0" x2="290" y2="178" fill="rgb(0, 0, 0)" stroke="rgb(60, 60, 60)" stroke-width="1px" opacity="0.25"></line></g><g><line x1="0" y1="178" x2="290" y2="178" fill="rgb(0, 0, 0)" stroke="rgb(60, 60, 60)" stroke-width="1px" opacity="0.25"></line><line x1="0" y1="161.8181818181818" x2="290" y2="161.8181818181818" fill="rgb(0, 0, 0)" stroke="rgb(60, 60, 60)" stroke-width="1px" opacity="0.25"></line><line x1="0" y1="145.63636363636363" x2="290" y2="145.63636363636363" fill="rgb(0, 0, 0)" stroke="rgb(60, 60, 60)" stroke-width="1px" opacity="0.25"></line><line x1="0" y1="129.45454545454547" x2="290" y2="129.45454545454547" fill="rgb(0, 0, 0)" stroke="rgb(60, 60, 60)" stroke-width="1px" opacity="0.25"></line><line x1="0" y1="113.27272727272727" x2="290" y2="113.27272727272727" fill="rgb(0, 0, 0)" stroke="rgb(60, 60, 60)" stroke-width="1px" opacity="0.25"></line><line x1="0" y1="97.0909090909091" x2="290" y2="97.0909090909091" fill="rgb(0, 0, 0)" stroke="rgb(60, 60, 60)" stroke-width="1px" opacity="0.25"></line><line x1="0" y1="80.90909090909092" x2="290" y2="80.90909090909092" fill="rgb(0, 0, 0)" stroke="rgb(60, 60, 60)" stroke-width="1px" opacity="0.25"></line><line x1="0" y1="64.72727272727273" x2="290" y2="64.72727272727273" fill="rgb(0, 0, 0)" stroke="rgb(60, 60, 60)" stroke-width="1px" opacity="0.25"></line><line x1="0" y1="48.54545454545453" x2="290" y2="48.54545454545453" fill="rgb(0, 0, 0)" stroke="rgb(60, 60, 60)" stroke-width="1px" opacity="0.25"></line><line x1="0" y1="32.363636363636346" x2="290" y2="32.363636363636346" fill="rgb(0, 0, 0)" stroke="rgb(60, 60, 60)" stroke-width="1px" opacity="0.25"></line><line x1="0" y1="16.181818181818187" x2="290" y2="16.181818181818187" fill="rgb(0, 0, 0)" stroke="rgb(60, 60, 60)" stroke-width="1px" opacity="0.25"></line><line x1="0" y1="0" x2="290" y2="0" fill="rgb(0, 0, 0)" stroke="rgb(60, 60, 60)" stroke-width="1px" opacity="0.25"></line></g></g></g><g><g><line x1="0" y1="906.1818181818181" x2="290" y2="906.1818181818181" fill="rgb(0, 0, 0)" stroke="rgb(153, 153, 153)" stroke-width="1.5px"></line></g></g><g><g><line x1="32.22222222222222" y1="0" x2="32.22222222222222" y2="178" fill="rgb(0, 0, 0)" stroke="rgb(153, 153, 153)" stroke-width="1.5px"></line></g></g><g><g><g><g><g><path stroke="rgb(0, 119, 187)" stroke-width="2px" d="M37.7,179.08369076095804L38.022222222222226,171.24050612616227L38.34444444444444,139.72905980988966L38.666666666666664,152.79793326619955L38.98888888888889,136.79509644030247L39.31111111111112,128.30539976287778L39.63333333333333,128.7199570403867L39.955555555555556,127.62666906121802L40.27777777777778,121.94001272512611L40.6,120.68614633216488L40.92222222222222,125.24537994528237L41.24444444444445,118.18326625362897L41.56666666666667,120.79182749558294L41.888888888888886,121.63015564904401L42.21111111111111,105.02791997019446L42.53333333333333,100.62048252785065L42.855555555555554,112.296359472106L43.17777777777778,99.09287464274948L43.5,102.29556783448736L43.82222222222222,118.08729705927672L44.144444444444446,103.2516576619637L44.46666666666666,108.44985471309167L44.788888888888884,107.38066657712005L45.111111111111114,103.68894924533215L45.43333333333334,97.16721032416235L45.75555555555555,114.3754402008351L46.077777777777776,142.53509048406906L46.4,121.37129151920031L46.72222222222223,122.22461913796259L47.044444444444444,111.61565336896153L47.36666666666667,118.79510109354794L47.68888888888889,134.92602940317914L48.01111111111111,112.74037636496551L48.33333333333333,137.3531041087051L48.65555555555555,127.28396103848934L48.97777777777778,108.14396372607321L49.300000000000004,110.6890669612695L49.62222222222222,116.44893322615613L49.94444444444444,110.55715212724493L50.266666666666666,105.20323751132908L50.588888888888896,110.48066204594002L50.91111111111111,109.41446099631183L51.233333333333334,99.51405264791863L51.55555555555556,95.47144774682711L51.87777777777777,90.40904191772334L52.199999999999996,97.08515624734044L52.522222222222226,102.87281617743409L52.84444444444445,98.12862258665484L53.166666666666664,82.38082400514632L53.48888888888889,99.5194816817555L53.81111111111111,101.9024120756741L54.13333333333333,118.72059505586435L54.45555555555555,129.89424136203945L54.77777777777778,124.17162526974298L55.1,143.17420931442035L55.422222222222224,140.3741112406545L55.74444444444444,145.55327922501797L56.06666666666666,137.92904587783715L56.38888888888889,147.2541432490762L56.711111111111116,132.2294234829426L57.03333333333333,123.30722546488673L57.355555555555554,128.82747128921687L57.67777777777778,109.28019199794055L58,95.56369641067492L58.32222222222222,84.97847490578819L58.644444444444446,88.7349620777078L58.96666666666667,67.22834789256405L59.28888888888889,96.56847757714377L59.61111111111111,102.49496534154166L59.93333333333333,112.88796098584234L60.25555555555556,114.6934696903061L60.57777777777778,99.3175132188896L60.9,112.85666351616838L61.22222222222222,110.26338358104152L61.544444444444444,111.21017083054238L61.86666666666667,106.05516343149355L62.18888888888889,98.91682131919491L62.51111111111111,101.26697979907281L62.833333333333336,93.57365433165482L63.15555555555555,90.95990759910485L63.477777777777774,90.5891072967678L63.8,87.68275297388878L64.12222222222222,78.75067410521562L64.44444444444444,76.49642095049083L64.76666666666667,74.61658098995528L65.08888888888889,77.31558492992255L65.41111111111111,73.39649247991073L65.73333333333333,70.03157091224575L66.05555555555556,66.18331997371327L66.37777777777778,57.900505116452095L66.7,48.71271849168676L67.02222222222223,49.04699968343613L67.34444444444445,54.64604942257564L67.66666666666667,59.93785750625639L67.9888888888889,70.91948155752627L68.3111111111111,62.241566873452484L68.63333333333333,57.18996576112853L68.95555555555556,60.80716912197592L69.27777777777779,51.14426675528229L69.6,46.06470038038759L69.92222222222222,41.662395998350775L70.24444444444444,55.00707083296332L70.56666666666668,50.39845178363008L70.88888888888889,51.39248548707903L71.21111111111111,49.48578717010213L71.53333333333333,76.05955742939392L71.85555555555555,75.54478281474375L72.17777777777778,75.72297380539939L72.5,79.72575644557374L72.82222222222222,66.35715040451039L73.14444444444445,66.3895943379081L73.46666666666667,58.883389430306835L73.78888888888888,66.15446031496988L74.1111111111111,60.38854962331189L74.43333333333332,50.02940431741203L74.75555555555556,75.57772407049916L75.07777777777778,82.56448511502971L75.4,77.29616274410859L75.72222222222223,87.22745663364718L76.04444444444445,73.8551209810101L76.36666666666666,68.535638128789L76.68888888888888,69.11820663671371L77.0111111111111,76.82773908086868L77.33333333333333,81.53392512193524L77.65555555555555,77.89213838978772L77.97777777777777,87.80746344451715L78.30000000000001,89.69468729582577L78.62222222222223,90.54065221486901L78.94444444444444,76.50060861762618L79.26666666666667,77.07990529065775L79.58888888888889,70.48421326129424L79.91111111111111,71.53489473437992L80.23333333333333,57.05669708863546L80.55555555555556,65.42749666416665L80.87777777777778,81.38080106752362L81.2,77.23866755251132L81.52222222222221,73.8835329593404L81.84444444444443,66.84185740994998L82.16666666666667,54.93563087452743L82.4888888888889,76.848543921472L82.81111111111112,77.08138636188745L83.13333333333334,68.7529655737748L83.45555555555556,76.77160204747439L83.77777777777777,75.99196131028314L84.1,71.69210550835297L84.42222222222222,66.4627694472157L84.74444444444444,78.61766630632324L85.06666666666666,72.02626019535869L85.38888888888889,62.18494427574623L85.71111111111111,77.0974968679753L86.03333333333335,80.62699511842551L86.35555555555555,78.57608919313431L86.67777777777778,74.0195994147621L87,77.96069274715013L87.32222222222222,78.31828741411498L87.64444444444445,69.03728687167724L87.96666666666667,59.95347456325395L88.28888888888889,76.7644574128787L88.61111111111111,97.46439244276577L88.93333333333332,84.95516864007311L89.25555555555555,72.84517279672075L89.57777777777777,68.71741063786165L89.9,75.99061728510955L90.22222222222223,73.65210576685733L90.54444444444445,67.90142055071907L90.86666666666667,64.28732632863395L91.1888888888889,45.06619366937983L91.5111111111111,43.21402221099987L91.83333333333333,40.24221997595458L92.15555555555555,28.475220822926104L92.47777777777777,36.02326260996014L92.8,42.21509431631907L93.12222222222222,52.01448616703928L93.44444444444446,51.30225947080818L93.76666666666667,51.85120109998546L94.08888888888889,45.44749097487835L94.41111111111111,52.12386645229171L94.73333333333333,52.100289950370595L95.05555555555556,62.20239309959963L95.37777777777778,71.92774169241906L95.7,77.79766956796618L96.02222222222223,68.75837314889209L96.34444444444443,69.42465041078631L96.66666666666666,79.1960666282394L96.98888888888888,71.62791559577691L97.3111111111111,74.89833908541708L97.63333333333334,82.98796098041977L97.95555555555556,97.37327768883037L98.27777777777779,102.73016631874368L98.60000000000001,99.99768312728915L98.92222222222222,98.33163304153308L99.24444444444444,85.9076371821566L99.56666666666666,90.13604953034307L99.88888888888889,95.77979454064926L100.21111111111111,104.45539318811537L100.53333333333333,98.4667775995493L100.85555555555555,111.95778761975332L101.17777777777779,93.68370621442276L101.5,94.34447048715442L101.82222222222222,81.87725793261457L102.14444444444445,78.82720343760886L102.46666666666667,72.61544000034978L102.78888888888889,70.64641496994503L103.11111111111111,73.14544975170469L103.43333333333334,80.80853853331739L103.75555555555555,73.323591561935L104.07777777777777,76.6134727170466L104.39999999999999,82.99376307842297L104.72222222222221,75.86688119269722L105.04444444444445,73.96801226688515L105.36666666666667,91.95503351208538L105.6888888888889,84.99483165041111L106.01111111111112,88.84921725356824L106.33333333333333,84.23362713532512L106.65555555555555,75.59145105774583L106.97777777777777,82.59197858470425L107.3,75.8082092152145L107.62222222222222,80.7014084068539L107.94444444444444,80.66034564572388L108.26666666666667,83.20254292850092L108.5888888888889,68.17108514999337L108.9111111111111,79.47305923247134L109.23333333333333,74.22804553201094L109.55555555555556,73.65392218765668L109.87777777777778,76.95646895846622L110.2,76.78127182342469L110.52222222222223,92.33004808886795L110.84444444444445,88.72698404486373L111.16666666666667,99.90909962382274L111.48888888888888,98.81440552731442L111.8111111111111,95.58703533327882L112.13333333333333,88.29001197943282L112.45555555555555,99.21614007454473L112.77777777777779,102.90413924351166L113.10000000000001,97.21136352205403L113.42222222222223,103.54133683137334L113.74444444444445,101.00899615104355L114.06666666666666,109.30867288042113L114.38888888888889,101.41127404554159L114.71111111111111,92.83478969040875L115.03333333333333,89.42690727980565L115.35555555555555,76.7965946309629L115.67777777777778,80.86861855690542L116,75.7487967878025L116.32222222222221,69.06619014191021L116.64444444444445,79.70902824155415L116.96666666666667,68.47574589147546L117.28888888888889,62.527470861466014L117.61111111111111,66.61760298916086L117.93333333333334,60.81146332725936L118.25555555555556,61.79154737024676L118.57777777777778,66.11726323519L118.89999999999999,64.01908345193051L119.22222222222221,66.84361278719467L119.54444444444444,65.71662066019906L119.86666666666666,63.02584512928135L120.1888888888889,63.28719783953119L120.51111111111112,67.23486337137193L120.83333333333334,76.8727102223589L121.15555555555557,79.17083983577336L121.47777777777777,77.25068221607971L121.8,89.96726476627218L122.12222222222222,79.24062118047893L122.44444444444444,76.94963081502479L122.76666666666667,79.84666577771063L123.08888888888889,83.72463009157006L123.41111111111111,90.60772946232741L123.73333333333333,91.97551069770655L124.05555555555554,87.52789203405561L124.37777777777778,87.29925223399077L124.7,80.76256794480034L125.02222222222223,80.65451384583369L125.34444444444445,83.029528927959L125.66666666666667,83.05602903827652L125.9888888888889,89.47160846200111L126.3111111111111,91.90374519621687L126.63333333333333,104.97465153263245L126.95555555555555,103.79656426892703L127.27777777777777,99.92732185813155L127.6,93.91236985536085L127.92222222222223,82.58692722080357L128.24444444444444,72.88486461838153L128.56666666666666,72.01378858428626L128.88888888888889,74.57455115403447L129.2111111111111,75.11833496617281L129.53333333333333,72.29943323097892L129.85555555555555,68.8324009902384L130.17777777777778,72.71307992631532L130.5,72.16793771617748L130.82222222222222,71.10781753622479L131.14444444444445,76.16185588404763L131.46666666666667,69.45364166704607L131.7888888888889,66.62728358282847L132.11111111111111,57.42456981278367L132.43333333333334,57.56855360760558L132.75555555555556,49.70904860436289L133.07777777777778,61.13134388294323L133.4,73.98906299407871L133.72222222222223,66.20412509199649L134.04444444444445,67.47680462903945L134.36666666666667,66.75281561033067L134.6888888888889,67.1590212682182L135.01111111111112,69.69645919199819L135.33333333333334,68.93097848773104L135.65555555555557,65.80439824662311L135.9777777777778,65.98740030563017L136.29999999999998,65.06505529230608L136.6222222222222,77.7813633945839L136.94444444444443,68.5174456778994L137.26666666666665,62.666658374261445L137.5888888888889,55.56922148190293L137.91111111111113,45.94615720534469L138.23333333333335,41.42089060301052L138.55555555555557,41.05113616279823L138.87777777777777,48.08724734078592L139.2,60.784508282826295L139.5222222222222,64.62364170057256L139.84444444444443,73.01654785878932L140.16666666666666,73.73825583391687L140.48888888888888,82.4679282319163L140.8111111111111,81.18952752060912L141.13333333333335,71.66203672564552L141.45555555555555,78.28490823278999L141.77777777777777,85.53954996598664L142.1,79.19409292501443L142.42222222222222,78.98041952505308L142.74444444444444,81.0579641204938L143.06666666666666,66.64223873952136L143.38888888888889,64.82356149269805L143.7111111111111,75.00721619026177L144.03333333333333,80.65726330763648L144.35555555555555,78.57238823146137L144.67777777777778,93.41224739362553L145,94.27285091796625L145.3222222222222,97.8643497761484L145.64444444444445,93.34677135706211L145.96666666666667,74.38262979956566L146.2888888888889,70.78116495935232L146.61111111111111,56.2924286897873L146.93333333333334,64.35402998188694L147.25555555555556,82.42524789166201L147.57777777777775,76.913034831473L147.9,76.96478617746328L148.2222222222222,87.68465476017059L148.54444444444445,91.38386682763043L148.86666666666665,100.16554075683128L149.1888888888889,100.81169491513397L149.51111111111112,91.82965436962138L149.83333333333334,104.09128887493979L150.15555555555557,107.89091867700937L150.47777777777776,103.18647892136337L150.8,95.2532521302412L151.1222222222222,87.15429131335999L151.44444444444446,88.47400488539634L151.76666666666665,93.95374486066602L152.0888888888889,79.92046325386733L152.4111111111111,79.59394862540549L152.73333333333332,66.76289957080941L153.05555555555557,60.715044228542695L153.37777777777777,53.5296393270487L153.70000000000002,54.40952960099541L154.0222222222222,57.17195091431611L154.34444444444446,65.18901696496859L154.66666666666666,72.16712959842597L154.9888888888889,68.63611164531297L155.3111111111111,67.8641353665897L155.63333333333333,64.74953249498338L155.95555555555555,71.28376621905319L156.27777777777777,72.590828355166L156.60000000000002,70.66993644020415L156.92222222222222,63.27966937546863L157.24444444444447,73.17731320652503L157.56666666666666,67.7636232912607L157.88888888888889,59.17133570154023L158.2111111111111,66.55268066604471L158.53333333333333,77.11411254932999L158.85555555555555,79.98675396927491L159.17777777777778,68.16238395249587L159.5,69.59154937666486L159.82222222222222,74.11647585245797L160.14444444444442,74.24029380418261L160.46666666666667,74.03420146862233L160.7888888888889,73.44146839068588L161.11111111111111,76.85150152000922L161.43333333333334,76.79022377396858L161.75555555555556,61.5470218701345L162.07777777777778,50.81038163738225L162.4,62.25018980361841L162.72222222222223,58.94004824012556L163.04444444444442,50.0527302154578L163.36666666666667,45.9390346322061L163.68888888888887,43.5725709366958L164.01111111111112,40.61365159516049L164.33333333333334,36.15384420876191L164.65555555555557,37.267581446604396L164.9777777777778,41.12909254489935L165.29999999999998,43.29461217213901L165.62222222222223,55.53847684044827L165.94444444444443,63.82811281366949L166.26666666666668,67.6257228839779L166.58888888888887,86.80115456557134L166.91111111111113,82.4889623850862L167.23333333333332,85.63660114378328L167.55555555555554,78.55304217608544L167.8777777777778,81.99793899902963L168.2,84.57941634766738L168.52222222222224,86.8475941288102L168.84444444444443,90.70193941601136L169.16666666666669,103.7646068224624L169.48888888888888,102.38857111691665L169.81111111111113,89.95339303426537L170.13333333333333,84.83490609849008L170.45555555555555,86.71523996586095L170.77777777777777,86.13773140597684L171.1,78.55076846350907L171.42222222222222,72.05257453861934L171.74444444444444,85.60547929121665L172.0666666666667,86.81839505065372L172.38888888888889,75.66046639476568L172.7111111111111,69.20190450559188L173.03333333333333,71.71132990660585L173.35555555555555,73.34157816786663L173.67777777777778,80.44782925391475L174,76.9595127660499L174.32222222222222,76.43178693837947L174.64444444444445,93.08923063365361L174.96666666666667,90.35047793742415L175.2888888888889,83.29450691142831L175.6111111111111,80.97067430432669L175.93333333333334,79.13987893876599L176.25555555555556,79.58139566082481L176.57777777777778,88.68897814730538L176.9,93.75842912226867L177.22222222222223,79.126109473125L177.54444444444445,96.56568425155265L177.86666666666665,87.66156642434719L178.1888888888889,86.91059993491591L178.5111111111111,88.73581926081144L178.83333333333334,92.18590376537071L179.15555555555554,97.46871222236015L179.4777777777778,99.10306130575243L179.8,92.59167272365131L180.1222222222222,87.53818241454641L180.44444444444446,86.38816191417033L180.76666666666665,87.99730644952992L181.0888888888889,108.28567969149348L181.4111111111111,99.98660673278495L181.73333333333335,111.43400949464227L182.05555555555554,111.18420778866373L182.3777777777778,105.86149160408205L182.7,100.25586822077081L183.0222222222222,88.23192887505193L183.34444444444446,86.39861319015633L183.66666666666666,90.90252680138825L183.9888888888889,86.38119712319222L184.3111111111111,81.02009403252029L184.63333333333335,83.73065885504049L184.95555555555555,74.78878579121275L185.27777777777777,72.10132037657844L185.6,79.93945525692264L185.92222222222222,68.01972831415529L186.24444444444444,60.93778466871714L186.56666666666666,60.60203923391555L186.8888888888889,63.367775193748884L187.2111111111111,63.834006278044626L187.53333333333333,60.0236676754361L187.85555555555555,64.39369972893022L188.17777777777778,64.70549320519844L188.5,74.98223197045053L188.82222222222222,57.70046229339222L189.14444444444445,58.35808026078982L189.46666666666667,42.607403116477116L189.7888888888889,52.905954902456855L190.11111111111111,54.20509627685429L190.4333333333333,53.267343849023504L190.75555555555556,73.45463525084642L191.07777777777778,71.02769889702141L191.4,80.7806549983831L191.72222222222223,86.7252144749115L192.04444444444445,77.26031266487523L192.36666666666667,66.49186757070022L192.68888888888887,67.33782273383555L193.01111111111112,63.351497498938144L193.33333333333331,67.28737580611383L193.65555555555557,63.25785943502106L193.97777777777776,68.45303421082743L194.3,64.79203775238022L194.6222222222222,74.84554793217359L194.94444444444446,66.85297728232015L195.26666666666668,58.969597566619285L195.58888888888887,56.65815136027683L195.91111111111113,55.882373472376955L196.23333333333332,64.93843247702786L196.55555555555557,58.955005256619145L196.87777777777777,54.91755488249947L197.20000000000002,49.91080209563523L197.5222222222222,50.3567600457874L197.84444444444443,61.88510391316092L198.16666666666666,44.6499470219502L198.48888888888888,57.24808049183768L198.81111111111113,58.80868278636292L199.13333333333333,51.45646126819598L199.45555555555558,58.022058822331346L199.77777777777777,52.464469935586806L200.1,50.25389172465525L200.42222222222222,62.96684490200043L200.74444444444444,79.82133674223279L201.06666666666666,70.93132918559647L201.38888888888889,65.32540734211287L201.7111111111111,68.56715353695895L202.03333333333333,60.00123819075155L202.35555555555558,78.10969617652825L202.67777777777778,74.5386838276338L203,75.05637947142229L203.32222222222222,69.09615529520086L203.64444444444445,68.47839221679943L203.96666666666667,55.29269520189946L204.2888888888889,68.59580371514514L204.61111111111111,75.40699199491182L204.93333333333334,72.6315289854729L205.25555555555553,68.10301628092733L205.57777777777778,60.5136659224068L205.89999999999998,68.34163579787744L206.22222222222223,69.28849969683209L206.54444444444445,71.8605561061539L206.86666666666667,79.512388218184L207.1888888888889,73.87471903591832L207.5111111111111,92.9358762285101L207.83333333333334,97.46996954782206L208.15555555555554,98.49108345815557L208.4777777777778,96.58536656586429L208.79999999999998,102.52020524872792L209.12222222222223,92.36691377773722L209.44444444444443,91.29209566751366L209.76666666666668,88.6268442842615L210.0888888888889,84.35912111453071L210.4111111111111,88.59332515932708L210.73333333333335,97.56025776269624L211.05555555555554,101.09071597998047L211.3777777777778,112.25036941416427L211.7,110.67913461010885L212.02222222222224,111.50077091031098L212.34444444444443,117.2542317308081L212.66666666666666,107.83059567241206L212.98888888888888,97.98957882141066L213.3111111111111,79.82405437844078L213.63333333333335,81.43374517103608L213.95555555555555,83.74693860503308L214.2777777777778,95.82565783736005L214.6,89.70384958036581L214.92222222222225,86.18273845716843L215.24444444444444,84.13609456236352L215.56666666666666,87.70608457124484L215.88888888888889,76.38811111079767L216.2111111111111,74.37116138198773L216.53333333333333,80.31426222567748L216.85555555555555,72.05503975812479L217.1777777777778,72.46355204293022L217.5,62.72649904863725L217.8222222222222,59.797163927038966L218.14444444444445,65.6761864019709L218.46666666666667,61.237989194205895L218.7888888888889,56.20924067594916L219.11111111111111,54.33589270843487L219.43333333333334,56.96970131716327L219.75555555555556,65.48218644470369L220.07777777777775,67.2970936876616L220.4,68.94030479399473L220.7222222222222,77.15157638964088L221.04444444444445,69.01296537154498L221.36666666666665,70.12944869831108L221.6888888888889,69.31446596433119L222.01111111111112,66.60788001613234L222.33333333333334,60.48905222287736L222.65555555555557,58.733768560524595L222.97777777777776,58.64480312661006L223.3,56.90386703248042L223.6222222222222,57.554905622789846L223.94444444444446,63.22684653944911L224.26666666666665,66.13842963223887L224.5888888888889,62.24027646169934L224.9111111111111,64.03739550666913L225.23333333333332,57.63067678007877L225.55555555555557,57.99548159157054L225.87777777777777,52.3141774681405L226.20000000000002,58.28408297505207L226.5222222222222,67.02461881998643L226.84444444444446,68.93501697400625L227.16666666666666,72.7332918459147L227.4888888888889,70.72482759674365L227.8111111111111,66.97885494009296L228.13333333333333,55.03373455875216L228.45555555555555,52.75328075458478L228.77777777777777,54.12637533431014L229.10000000000002,46.76553817199621L229.42222222222222,41.45858620528915L229.74444444444447,50.755150068735006L230.06666666666666,58.93438852507606L230.38888888888889,65.8650466992473L230.7111111111111,66.2842762275089L231.03333333333333,63.81442962857491L231.35555555555555,65.11440301910663L231.67777777777778,64.05430409092439L232,52.648193970389656L232.32222222222222,53.3877884138287L232.64444444444442,64.00077693610494L232.96666666666667,59.48218638350498L233.2888888888889,41.72335528331686L233.61111111111111,44.30436552547093L233.93333333333334,55.58899828640952L234.25555555555556,62.62052233948096L234.57777777777778,58.37595296485566L234.9,48.098156777471644L235.22222222222223,46.29153532458389L235.54444444444442,53.49191498230843L235.86666666666667,61.15737064506112L236.18888888888887,68.23214166337866L236.51111111111112,71.79002305993272L236.83333333333334,78.33954898161969L237.15555555555557,79.1787101082626L237.4777777777778,80.90387657930837L237.79999999999998,89.25477887759034L238.12222222222223,81.93553703541082L238.44444444444443,74.00331416557245L238.76666666666668,69.8819291054524L239.08888888888887,62.89234351621769L239.41111111111113,56.61119900804695L239.73333333333332,51.74373975826086L240.05555555555554,65.75559745424327L240.3777777777778,67.12249811107719L240.7,72.26526936826944L241.02222222222224,79.56227130658989L241.34444444444443,64.53587948031468L241.66666666666669,64.1516345640255L241.98888888888888,64.06365776302036L242.31111111111113,67.84205595401927L242.63333333333333,70.07359019482143L242.95555555555555,75.9401434883641L243.27777777777777,77.67312219693707L243.6,81.3842660662246L243.92222222222222,83.99868966383085L244.24444444444444,68.56382804039202L244.5666666666667,74.5391184969213L244.88888888888889,74.57583250587365L245.2111111111111,67.92080002453073L245.53333333333333,74.51668617657293L245.85555555555555,100.00360846115905L246.17777777777778,95.23282829203174L246.5,96.10110064011238L246.82222222222222,103.06001781046135L247.14444444444445,106.30472286121316L247.46666666666667,104.68819528134009L247.7888888888889,84.61859804048235L248.1111111111111,74.16051500306511L248.43333333333334,81.47049079305695L248.75555555555556,83.47895328150402L249.07777777777778,75.70528977396363L249.4,62.60750968533404L249.72222222222223,56.91847457378185L250.04444444444445,59.84522673238621L250.36666666666665,54.31946005490197L250.6888888888889,62.630929178157345L251.0111111111111,72.94118270650684L251.33333333333334,90.19229157222523L251.65555555555554,94.19696910531198L251.9777777777778,108.0533006407086L252.3,111.42155123961932L252.6222222222222,123.62377474631208L252.94444444444446,120.0488616350495L253.26666666666665,106.79986887742416L253.5888888888889,97.37865017468752L253.9111111111111,97.67639558356835L254.23333333333335,112.02499230091703L254.55555555555554,112.40910255965227L254.8777777777778,102.02579930446926L255.2,92.26423988810866L255.5222222222222,77.20866280394195L255.84444444444446,79.82125884043947L256.1666666666667,74.98309779819775L256.4888888888889,80.63959723332684L256.81111111111113,79.50511940183341L257.1333333333333,86.63533218692886L257.4555555555556,98.17962250034171L257.77777777777777,86.2578038335676L258.1,94.94421403203611L258.4222222222222,103.8839839672724L258.74444444444447,110.4848679812006L259.06666666666666,103.20162760387706L259.3888888888889,99.77322949008628L259.7111111111111,94.97705878128838L260.0333333333333,97.47285377986981L260.35555555555555,89.22346735769163L260.67777777777775,93.80647319475817" style="fill: none;" fill="none"></path></g></g></g></g><g opacity="0.2"><g><g><g><path stroke="rgb(0, 119, 187)" stroke-width="2px" d="M36.08888888888889,190.10777088512074L36.41111111111111,131.96226307262074L36.733333333333334,85.63454922762783L37.05555555555555,222.42607366388495L37.37777777777778,104.04675015536222L37.7,89.3762490012429L38.022222222222226,128.8609619140625L38.34444444444444,-35.61698774857953L38.666666666666664,227.35019975142046L38.98888888888889,43.55826637961647L39.31111111111112,77.94428433504973L39.63333333333333,131.21722190163354L39.955555555555556,120.95346124822444L40.27777777777778,86.8351484818892L40.6,112.87015713778409L40.92222222222222,153.90436012961646L41.24444444444445,73.46974098899149L41.56666666666667,137.41108342950994L41.888888888888886,127.00001331676137L42.21111111111111,-1.8128495649857825L42.53333333333333,72.14272128018465L42.855555555555554,188.00119129527698L43.17777777777778,13.224270907315343L43.5,123.17880692915483L43.82222222222222,221.2915488503196L44.144444444444446,6.104823996803987L44.46666666666666,142.54686501242898L44.788888888888884,100.35705067027699L45.111111111111114,79.40646528764205L45.43333333333334,54.22222678444602L45.75555555555555,227.79963434392755L46.4,-18.344398082386363L46.72222222222223,127.86154896129261L47.044444444444444,41.49613148082386L47.36666666666667,166.27005837180397L47.68888888888889,241.63803211558948L48.33333333333333,300.28512295809657L48.65555555555555,60.60981778231533L48.97777777777778,-18.62400457208804L49.300000000000004,127.5492509321733L49.62222222222222,154.61231467507102L49.94444444444444,71.5136807528409L50.266666666666666,69.71930042613637L50.588888888888896,145.46174538352273L50.91111111111111,102.34649380770597L51.233333333333334,33.877323774857956L51.55555555555556,68.66813409978694L51.87777777777777,56.84199440696024L52.199999999999996,141.35471024946733L52.522222222222226,141.2529319069602L52.84444444444445,66.6667402787642L53.166666666666664,-22.05720880681821L53.48888888888889,213.1853310324929L53.81111111111111,117.70677656693893L54.13333333333333,230.2670060591264L54.45555555555555,204.0049344149503L54.77777777777778,86.21489812677557L55.1,269.21581476384944L55.422222222222224,121.80116965553978L55.74444444444444,179.90692416104403L56.06666666666666,87.3566328568892L56.38888888888889,209.10916026722302L56.711111111111116,32.566995516690355L57.03333333333333,64.12381258877842L57.355555555555554,165.44501675692473L57.67777777777778,-20.383816805752843L58,4.576914284446019L58.32222222222222,14.762353515624994L58.644444444444446,113.65337136008523L58.96666666666667,-75.43478892933237L59.28888888888889,291.1953935102983L59.61111111111111,141.80824363014915L59.93333333333333,181.82989779385653L60.25555555555556,126.67033247514203L60.57777777777778,-2.6792247425426297L60.9,202.66902576793325L61.22222222222222,93.06076327237216L61.544444444444444,117.49072598544035L61.86666666666667,71.85916415127842L62.18888888888889,51.56423672762783L62.51111111111111,116.85689530806108L62.833333333333336,42.53949529474431L63.15555555555555,73.62144553444601L63.477777777777774,88.1293778852983L63.8,68.40324374112217L64.12222222222222,19.49907115589488L64.44444444444444,61.54266246448863L64.76666666666667,62.14651766690342L65.08888888888889,95.21963944868608L65.41111111111111,47.39888028231533L65.73333333333333,47.71009188565341L66.05555555555556,40.65563299005683L66.37777777777778,2.955769486860788L66.7,-12.235228382457393L67.02222222222223,51.26448197798295L67.34444444444445,91.78781793767756L67.66666666666667,95.04151500355114L67.9888888888889,143.76701993075284L68.3111111111111,4.675877796519899L68.63333333333333,23.679736328125017L68.95555555555556,84.80219893022017L69.27777777777779,-12.955429909446025L69.6,12.36895751953125L69.92222222222222,12.45932839133522L70.24444444444444,143.5301297274503L70.56666666666668,19.826776677911937L70.88888888888889,57.98649458451705L71.21111111111111,36.83753773082387L71.53333333333333,252.3389803799716L71.85555555555555,72.12998046875L72.17777777777778,76.90501930930398L72.5,106.27856500799005L72.82222222222222,-22.324667080965895L73.14444444444445,66.60481400923295L73.46666666666667,9.090322043678981L73.78888888888888,114.38774580522018L74.1111111111111,22.139875932173283L74.43333333333332,-18.68889382102273L74.75555555555556,245.05474243164065L75.07777777777778,128.91177701083097L75.4,42.348284357244296L75.72222222222223,153.1075655850497L76.04444444444445,-14.8514404296875L76.36666666666666,33.248382013494336L76.68888888888888,72.98272594105113L77.0111111111111,127.96959894353694L77.33333333333333,112.75282315340908L77.65555555555555,53.73402654474431L77.97777777777777,153.58164228959518L78.30000000000001,102.21375233043324L78.62222222222223,96.15243474786932L78.94444444444444,-16.635252796519893L79.26666666666667,80.9227206143466L79.58888888888889,26.7311112837358L79.91111111111111,78.5046825062145L80.23333333333333,-38.98569779829546L80.55555555555556,120.95593039772727L80.87777777777778,187.20844615589488L81.2,49.76146129261363L81.52222222222221,51.626953125L81.84444444444443,20.13028453480115L82.16666666666667,-24.04536798650571L82.4888888888889,222.20977616743608L82.81111111111112,78.62596712979402L83.13333333333334,13.505655184659105L83.45555555555556,129.96393099698153L83.77777777777777,70.82014604048295L84.1,43.16863458806819L84.42222222222222,31.773509632457404L84.74444444444444,159.24824163263494L85.06666666666666,28.301589133522725L85.38888888888889,-3.0982887961647805L85.71111111111111,176.02122358842328L86.03333333333335,104.04023160067472L86.35555555555555,64.97122469815342L86.67777777777778,43.79372447620739L87,104.1042813387784L87.32222222222222,80.69042302911932L87.64444444444445,7.470955033735805L87.96666666666667,-0.30479181463070404L88.61111111111111,234.779228626598L88.93333333333332,1.9741344105113683L89.25555555555555,-7.487547718394893L89.57777777777777,41.33553799715909L89.9,124.23807206587358L90.22222222222223,58.13938432173295L90.54444444444445,29.75374533913353L90.86666666666667,40.31291503906252L91.1888888888889,-82.43887717507101L91.5111111111111,30.92748024680398L91.83333333333333,20.528508966619313L92.15555555555555,-49.58220103870738L92.47777777777777,86.0938604181463L92.8,83.28915349786932L93.12222222222222,117.0196122602983L93.44444444444446,46.577641157670456L93.76666666666667,55.492653586647734L94.08888888888889,2.9679177024147805L94.41111111111111,96.41218927556818L94.73333333333333,51.94389315518467L95.05555555555556,129.21558116566052L95.37777777777778,136.4416953346946L95.7,116.73635142933239L96.02222222222223,8.79540682705965L96.34444444444443,73.84445911754261L96.66666666666666,144.01561390269887L96.98888888888888,21.42392134232955L97.3111111111111,96.59298040216619L97.63333333333334,136.65117797851562L97.95555555555556,192.7995389071378L98.27777777777779,138.26555730646305L98.60000000000001,81.87151600230824L98.92222222222222,87.27974354137073L99.24444444444444,3.4919699928977366L99.56666666666666,118.18559403852984L99.88888888888889,133.21807250976562L100.21111111111111,162.0057384144176L100.53333333333333,58.74077037464488L100.85555555555555,201.4515869140625L101.17777777777779,-27.53901700106536L101.5,98.72770829634233L101.82222222222222,-0.825090997869296L102.14444444444445,58.594399192116484L102.46666666666667,31.409161931818204L102.78888888888889,57.58471457741477L103.11111111111111,89.72301635742188L103.43333333333334,131.6423106800426L103.75555555555555,23.671538751775586L104.07777777777777,98.43718816583807L104.39999999999999,125.31797929243609L104.72222222222221,28.59008456143465L105.04444444444445,61.37169855291194L105.36666666666667,211.27351795543325L105.6888888888889,38.82372159090909L106.01111111111112,114.41762251420455L106.33333333333333,53.61570490056819L106.65555555555555,18.2628173828125L106.97777777777777,129.03059248490766L107.3,30.807479580965918L107.62222222222222,113.16087480024858L107.94444444444444,80.38795221502131L108.26666666666667,100.06643177379262L108.5888888888889,-31.541409579190343L108.9111111111111,154.44569646661932L109.23333333333333,39.43478670987216L109.55555555555556,69.84542458274149L109.87777777777778,98.86420288085937L110.2,75.61908624822443L110.52222222222223,195.47422041459518L110.84444444444445,64.82574240944602L111.16666666666667,174.08664495294744L111.48888888888888,91.552656139027L111.8111111111111,74.17799183238637L112.13333333333333,39.88456698330967L112.45555555555555,171.69556995738637L112.77777777777779,127.36880548650569L113.10000000000001,59.447836026278395L113.42222222222223,145.5317704634233L113.74444444444445,84.21049194335937L114.06666666666666,164.36530706232244L114.38888888888889,49.023185591264195L114.71111111111111,35.94192782315341L115.03333333333333,66.82042014382101L115.35555555555555,-6.9876930930397805L115.67777777777778,107.88074673739347L116,41.78600963245739L116.32222222222221,24.736532315340895L116.64444444444445,150.30922907049006L116.96666666666667,-6.041218705610788L117.28888888888889,23.0690662730824L117.61111111111111,93.74985351562499L117.93333333333334,22.295926180752843L118.25555555555556,68.29302090731535L118.57777777777778,94.81227916370739L118.89999999999999,50.10062366832386L119.22222222222221,85.58037608753551L119.54444444444444,58.24061945134943L119.86666666666666,45.17634943181818L120.1888888888889,65.02090398615057L120.51111111111112,93.42204922762785L120.83333333333334,140.80621337890625L121.15555555555557,94.41568437056108L121.47777777777777,64.51314808238637L121.8,174.32383145419035L122.12222222222222,8.084489302201717L122.44444444444444,61.75214510830965L122.76666666666667,99.06440152254972L123.08888888888889,109.44944679953835L123.41111111111111,136.26737337979404L123.73333333333333,101.0488075949929L124.05555555555554,58.024223188920445L124.37777777777778,85.78255004882813L124.7,37.40089888139204L125.02222222222223,79.9377274946733L125.34444444444445,98.78439996892756L125.66666666666667,83.23181984641336L125.9888888888889,132.0299177689986L126.3111111111111,108.03753773082386L126.63333333333333,191.68165616122158L126.95555555555555,95.98161898526278L127.27777777777777,74.26036265980113L127.6,54.01165771484375L127.92222222222223,7.458609286221588L128.24444444444444,8.525380637428981L128.56666666666666,66.23542924360795L128.88888888888889,91.56159446022727L129.2111111111111,78.72557262073863L129.53333333333333,53.600001109730115L129.85555555555555,45.83353826349432L130.17777777777778,98.4559043190696L130.5,68.55168900923294L130.82222222222222,64.07541725852273L131.14444444444445,109.68826293945312L131.46666666666667,24.954113769531233L131.7888888888889,47.87838911576705L132.11111111111111,-3.622439852627849L132.43333333333334,58.52368275035512L132.75555555555556,-2.4276677911931586L133.07777777777778,136.9021423339844L133.4,159.28187144886363L133.72222222222223,14.562056107954533L134.04444444444445,75.91923606178976L134.36666666666667,61.950170898437506L134.6888888888889,69.85362215909092L135.01111111111112,86.5287764115767L135.33333333333334,63.853095037286934L135.65555555555557,45.063953746448846L135.9777777777778,67.20136052911931L136.29999999999998,58.946598677201706L136.6222222222222,162.1361095081676L136.94444444444443,7.064434259588069L137.26666666666665,23.854947176846593L137.5888888888889,8.487750799005681L137.91111111111113,-17.889284446022742L138.23333333333335,11.402137340198863L138.55555555555557,38.59833762428977L138.87777777777777,94.76190851384943L139.2,145.0129033868963L139.5222222222222,90.09087025035511L139.84444444444443,128.69162764115765L140.16666666666666,78.52576904296875L140.48888888888888,140.3769764293324L140.8111111111111,72.70914417613636L141.13333333333335,8.460590154474431L141.45555555555555,122.21830777254971L141.77777777777777,133.6638527610085L142.1,37.10094659978694L142.42222222222222,77.56299826882102L142.74444444444444,94.83953857421875L143.06666666666666,-28.985741077769887L143.38888888888889,52.75920632102273L143.7111111111111,142.56138361150568L144.03333333333333,118.13734685724432L144.35555555555555,64.74218639026988L144.67777777777778,191.8537558815696L145,99.98173994584518L145.3222222222222,121.68887273615056L145.64444444444445,63.37901833274148L145.96666666666667,-51.417668013139206L146.2888888888889,46.89053178267045L146.61111111111111,-39.81987526633523L146.93333333333334,117.83136985085227L147.25555555555556,202.30225830078126L147.57777777777775,40.347285600142044L147.9,77.30808327414773L148.2222222222222,158.79584406072442L148.54444444444445,115.92291481711648L148.86666666666665,158.41954567649148L149.1888888888889,105.09801524769176L149.51111111111112,32.246499911221605L149.83333333333334,185.4299177689986L150.15555555555557,133.09609652432528L150.47777777777776,71.97916481711648L150.8,42.62749578302558L151.1222222222222,33.429123757102275L151.44444444444446,97.22844071821733L151.76666666666665,130.3040810324929L152.0888888888889,-13.170542214133519L152.4111111111111,77.42798517400568L152.73333333333332,-18.352990722656244L153.05555555555557,20.596064897017044L153.37777777777777,5.864625133167607L153.70000000000002,60.246358975497145L154.0222222222222,75.49671519886364L154.34444444444446,118.37092840021307L154.66666666666666,118.45705233487216L154.9888888888889,45.2127940784801L155.3111111111111,62.74316295276988L155.63333333333333,44.088540926846605L155.95555555555555,114.62917924360795L156.27777777777777,81.26133977716619L156.60000000000002,57.9275312943892L156.92222222222222,14.255684037642055L157.24444444444447,138.83420243696733L157.56666666666666,31.851435990767044L157.88888888888889,2.173641690340901L158.2111111111111,115.51748046875L158.53333333333333,147.17429809570314L158.85555555555555,99.04267300692472L159.17777777777778,-10.27561257102272L159.5,79.07204367897727L159.82222222222222,104.13297285600142L160.14444444444442,75.06165105646306L160.46666666666667,72.66706986860795L160.7888888888889,69.509521484375L161.11111111111111,99.47225563742897L161.43333333333334,76.3837324662642L161.75555555555556,-39.57009610262784L162.07777777777778,-20.41206387606536L162.4,138.13716153231533L162.72222222222223,36.98193359375L163.04444444444442,-8.90207408558237L163.36666666666667,18.65047385475853L163.68888888888887,27.874426269531256L164.01111111111112,20.985400390625017L164.33333333333334,6.569320401278418L164.65555555555557,44.65565518465908L164.9777777777778,66.74476540305399L165.29999999999998,57.65977672230113L165.62222222222223,136.75922796075994L165.94444444444443,118.81814075816762L166.26666666666668,92.81750266335227L166.58888888888887,214.00306396484376L166.91111111111113,53.88365700461648L167.23333333333332,106.51673916903408L167.55555555555554,31.563631924715907L167.8777777777778,104.84996448863636L168.2,101.70387295809658L168.52222222222224,101.89375055486505L168.84444444444443,116.2700772372159L169.16666666666669,190.4169577858665L169.48888888888888,93.26051746715198L169.81111111111113,7.463547585227275L170.13333333333333,50.880973677201695L170.45555555555555,99.1885997425426L170.77777777777777,82.30677767666904L171.1,28.221983753551143L171.42222222222222,28.94623468572442L171.74444444444444,175.50986272638494L172.0666666666667,94.86437821821733L172.38888888888889,1.643367143110794L172.7111111111111,26.358467240767055L173.03333333333333,88.35782359730113L173.35555555555555,84.15597312233665L173.67777777777778,127.5877696644176L174,53.81945911754262L174.32222222222222,72.9310713334517L174.64444444444445,203.5878456809304L174.96666666666667,72.18272150213069L175.2888888888889,36.48810369318181L175.6111111111111,65.55532670454545L175.93333333333334,66.99513716264205L176.25555555555556,82.51023559570312L176.57777777777778,149.10492609197445L176.9,127.38707719282671L177.22222222222223,-17.938667436079527L177.54444444444445,212.25263449928977L177.86666666666665,28.595319158380704L178.1888888888889,81.92899780273437L178.5111111111111,100.84357188831676L178.83333333333334,115.07234219637783L179.15555555555554,132.51268587979405L179.4777777777778,109.94465942382813L179.8,49.39780495383522L180.1222222222222,54.01541082208807L180.44444444444446,78.75939996892755L180.76666666666665,98.6717079856179L181.0888888888889,242.8703846324574L181.4111111111111,44.933977716619296L181.73333333333335,187.37136064009232L182.05555555555554,109.52712624289772L182.3777777777778,70.55278653231535L182.7,63.070473410866484L183.0222222222222,8.470071688565355L183.34444444444446,74.23715265447443L183.66666666666666,120.77963312322444L183.9888888888889,56.38855979225852L184.3111111111111,45.45674604936079L184.63333333333335,101.71142855557528L184.95555555555555,15.472085848721605L185.27777777777777,54.273782626065355L185.6,131.93441106622868L185.92222222222222,-11.05082674893464L186.24444444444444,13.959089799360783L186.56666666666666,58.374842418323865L186.8888888888889,81.71452747691761L187.2111111111111,66.92679110440342L187.53333333333333,34.74745205965908L187.85555555555555,93.38269098455255L188.17777777777778,66.77380260120738L188.5,143.15388072620738L188.82222222222222,-56.93967396129261L189.14444444444445,62.72044677734375L189.46666666666667,-61.87609641335226L189.7888888888889,121.22230224609375L190.11111111111111,62.82306463068181L190.4333333333333,47.046680797230096L190.75555555555556,207.36880493164062L191.07777777777778,54.92840354225852L191.4,145.47774547230114L191.72222222222223,126.15897161310369L192.04444444444445,14.474055619673294L192.36666666666667,-4.941558283025586L192.68888888888887,72.94954057173295L193.01111111111112,36.90785910866478L193.33333333333331,93.39637007279829L193.65555555555557,36.52770885120739L193.97777777777776,102.91568215110085L194.3,40.50649636008524L194.6222222222222,141.53639026988637L194.94444444444446,13.833558238636357L195.26666666666668,6.67450617009942L195.58888888888887,41.32497003728693L195.91111111111113,50.73618275035511L196.23333333333332,125.01259488192471L196.55555555555557,19.263415527343767L196.87777777777777,28.134773393110805L197.20000000000002,16.698067959872162L197.5222222222222,53.31506125710227L197.84444444444443,138.35938498757102L198.16666666666666,-69.68097922585227L198.48888888888888,140.81890480735086L198.81111111111113,69.16107510653408L199.13333333333333,2.684854403409105L199.45555555555558,101.57552656693892L199.77777777777777,15.597716175426143L200.1,35.58982710404828L200.42222222222222,147.299335826527L200.74444444444444,191.6270879572088L201.06666666666666,11.958683638139206L201.38888888888889,28.13803267045455L201.7111111111111,90.0715615012429L202.03333333333333,3.178486772017038L202.35555555555558,198.23374189897018L202.67777777777778,50.85005992542614L203,78.49055897105823L203.32222222222222,29.55848499644887L203.64444444444445,64.38040660511363L203.96666666666667,-32.17578346946024L204.2888888888889,156.8431418678977L204.61111111111111,120.58960737748579L204.93333333333334,54.220251464843756L205.25555555555553,38.062729714133525L205.57777777777778,10.169044078480113L205.89999999999998,120.2691611550071L206.22222222222223,75.5696044921875L206.54444444444445,88.92251808860085L206.86666666666667,130.2714882590554L207.1888888888889,36.47674560546875L207.5111111111111,219.37973577325994L207.83333333333334,127.54727561257103L208.15555555555554,105.26473222212358L208.4777777777778,83.94362626509232L208.79999999999998,141.88947864879262L209.12222222222223,25.01416348544035L209.44444444444443,84.16219537908381L209.76666666666668,70.94666526100852L210.0888888888889,56.04880482066761L210.4111111111111,116.68128939541904L210.73333333333335,157.0431923606179L211.05555555555554,124.51032049005681L211.3777777777778,186.2789101340554L211.7,100.25621060458096L212.02222222222224,116.95116743607954L212.34444444444443,155.4203191583807L212.66666666666666,45.318078613281244L212.98888888888888,32.70832963423297L213.3111111111111,-40.67854669744321L213.63333333333335,92.11177035245029L213.95555555555555,99.09171031605113L214.2777777777778,175.9509022105824L214.6,49.094297096946036L214.92222222222225,62.825138716264206L215.24444444444444,70.55950261896307L215.56666666666666,111.3879266912287L215.88888888888889,1.3093405983664752L216.2111111111111,60.99154829545455L216.53333333333333,119.73834339488636L216.85555555555555,17.26676247336647L217.1777777777778,75.1734541459517L217.5,-1.8650967684658895L217.8222222222222,40.365162242542596L218.14444444444445,104.67519808682529L218.46666666666667,31.796818403764206L218.7888888888889,22.85059592507102L219.11111111111111,41.90887451171875L219.43333333333334,74.44130193536931L219.75555555555556,121.9505038174716L220.07777777777775,79.33644020774149L220.4,79.84068991921164L220.7222222222222,131.62176735617896L221.04444444444445,15.024774724786937L221.36666666666665,77.53573885830967L221.6888888888889,63.908206454190335L222.01111111111112,48.65350452769886L222.33333333333334,19.899270907315355L222.65555555555557,47.0899402965199L222.97777777777776,58.05464311079545L223.3,45.35521462180398L223.6222222222222,61.87362726384943L223.94444444444446,100.85216452858664L224.26666666666665,85.45267167524858L224.5888888888889,36.381535200639206L224.9111111111111,75.95874245383523L225.23333333333332,15.131145685369319L225.55555555555557,60.4154463334517L225.87777777777777,14.62674782492897L226.20000000000002,97.88597523082386L226.5222222222222,125.00573064630682L226.84444444444446,81.60781083540482L227.16666666666666,97.92948164506392L227.4888888888889,57.40150368430399L227.8111111111111,42.12961647727272L228.13333333333333,-24.205270108309662L228.45555555555555,37.62569025213068L228.77777777777777,63.23491876775569L229.10000000000002,-2.063221324573874L229.42222222222222,6.254454456676143L229.74444444444447,112.42472256747159L230.06666666666666,113.19208484996449L230.38888888888889,111.84017611416904L230.7111111111111,69.06527210582387L231.03333333333333,47.430485395951706L231.35555555555555,73.737890625L231.67777777777778,57.02204478870739L232,-23.015238813920462L232.32222222222222,58.293953080610805L232.64444444444442,134.40296797318894L232.96666666666667,29.50771928267045L233.2888888888889,-76.08140980113637L233.61111111111111,61.425723544034085L233.93333333333334,130.44660034179688L234.25555555555556,109.26475441672585L234.57777777777778,30.219229403409088L234.9,-20.080506480823857L235.22222222222223,34.307153320312494L235.54444444444442,101.25626553622159L235.86666666666667,112.00684370561079L236.18888888888887,115.16325628107245L236.51111111111112,95.39154163707386L236.83333333333334,121.78640414151278L237.15555555555557,84.74535910866477L237.4777777777778,92.34791981090198L237.79999999999998,144.65122236772015L238.12222222222223,33.38270374644887L238.44444444444443,21.384217418323857L238.76666666666668,42.54235950816761L239.08888888888887,16.526313920454555L239.41111111111113,14.944675514914763L239.73333333333332,19.455021528764206L240.05555555555554,158.70448552911932L240.3777777777778,76.18995361328125L240.7,106.3802939675071L241.02222222222224,127.9675742409446L241.34444444444443,-35.143009810014206L241.66666666666669,61.60271218039773L241.98888888888888,63.48005593039774L242.31111111111113,92.90639204545455L242.63333333333333,84.87666847922586L242.95555555555555,114.85643976384944L243.27777777777777,89.16898859197443L243.6,106.00246471058239L243.92222222222222,101.34169810901989L244.24444444444444,-33.82468150745737L244.5666666666667,114.17673228870738L244.88888888888889,74.81937810724432L245.2111111111111,23.77405783913352L245.53333333333333,118.27107599431818L245.85555555555555,269.0733448375355L246.17777777777778,63.58543923117898L246.5,101.86086148348723L246.82222222222222,149.22260575727984L247.14444444444445,127.82875865589489L247.46666666666667,93.96481767134233L247.7888888888889,-48.51483709161934L248.1111111111111,4.785903098366475L248.43333333333334,129.96185691139914L248.75555555555556,96.80226551402698L249.07777777777778,24.13801047585227L249.4,-24.27776433771308L249.72222222222223,19.179760742187483L250.04444444444445,79.26009410511364L250.36666666666665,17.663801713423283L250.6888888888889,117.76578924005682L251.0111111111111,141.33515458540484L251.33333333333334,204.62903664328834L251.65555555555554,120.76234907670455L251.9777777777778,199.9704922762784L252.3,133.76513727361504L252.6222222222222,204.56829556551847L252.94444444444446,96.33436168323864L253.26666666666665,18.91151234019887L253.5888888888889,34.88216885653409L253.9111111111111,99.65151589133522L254.23333333333335,207.20766823508524L254.55555555555554,114.95713168057529L254.8777777777778,33.14724564985795L255.2,27.510078568892055L255.5222222222222,-22.663829456676126L255.84444444444446,97.15214399857955L256.1666666666667,42.88873180042614L256.4888888888889,118.16248279918324L256.81111111111113,71.97946111505682L257.1333333333333,133.9342246315696L257.4555555555556,174.75968572443182L257.77777777777777,7.1733731356534065L258.1,152.56627863103694L258.4222222222222,163.18673262162642L258.74444444444447,154.27241155450994L259.06666666666666,54.887613192471605L259.3888888888889,77.03064963600852L259.7111111111111,63.16123934659092L260.0333333333333,114.02892899946733L260.35555555555555,34.500438343394904L260.67777777777775,124.20824473987926" style="fill: none;" fill="none"></path></g></g></g></g></g></g><g transform="translate(40, 178)" clip-path="url(#clip_1)"><clipPath id="clip_1"><rect width="290" height="21"></rect></clipPath><g><g><line x1="0" y1="0" x2="0" y2="5" style="visibility: inherit;" fill="rgb(0, 0, 0)" stroke="rgb(204, 204, 204)" stroke-width="1px"></line><line x1="32.22222222222222" y1="0" x2="32.22222222222222" y2="5" style="visibility: inherit;" fill="rgb(0, 0, 0)" stroke="rgb(204, 204, 204)" stroke-width="1px"></line><line x1="64.44444444444444" y1="0" x2="64.44444444444444" y2="5" style="visibility: inherit;" fill="rgb(0, 0, 0)" stroke="rgb(204, 204, 204)" stroke-width="1px"></line><line x1="96.66666666666666" y1="0" x2="96.66666666666666" y2="5" style="visibility: inherit;" fill="rgb(0, 0, 0)" stroke="rgb(204, 204, 204)" stroke-width="1px"></line><line x1="128.88888888888889" y1="0" x2="128.88888888888889" y2="5" style="visibility: inherit;" fill="rgb(0, 0, 0)" stroke="rgb(204, 204, 204)" stroke-width="1px"></line><line x1="161.11111111111111" y1="0" x2="161.11111111111111" y2="5" style="visibility: inherit;" fill="rgb(0, 0, 0)" stroke="rgb(204, 204, 204)" stroke-width="1px"></line><line x1="193.33333333333331" y1="0" x2="193.33333333333331" y2="5" style="visibility: inherit;" fill="rgb(0, 0, 0)" stroke="rgb(204, 204, 204)" stroke-width="1px"></line><line x1="225.55555555555557" y1="0" x2="225.55555555555557" y2="5" style="visibility: inherit;" fill="rgb(0, 0, 0)" stroke="rgb(204, 204, 204)" stroke-width="1px"></line><line x1="257.77777777777777" y1="0" x2="257.77777777777777" y2="5" style="visibility: inherit;" fill="rgb(0, 0, 0)" stroke="rgb(204, 204, 204)" stroke-width="1px"></line><line x1="290" y1="0" x2="290" y2="5" style="visibility: inherit;" fill="rgb(0, 0, 0)" stroke="rgb(204, 204, 204)" stroke-width="1px"></line></g><g transform="translate(0, 8)"><text x="0" y="0" dx="0em" dy="0.95em" style="text-anchor: middle; visibility: hidden; font-family: &quot;Helvetica Neue&quot;, sans-serif; font-size: 12px; font-weight: 200;" fill="rgb(50, 49, 63)" stroke="none" stroke-width="1px">-10k</text><text x="32.22222222222222" y="0" dx="0em" dy="0.95em" style="text-anchor: middle; visibility: inherit; font-family: &quot;Helvetica Neue&quot;, sans-serif; font-size: 12px; font-weight: 200;" fill="rgb(50, 49, 63)" stroke="none" stroke-width="1px">0</text><text x="64.44444444444444" y="0" dx="0em" dy="0.95em" style="text-anchor: middle; visibility: inherit; font-family: &quot;Helvetica Neue&quot;, sans-serif; font-size: 12px; font-weight: 200;" fill="rgb(50, 49, 63)" stroke="none" stroke-width="1px">10k</text><text x="96.66666666666666" y="0" dx="0em" dy="0.95em" style="text-anchor: middle; visibility: inherit; font-family: &quot;Helvetica Neue&quot;, sans-serif; font-size: 12px; font-weight: 200;" fill="rgb(50, 49, 63)" stroke="none" stroke-width="1px">20k</text><text x="128.88888888888889" y="0" dx="0em" dy="0.95em" style="text-anchor: middle; visibility: inherit; font-family: &quot;Helvetica Neue&quot;, sans-serif; font-size: 12px; font-weight: 200;" fill="rgb(50, 49, 63)" stroke="none" stroke-width="1px">30k</text><text x="161.11111111111111" y="0" dx="0em" dy="0.95em" style="text-anchor: middle; visibility: inherit; font-family: &quot;Helvetica Neue&quot;, sans-serif; font-size: 12px; font-weight: 200;" fill="rgb(50, 49, 63)" stroke="none" stroke-width="1px">40k</text><text x="193.33333333333331" y="0" dx="0em" dy="0.95em" style="text-anchor: middle; visibility: inherit; font-family: &quot;Helvetica Neue&quot;, sans-serif; font-size: 12px; font-weight: 200;" fill="rgb(50, 49, 63)" stroke="none" stroke-width="1px">50k</text><text x="225.55555555555557" y="0" dx="0em" dy="0.95em" style="text-anchor: middle; visibility: inherit; font-family: &quot;Helvetica Neue&quot;, sans-serif; font-size: 12px; font-weight: 200;" fill="rgb(50, 49, 63)" stroke="none" stroke-width="1px">60k</text><text x="257.77777777777777" y="0" dx="0em" dy="0.95em" style="text-anchor: middle; visibility: inherit; font-family: &quot;Helvetica Neue&quot;, sans-serif; font-size: 12px; font-weight: 200;" fill="rgb(50, 49, 63)" stroke="none" stroke-width="1px">70k</text><text x="290" y="0" dx="0em" dy="0.95em" style="text-anchor: middle; visibility: hidden; font-family: &quot;Helvetica Neue&quot;, sans-serif; font-size: 12px; font-weight: 200;" fill="rgb(50, 49, 63)" stroke="none" stroke-width="1px">80k</text></g><line x1="0" y1="0" x2="290" y2="0" fill="rgb(0, 0, 0)" stroke="rgb(204, 204, 204)" stroke-width="1px"></line></g></g></g></g></svg>