<svg viewBox="0 0 330 200" xmlns="http://www.w3.org/2000/svg"><g><g><g><g><g><line x1="30" y1="178" x2="25" y2="178" style="visibility: inherit;" fill="rgb(0, 0, 0)" stroke="rgb(204, 204, 204)" stroke-width="1px"></line><line x1="30" y1="164.30769230769232" x2="25" y2="164.30769230769232" style="visibility: inherit;" fill="rgb(0, 0, 0)" stroke="rgb(204, 204, 204)" stroke-width="1px"></line><line x1="30" y1="150.6153846153846" x2="25" y2="150.6153846153846" style="visibility: inherit;" fill="rgb(0, 0, 0)" stroke="rgb(204, 204, 204)" stroke-width="1px"></line><line x1="30" y1="136.9230769230769" x2="25" y2="136.9230769230769" style="visibility: inherit;" fill="rgb(0, 0, 0)" stroke="rgb(204, 204, 204)" stroke-width="1px"></line><line x1="30" y1="123.23076923076923" x2="25" y2="123.23076923076923" style="visibility: inherit;" fill="rgb(0, 0, 0)" stroke="rgb(204, 204, 204)" stroke-width="1px"></line><line x1="30" y1="109.53846153846153" x2="25" y2="109.53846153846153" style="visibility: inherit;" fill="rgb(0, 0, 0)" stroke="rgb(204, 204, 204)" stroke-width="1px"></line><line x1="30" y1="95.84615384615384" x2="25" y2="95.84615384615384" style="visibility: inherit;" fill="rgb(0, 0, 0)" stroke="rgb(204, 204, 204)" stroke-width="1px"></line><line x1="30" y1="82.15384615384616" x2="25" y2="82.15384615384616" style="visibility: inherit;" fill="rgb(0, 0, 0)" stroke="rgb(204, 204, 204)" stroke-width="1px"></line><line x1="30" y1="68.46153846153845" x2="25" y2="68.46153846153845" style="visibility: inherit;" fill="rgb(0, 0, 0)" stroke="rgb(204, 204, 204)" stroke-width="1px"></line><line x1="30" y1="54.769230769230774" x2="25" y2="54.769230769230774" style="visibility: inherit;" fill="rgb(0, 0, 0)" stroke="rgb(204, 204, 204)" stroke-width="1px"></line><line x1="30" y1="41.076923076923066" x2="25" y2="41.076923076923066" style="visibility: inherit;" fill="rgb(0, 0, 0)" stroke="rgb(204, 204, 204)" stroke-width="1px"></line><line x1="30" y1="27.384615384615387" x2="25" y2="27.384615384615387" style="visibility: inherit;" fill="rgb(0, 0, 0)" stroke="rgb(204, 204, 204)" stroke-width="1px"></line><line x1="30" y1="13.69230769230768" x2="25" y2="13.69230769230768" style="visibility: inherit;" fill="rgb(0, 0, 0)" stroke="rgb(204, 204, 204)" stroke-width="1px"></line><line x1="30" y1="0" x2="25" y2="0" style="visibility: inherit;" fill="rgb(0, 0, 0)" stroke="rgb(204, 204, 204)" stroke-width="1px"></line></g><g transform="translate(20, 0)"><text x="0" y="178" dx="0em" dy="0.3em" style="text-anchor: end; visibility: hidden; font-family: &quot;Helvetica Neue&quot;, sans-serif; font-size: 12px; font-weight: 200;" fill="rgb(50, 49, 63)" stroke="none" stroke-width="1px">40</text><text x="0" y="164.30769230769232" dx="0em" dy="0.3em" style="text-anchor: end; visibility: inherit; font-family: &quot;Helvetica Neue&quot;, sans-serif; font-size: 12px; font-weight: 200;" fill="rgb(50, 49, 63)" stroke="none" stroke-width="1px">42</text><text x="0" y="150.6153846153846" dx="0em" dy="0.3em" style="text-anchor: end; visibility: hidden; font-family: &quot;Helvetica Neue&quot;, sans-serif; font-size: 12px; font-weight: 200;" fill="rgb(50, 49, 63)" stroke="none" stroke-width="1px">44</text><text x="0" y="136.9230769230769" dx="0em" dy="0.3em" style="text-anchor: end; visibility: inherit; font-family: &quot;Helvetica Neue&quot;, sans-serif; font-size: 12px; font-weight: 200;" fill="rgb(50, 49, 63)" stroke="none" stroke-width="1px">46</text><text x="0" y="123.23076923076923" dx="0em" dy="0.3em" style="text-anchor: end; visibility: hidden; font-family: &quot;Helvetica Neue&quot;, sans-serif; font-size: 12px; font-weight: 200;" fill="rgb(50, 49, 63)" stroke="none" stroke-width="1px">48</text><text x="0" y="109.53846153846153" dx="0em" dy="0.3em" style="text-anchor: end; visibility: inherit; font-family: &quot;Helvetica Neue&quot;, sans-serif; font-size: 12px; font-weight: 200;" fill="rgb(50, 49, 63)" stroke="none" stroke-width="1px">50</text><text x="0" y="95.84615384615384" dx="0em" dy="0.3em" style="text-anchor: end; visibility: hidden; font-family: &quot;Helvetica Neue&quot;, sans-serif; font-size: 12px; font-weight: 200;" fill="rgb(50, 49, 63)" stroke="none" stroke-width="1px">52</text><text x="0" y="82.15384615384616" dx="0em" dy="0.3em" style="text-anchor: end; visibility: inherit; font-family: &quot;Helvetica Neue&quot;, sans-serif; font-size: 12px; font-weight: 200;" fill="rgb(50, 49, 63)" stroke="none" stroke-width="1px">54</text><text x="0" y="68.46153846153845" dx="0em" dy="0.3em" style="text-anchor: end; visibility: hidden; font-family: &quot;Helvetica Neue&quot;, sans-serif; font-size: 12px; font-weight: 200;" fill="rgb(50, 49, 63)" stroke="none" stroke-width="1px">56</text><text x="0" y="54.769230769230774" dx="0em" dy="0.3em" style="text-anchor: end; visibility: inherit; font-family: &quot;Helvetica Neue&quot;, sans-serif; font-size: 12px; font-weight: 200;" fill="rgb(50, 49, 63)" stroke="none" stroke-width="1px">58</text><text x="0" y="41.076923076923066" dx="0em" dy="0.3em" style="text-anchor: end; visibility: hidden; font-family: &quot;Helvetica Neue&quot;, sans-serif; font-size: 12px; font-weight: 200;" fill="rgb(50, 49, 63)" stroke="none" stroke-width="1px">60</text><text x="0" y="27.384615384615387" dx="0em" dy="0.3em" style="text-anchor: end; visibility: inherit; font-family: &quot;Helvetica Neue&quot;, sans-serif; font-size: 12px; font-weight: 200;" fill="rgb(50, 49, 63)" stroke="none" stroke-width="1px">62</text><text x="0" y="13.69230769230768" dx="0em" dy="0.3em" style="text-anchor: end; visibility: hidden; font-family: &quot;Helvetica Neue&quot;, sans-serif; font-size: 12px; font-weight: 200;" fill="rgb(50, 49, 63)" stroke="none" stroke-width="1px">64</text><text x="0" y="0" dx="0em" dy="0.3em" style="text-anchor: end; visibility: hidden; font-family: &quot;Helvetica Neue&quot;, sans-serif; font-size: 12px; font-weight: 200;" fill="rgb(50, 49, 63)" stroke="none" stroke-width="1px">66</text></g><line x1="30" y1="0" x2="30" y2="178" fill="rgb(0, 0, 0)" stroke="rgb(204, 204, 204)" stroke-width="1px"></line></g></g><g transform="translate(30, 0)" clip-path="url(#clip_0)"><clipPath id="clip_0"><rect width="300" height="177"></rect></clipPath><g><g><g><line x1="0" y1="0" x2="0" y2="178" fill="rgb(0, 0, 0)" stroke="rgb(60, 60, 60)" stroke-width="1px" opacity="0.25"></line><line x1="33.33333333333333" y1="0" x2="33.33333333333333" y2="178" fill="rgb(0, 0, 0)" stroke="rgb(60, 60, 60)" stroke-width="1px" opacity="0.25"></line><line x1="66.66666666666666" y1="0" x2="66.66666666666666" y2="178" fill="rgb(0, 0, 0)" stroke="rgb(60, 60, 60)" stroke-width="1px" opacity="0.25"></line><line x1="100" y1="0" x2="100" y2="178" fill="rgb(0, 0, 0)" stroke="rgb(60, 60, 60)" stroke-width="1px" opacity="0.25"></line><line x1="133.33333333333331" y1="0" x2="133.33333333333331" y2="178" fill="rgb(0, 0, 0)" stroke="rgb(60, 60, 60)" stroke-width="1px" opacity="0.25"></line><line x1="166.66666666666669" y1="0" x2="166.66666666666669" y2="178" fill="rgb(0, 0, 0)" stroke="rgb(60, 60, 60)" stroke-width="1px" opacity="0.25"></line><line x1="200" y1="0" x2="200" y2="178" fill="rgb(0, 0, 0)" stroke="rgb(60, 60, 60)" stroke-width="1px" opacity="0.25"></line><line x1="233.33333333333334" y1="0" x2="233.33333333333334" y2="178" fill="rgb(0, 0, 0)" stroke="rgb(60, 60, 60)" stroke-width="1px" opacity="0.25"></line><line x1="266.66666666666663" y1="0" x2="266.66666666666663" y2="178" fill="rgb(0, 0, 0)" stroke="rgb(60, 60, 60)" stroke-width="1px" opacity="0.25"></line><line x1="300" y1="0" x2="300" y2="178" fill="rgb(0, 0, 0)" stroke="rgb(60, 60, 60)" stroke-width="1px" opacity="0.25"></line></g><g><line x1="0" y1="178" x2="300" y2="178" fill="rgb(0, 0, 0)" stroke="rgb(60, 60, 60)" stroke-width="1px" opacity="0.25"></line><line x1="0" y1="164.30769230769232" x2="300" y2="164.30769230769232" fill="rgb(0, 0, 0)" stroke="rgb(60, 60, 60)" stroke-width="1px" opacity="0.25"></line><line x1="0" y1="150.6153846153846" x2="300" y2="150.6153846153846" fill="rgb(0, 0, 0)" stroke="rgb(60, 60, 60)" stroke-width="1px" opacity="0.25"></line><line x1="0" y1="136.9230769230769" x2="300" y2="136.9230769230769" fill="rgb(0, 0, 0)" stroke="rgb(60, 60, 60)" stroke-width="1px" opacity="0.25"></line><line x1="0" y1="123.23076923076923" x2="300" y2="123.23076923076923" fill="rgb(0, 0, 0)" stroke="rgb(60, 60, 60)" stroke-width="1px" opacity="0.25"></line><line x1="0" y1="109.53846153846153" x2="300" y2="109.53846153846153" fill="rgb(0, 0, 0)" stroke="rgb(60, 60, 60)" stroke-width="1px" opacity="0.25"></line><line x1="0" y1="95.84615384615384" x2="300" y2="95.84615384615384" fill="rgb(0, 0, 0)" stroke="rgb(60, 60, 60)" stroke-width="1px" opacity="0.25"></line><line x1="0" y1="82.15384615384616" x2="300" y2="82.15384615384616" fill="rgb(0, 0, 0)" stroke="rgb(60, 60, 60)" stroke-width="1px" opacity="0.25"></line><line x1="0" y1="68.46153846153845" x2="300" y2="68.46153846153845" fill="rgb(0, 0, 0)" stroke="rgb(60, 60, 60)" stroke-width="1px" opacity="0.25"></line><line x1="0" y1="54.769230769230774" x2="300" y2="54.769230769230774" fill="rgb(0, 0, 0)" stroke="rgb(60, 60, 60)" stroke-width="1px" opacity="0.25"></line><line x1="0" y1="41.076923076923066" x2="300" y2="41.076923076923066" fill="rgb(0, 0, 0)" stroke="rgb(60, 60, 60)" stroke-width="1px" opacity="0.25"></line><line x1="0" y1="27.384615384615387" x2="300" y2="27.384615384615387" fill="rgb(0, 0, 0)" stroke="rgb(60, 60, 60)" stroke-width="1px" opacity="0.25"></line><line x1="0" y1="13.69230769230768" x2="300" y2="13.69230769230768" fill="rgb(0, 0, 0)" stroke="rgb(60, 60, 60)" stroke-width="1px" opacity="0.25"></line><line x1="0" y1="0" x2="300" y2="0" fill="rgb(0, 0, 0)" stroke="rgb(60, 60, 60)" stroke-width="1px" opacity="0.25"></line></g></g></g><g><g><line x1="0" y1="451.84615384615387" x2="300" y2="451.84615384615387" fill="rgb(0, 0, 0)" stroke="rgb(153, 153, 153)" stroke-width="1.5px"></line></g></g><g><g><line x1="-300" y1="0" x2="-300" y2="178" fill="rgb(0, 0, 0)" stroke="rgb(153, 153, 153)" stroke-width="1.5px"></line></g></g><g><g><g><g><g><path stroke="rgb(255, 112, 67)" stroke-width="2px" d="M33.666666666666664,-64.96998537503754L34,56.01850957985572L34.333333333333336,65.02013787839954L34.666666666666664,121.43142385153237L35,138.5105075278667L35.33333333333333,137.93701260738703L35.666666666666664,110.95253811631328L36,89.46396730718831L36.333333333333336,78.87638539937856L36.666666666666664,81.44615153537778L37,71.55647922931684L37.333333333333336,84.13269750995734L37.666666666666664,109.3443445851376L38,112.19678643350598L38.33333333333333,108.24535954367407L38.666666666666664,111.49432419559636L39,103.33763373337628L39.333333333333336,97.62847219427822L39.666666666666664,81.02058475360089L40,87.57134573436984L40,-44.20976188336513L41.333333333333336,-4.764724217945286L41.66666666666667,7.582906823198556L42.00000000000001,1.6707946927238595L42.33333333333333,21.36942100664129L42.666666666666664,11.631315759759872L43,13.858991646129027L43.33333333333333,19.11687537319912L43.666666666666664,37.88440685060817L44,50.6680214802153L44.333333333333336,42.674803039417526L44.666666666666664,66.53576647458036L45,60.73598928728698L45.333333333333336,59.53725999210799L45.66666666666667,55.98576083736735L46,72.56488052745308L46.33333333333333,70.18374764416923L46.666666666666664,53.09370792691432L47,63.840245525925326L47.33333333333333,57.3165708550155L47.666666666666664,70.58319606719881L48,97.4802632055201L48.333333333333336,93.41826026805295L48.666666666666664,96.15792115811787L49,112.77826622463851L49.333333333333336,108.91571957368512L49.66666666666667,101.6580245847218L50,126.16824371820354L50,82.7610245495133L50.333333333333336,86.82888571799691L50.66666666666667,96.43775689363964L51.00000000000001,101.47777767669851L51.33333333333333,79.14082694869636L51.666666666666664,84.53944793147289L52,83.12331464958373L52.333333333333336,74.39539814984967L52.666666666666664,68.61081601065032L53,80.03758356851554L53.333333333333336,98.6073276228461L53.666666666666664,103.42446315316116L54,99.36480240334859L54.333333333333336,88.35287040507102L54.66666666666667,86.05397089730825L54.99999999999999,74.90881413162944L55.33333333333333,80.87458420339895L55.666666666666664,72.46152166491066L56,71.79593860202328L56.33333333333333,95.54956525255113L56.666666666666664,85.2788402273825L57,93.08864951386859L57.333333333333336,103.3332043990744L57.666666666666664,110.83549395253713L58,116.65038829741019L58.333333333333336,113.43414613827558L58.66666666666667,117.74501031010854L59,106.97989362485453L59.333333333333336,107.35845881680636L59.66666666666667,102.49347600509921L60,121.08706794556622L60,71.46892867794196L60.33333333333333,77.29503285398201L60.666666666666664,71.01801712881581L61,88.15426658202075L61.333333333333336,80.60984389201202L61.666666666666664,73.82806782368463L62,84.1024439183716L62.333333333333336,70.03378686398317L62.66666666666667,78.50173855435588L63,93.01849063496157L63.333333333333336,98.19623226554036L63.66666666666667,98.42166253665508L64,82.55586136775312L64.33333333333333,90.37166834973438L64.66666666666667,94.39897415663349L65,74.45486293843031L65.33333333333333,95.4398631044043L65.66666666666667,81.19793081112442L66,84.89555338671448L66.33333333333334,85.67023943964084L66.66666666666666,61.36760170020608L67,54.92794510239739L67.33333333333333,56.39729286683648L67.66666666666667,52.305449598160436L68,64.6655502535546L68.33333333333333,92.63801384013342L68.66666666666667,85.31963316662429L69,79.45972949757456L69.33333333333333,68.98843577649733L69.66666666666667,74.10452845101261L70,73.06120364800883L70,-4.345490119275581L70.33333333333334,8.531637885049093L70.66666666666666,8.228224564200104L71,6.689980341773406L71.33333333333333,-10.39884030189836L71.66666666666667,3.6651357604900454L72,21.14912434317094L72.33333333333333,25.04388945009501L72.66666666666667,29.54600552430358L73,62.794704929416994L73.33333333333333,86.93167580951825L73.66666666666667,92.74299205342437L74,82.63708294014762L74.33333333333334,94.70669809097544L74.66666666666667,108.65235911516444L75,111.4011609813787L75.33333333333333,109.77486519066268L75.66666666666667,128.526734792337L76,118.18799992451882L76.33333333333333,122.61955417290048L76.66666666666666,122.72158057476017L77,114.66905775761434L77.33333333333333,102.18556489785203L77.66666666666667,101.37246207418247L78,115.44144200371207L78.33333333333334,144.02785614835642L78.66666666666667,128.85128562762242L78.99999999999999,122.10462447125836L79.33333333333333,126.53684497269793L79.66666666666666,134.52817251908112L80,126.58878651946395L80,103.80793848462591L80.33333333333333,125.28746440871738L80.66666666666667,137.73811718413054L81,143.59911971333486L81.33333333333334,135.48174979446503L81.66666666666666,131.65462409037448L82,138.35262627660612L82.33333333333333,138.89411233931372L82.66666666666667,114.73579458756534L83,117.87533523317575L83.33333333333334,121.28622115550823L83.66666666666667,131.66485119575566L84.00000000000001,134.66976436882922L84.33333333333333,130.11640584454446L84.66666666666666,138.91216621934467L85,163.85177494547005L85.33333333333333,160.23713361529713L85.66666666666667,162.50549384611597L86,175.998297621285L86.33333333333334,186.74125458457394L88.66666666666667,187.59153871497713L89,175.62771243998245L89.33333333333333,160.80077653565272L89.66666666666666,135.95032418280084L90,137.34074664799664L90,83.21493631779342L90.33333333333333,80.75214828264808L90.66666666666667,65.76641835796873L91,79.55108468991706L91.33333333333334,71.61049772258296L91.66666666666667,74.13485301902122L92,81.02533997014288L92.33333333333333,97.4465365870111L92.66666666666666,95.01614728441872L93,106.99918463852424L93.33333333333333,96.61831308576487L93.66666666666667,97.54220029627118L94,97.23252965404365L94.33333333333334,112.3078014562432L94.66666666666666,98.20679387666442L95,102.6585680435281L95.33333333333333,108.2617029257232L95.66666666666667,106.0234259794963L96,90.32251419268218L96.33333333333334,105.28741453899788L96.66666666666667,113.60974087634207L96.99999999999999,134.80963734135707L97.33333333333333,139.4822836154538L97.66666666666666,154.72141553542824L98,131.8956966274137L98.33333333333333,120.66612907500465L98.66666666666667,110.32166921681988L99,130.8573591381342L99.33333333333334,120.32785524659656L99.66666666666666,108.34060987413798L100,86.24869071258449L100,68.20324560181086L100.33333333333333,94.74877580596544L100.66666666666667,93.94246309374692L101,95.27573217787861L101.33333333333334,116.08152416842094L101.66666666666667,108.20766784939659L102.00000000000001,130.48444463811106L102.33333333333333,122.82830139042062L102.66666666666666,117.64909757205902L103,114.12580759330186L103.33333333333333,110.30044785210143L103.66666666666667,118.48927521812826L104,118.19595163442395L104.33333333333334,114.91815240322602L104.66666666666667,108.38479059766478L105,98.12523059643257L105.33333333333333,100.45331308511541L105.66666666666666,102.82750365808572L106,112.55433439727922L106.33333333333333,106.9654176049352L106.66666666666667,100.80391876080839L107,104.36539668806194L107.33333333333333,88.78768243808308L107.66666666666666,86.38936057825867L108,68.84017979722933L108.33333333333333,83.31051817295442L108.66666666666667,106.73420344847601L109,93.53870553564389L109.33333333333334,101.92556953182267L109.66666666666667,96.89522452483908L109.99999999999999,97.05035173022311L109.99999999999999,29.1756110382654L110.33333333333333,50.05324649421172L110.66666666666666,65.12804636455692L111,56.70159542994672L111.33333333333333,69.63071152233651L111.66666666666667,63.92439984640319L112,74.75404810878742L112.33333333333334,65.0097234376304L112.66666666666666,68.9641116136859L113,65.17951899719765L113.33333333333333,55.3462129385277L113.66666666666667,34.18224096610007L114,23.364908739484463L114.33333333333334,47.17617942938185L114.66666666666667,51.40592851648334L115.00000000000001,83.8854158700374L115.33333333333333,92.05254176184339L115.66666666666666,87.39148985053345L116,108.3120193852189L116.33333333333333,114.54602755761687L116.66666666666667,115.23429081349727L117,113.84834530584894L117.33333333333334,113.80327017013012L117.66666666666667,120.4276526840369L118,111.98840208482926L118.33333333333333,112.63094389347397L118.66666666666667,105.5943916963804L119,105.57615027984643L119.33333333333334,120.39303380217672L119.66666666666667,139.77417011035652L120,138.72850559222658L120,67.32452941306225L120.33333333333333,71.05320860937766L120.66666666666666,87.5173339706256L121,89.7864229235011L121.33333333333333,96.4438264839215L121.66666666666667,110.95519281145026L122,120.22771110247456L122.33333333333334,112.40760702313898L122.66666666666667,107.61087904067828L122.99999999999999,118.75539409439583L123.33333333333333,135.40797627280293L123.66666666666666,141.58862775176345L124,124.04617481644125L124.33333333333333,125.53974511178868L124.66666666666667,116.33447177929969L125,112.53649646912753L125.33333333333334,97.71364495457797L125.66666666666666,95.42242643361375L126,107.17592874942157L126.33333333333333,102.0379683698859L126.66666666666667,127.21866810864556L127,138.83709343302755L127.33333333333334,136.58851068811157L127.66666666666667,128.32904277551336L128,135.88760030502806L128.33333333333331,124.58618066155063L128.66666666666666,123.03394420314252L129,123.20370914048718L129.33333333333334,102.47943014223456L129.66666666666666,100.78294018144042L130,94.82952549401824L130,107.64784591762408L130.33333333333334,135.67268505762428L130.66666666666666,146.21804566043494L131,137.34723127186686L131.33333333333334,126.32182891902201L131.66666666666666,123.26164595043453L132,130.29290945704548L132.33333333333334,122.92243903935363L132.66666666666669,119.27662268545019L133,122.29583173456905L133.33333333333331,109.09956371590827L133.66666666666666,103.99604915645193L134,90.65180979672661L134.33333333333334,108.05086147852448L134.66666666666666,102.43836296164531L135,99.65478365194046L135.33333333333334,95.47175752376869L135.66666666666669,88.36956793026387L136,93.69298706438163L136.33333333333331,110.95489514080043L136.66666666666666,131.50707164149654L137,147.76730261491682L137.33333333333334,144.7529169163435L137.66666666666666,151.10425589500932L138,143.60642467195817L138.33333333333334,130.74288888493766L138.66666666666666,113.45770883339237L139,102.78281091129631L139.33333333333334,112.48732076780168L139.66666666666666,113.5372433600944L140,111.00991764726433L140,49.76095944174821L140.33333333333334,65.42889256919851L140.66666666666669,62.42326478282597L141,66.5679644741255L141.33333333333331,57.83287775947329L141.66666666666666,86.04769666107384L142,80.16705054044868L142.33333333333334,74.93760881436464L142.66666666666666,102.48402642003745L143,115.79455976137206L143.33333333333334,122.7354992837331L143.66666666666666,114.25441897337791L144,110.28930055090373L144.33333333333334,118.69322177463806L144.66666666666666,104.70671192066264L145,110.51336985235294L145.33333333333334,117.92050523221286L145.66666666666669,129.98662654641768L146,156.26511725445386L146.33333333333331,153.1113623512491L146.66666666666666,148.89224739818212L147,148.62830989964604L147.33333333333334,164.27551205529247L147.66666666666666,138.77196633508302L148,130.91397993916345L148.33333333333334,123.91438053084462L148.66666666666669,129.31183025709612L149,119.21580506647732L149.33333333333334,113.90962873689239L149.66666666666666,121.53279981303457L150,111.6940882993992L150,67.72283323211019L150.33333333333331,103.45525415599187L150.66666666666666,94.94649523800828L151,105.86161998526629L151.33333333333334,89.27772881370824L151.66666666666666,91.44782362345525L152,88.8857361736208L152.33333333333334,80.14925497565173L152.66666666666666,77.7317366348205L153,106.37906444673887L153.33333333333331,137.31964672155044L153.66666666666669,144.6597357201947L154,158.34130195535766L154.33333333333334,190.5140213992973L154.66666666666666,178.41329718508234L155.00000000000003,163.34178043098913L155.33333333333334,160.12746680130525L155.66666666666666,158.1676300600452L156,155.7611414556274L156.33333333333331,139.82357710108303L156.66666666666669,121.65393790170567L157,107.38139790338681L157.33333333333334,118.90428476761419L157.66666666666666,125.44655514099236L157.99999999999997,126.21670643321389L158.33333333333334,120.47129767252721L158.66666666666666,134.29068612793864L159,122.31332034206628L159.33333333333331,107.47063018427251L159.66666666666669,106.19164912403171L160,110.94865229634965L160,50.73253658336637L160.33333333333334,75.1096798908254L160.66666666666666,91.62909798073812L161,95.2404932778214L161.33333333333334,75.13705173455885L161.66666666666666,59.10832403402998L162,86.34644764112346L162.33333333333334,94.36818131155634L162.66666666666669,86.83027491579506L163,81.68999869114555L163.33333333333331,100.64351772927367L163.66666666666669,84.03706103563401L164,73.31557215241826L164.33333333333334,70.46891721885972L164.66666666666666,63.803394178361074L165,56.64898733731252L165.33333333333334,44.689876705239385L165.66666666666666,61.80876181293283L166,67.01033832993372L166.33333333333331,71.06858101878863L166.66666666666669,61.870969460402094L167,54.90867816520242L167.33333333333334,49.21438780871196L167.66666666666666,51.032828825417354L168.00000000000003,78.17613756250087L168.33333333333334,93.64369744162445L168.66666666666666,81.5243685518678L169,80.2936649708946L169.33333333333331,79.2993980187934L169.66666666666669,79.61801080167201L170,96.12019957486581L170,95.69090963119456L170.33333333333334,115.98564987326507L170.66666666666666,100.30513592475862L170.99999999999997,95.55293145386385L171.33333333333334,95.39750815971105L171.66666666666666,95.44624538422656L172,97.37971829780611L172.33333333333331,106.4500060099083L172.66666666666669,97.19593778895782L173,88.77089551189864L173.33333333333331,74.87498251469628L173.66666666666666,92.34617532780116L174,101.5594834922166L174.33333333333334,110.36640307996761L174.66666666666666,133.72343971506658L175,124.75889840115951L175.33333333333334,110.00981299199488L175.66666666666669,118.65168059822827L176,134.39968704380192L176.33333333333331,138.8532158416761L176.66666666666669,136.3421250444519L177,123.23837343920822L177.33333333333334,126.21019988219511L177.66666666666666,127.07152030874158L178,108.60934842606454L178.33333333333334,103.35464129973502L178.66666666666666,95.00901609150279L179,89.84629040333763L179.33333333333331,107.61136233018054L179.66666666666669,104.36730646227944L180,87.65176019625781L180,13.400144037077325L180.33333333333334,10.350347840033606L180.66666666666666,39.29964633713345L181.00000000000003,68.43021192593565L181.33333333333334,66.62932071790866L181.66666666666666,60.36877182565772L182,65.78962091413342L182.33333333333331,72.81193915806503L182.66666666666669,73.2115740277712L183,73.72521171135995L183.33333333333334,89.41336544884832L183.66666666666666,81.9074979729977L184,103.66827343808289L184.33333333333334,114.6456857422526L184.66666666666666,106.42587348559658L185,96.9802651995458L185.33333333333331,91.9135485332821L185.66666666666669,88.24311066472606L186,104.31468024703061L186.33333333333331,111.48551771442949L186.66666666666666,109.47806730313987L187,93.27272320838398L187.33333333333334,88.21886186116805L187.66666666666666,91.39888459080284L188,97.22666822228301L188.33333333333334,89.78653145810382L188.66666666666669,95.99707449667703L189,101.6119493421149L189.33333333333331,99.98923311156393L189.66666666666669,86.5873164571257L190,101.45815219065577L190,25.532939023499466L190.33333333333334,28.762312905669802L190.66666666666666,32.62041848319964L191,55.00622188495353L191.33333333333334,52.74588995069526L191.66666666666666,48.37962921726634L192,34.15396360058543L192.33333333333331,46.914944170557106L192.66666666666669,43.590138540714406L193,51.802554145477316L193.33333333333334,55.97900229972383L193.66666666666666,64.69715563611894L193.99999999999997,81.28831134460768L194.33333333333334,80.95751698673068L194.66666666666666,81.1888112811876L195,86.82273483829493L195.33333333333331,106.34124204161218L195.66666666666669,81.37707257918075L196,102.82174091442113L196.33333333333334,124.11596984824678L196.66666666666666,139.57670806005189L197,156.90592475591L197.33333333333334,144.71879851782194L197.66666666666666,133.7053019127117L198,141.14423984480925L198.33333333333331,127.91051083552138L198.66666666666669,118.89035539368511L199,128.8514088038096L199.33333333333331,125.49858552791571L199.66666666666666,110.38612831542648L200,115.60706395251123L200,37.94815345284485L200.33333333333334,44.87431368433511L200.66666666666666,59.01913572686641L201,56.73817748942872L201.33333333333334,44.8295922014525L201.66666666666669,47.414615666911885L202,56.33933010159214L202.33333333333331,46.603646817694994L202.66666666666669,45.213820342579L203,65.7100514515056L203.33333333333334,68.44308004934156L203.66666666666666,105.1957772853518L204.00000000000003,109.89305164178255L204.33333333333334,117.09918330217043L204.66666666666666,127.58959128380185L205,140.62314925776806L205.33333333333331,122.45585687616207L205.66666666666669,131.19005273486272L206,115.50450555377091L206.33333333333334,130.1066017599935L206.66666666666666,142.35073657876768L206.99999999999997,136.3784934715797L207.33333333333334,142.67725979246094L207.66666666666666,147.05381083483297L208,145.56399537263442L208.33333333333331,149.94665746994247L208.66666666666669,152.87877307260047L209,172.770410570169L209.33333333333334,169.58230904278406L209.66666666666666,154.6733563617559L210,150.24755034669323L210,121.57726024519465L210.33333333333334,122.05306209197309L210.66666666666666,115.43019899310315L211,112.85855504461459L211.33333333333331,136.68732976397638L211.66666666666669,131.84263988954916L212,123.22512027209655L212.33333333333331,127.72058187315014L212.66666666666666,141.6220991110493L213,145.570207585731L213.33333333333334,144.76729839377214L213.66666666666666,151.07754085148164L214,131.28691296735383L214.33333333333334,128.41921603992722L214.66666666666666,120.71960582314888L215,124.86196237341693L215.33333333333331,116.40534503984216L215.66666666666669,142.4192306797685L216,142.4918922330844L216.33333333333334,146.75202764128295L216.66666666666666,167.33145765338753L217.00000000000003,150.6071111907241L217.33333333333334,135.23347997647375L217.66666666666666,141.26725038699408L218,118.63068346286705L218.33333333333331,111.54771269988224L218.66666666666669,131.7734755645629L219,137.03543757723534L219.33333333333334,145.02639712066562L219.66666666666666,131.1077031066597L219.99999999999997,117.10188626994741L219.99999999999997,61.189591580411076L220.33333333333334,74.5798038959851L220.66666666666666,73.62334456491273L221,68.47435134793287L221.33333333333331,72.82718916331565L221.66666666666669,97.2260823915956L222,94.56509075453725L222.33333333333334,99.21386918057448L222.66666666666666,94.04880525658929L223,88.35883860373085L223.33333333333334,72.17900743658943L223.66666666666666,78.31474785579792L224,78.48525940660818L224.33333333333334,74.70672400972025L224.66666666666669,71.59474192142686L225,68.95272681008629L225.33333333333331,94.37126443587961L225.66666666666666,102.67270810445271L226,113.0131198079653L226.33333333333334,139.5613869999976L226.66666666666666,144.53871419916626L227,152.88130391592165L227.33333333333334,132.88155521279378L227.66666666666666,113.70247601853521L228,93.8944704350205L228.33333333333331,93.41617968428638L228.66666666666669,82.7218050220467L229,92.10272160920788L229.33333333333334,89.26471526940047L229.66666666666666,84.60308440746134L230.00000000000003,63.80723159554728L230.00000000000003,-0.21893742279090134L230.33333333333334,23.66180207807014L230.66666666666666,48.34306068636312L231,59.14921445326303L231.33333333333331,59.2643900012214L231.66666666666669,61.81318820279711L232,78.81841470283769L232.33333333333334,61.75407787479068L232.66666666666666,59.1636333147664L232.99999999999997,62.6117797577937L233.33333333333334,77.99908719292553L233.66666666666666,104.89121508419456L234,99.65635643438013L234.33333333333331,107.44210845573609L234.66666666666669,121.16563663595602L235,109.54585305823898L235.33333333333334,124.77233964626174L235.66666666666666,107.73483532858685L236,101.46170657895178L236.33333333333334,107.65879846540734L236.66666666666666,84.31027403012986L237,79.03381096660577L237.33333333333334,83.232528370087L237.66666666666669,81.31579756428975L238,114.37409444480929L238.33333333333331,112.88679983947526L238.66666666666669,122.8082405650503L239,133.11118600201914L239.33333333333334,126.35043746012886L239.66666666666666,132.03077305815916L240,135.329838875529L240,22.027172403454472L240.33333333333334,37.25997925482656L240.66666666666666,61.837033727684684L241,62.36784886569788L241.33333333333331,69.28674041446736L241.66666666666669,62.427593577561126L242,35.72243861713491L242.33333333333334,44.72981625577549L242.66666666666666,39.122548691441324L243.00000000000003,35.151069214160714L243.33333333333334,37.489020195501894L243.66666666666666,66.62652608853706L244,55.54397539518935L244.33333333333331,66.66964775893388L244.66666666666669,59.69348853532274L245,62.13117675650071L245.33333333333334,83.00534275606829L245.66666666666666,80.69830265571164L245.99999999999997,74.68900184944074L246.33333333333334,81.8600932282131L246.66666666666666,74.84890118450066L247,98.69377067159273L247.33333333333331,93.21076110781298L247.66666666666669,95.15927424858046L248,75.69523880154186L248.33333333333331,74.88314222883479L248.66666666666666,99.7586927125143L249,114.32192742329005L249.33333333333334,126.5123136084668L249.66666666666666,117.39856196416741L250,132.55690346645957L250,54.76773656373685L250.33333333333334,55.18104753243931L250.66666666666669,58.33964249980836L251,69.27459609822218L251.33333333333331,67.26614974169087L251.66666666666669,53.51757967655368L252,43.781283828070514L252.33333333333334,40.52513422293703L252.66666666666666,36.543494325968766L253,44.04775527730962L253.33333333333334,40.00638309773646L253.66666666666666,61.30521110302384L254,60.6227087200667L254.33333333333331,54.41737562351675L254.66666666666669,83.91625627205855L255,98.12792015934718L255.33333333333334,111.35002527754632L255.66666666666666,100.04797365364064L256,94.40028551934601L256.3333333333333,104.82957860722253L256.66666666666663,94.97313927361883L257,93.43299139897879L257.3333333333333,87.09542228830335L257.6666666666667,97.80967363663451L258,109.54288472192457L258.33333333333337,118.40759277468916L258.6666666666667,116.73338142594827L259,119.88114037732069L259.3333333333333,116.5351042458775L259.66666666666663,119.74290442232282L260,106.57439991211596L260,63.057919922441656L260.3333333333333,79.95779527105606L260.6666666666667,68.53735097373558L261,94.12486540836824L261.3333333333333,105.02315040727744L261.6666666666667,121.33424749386167L262,128.28238960768874L262.3333333333333,120.2121038730211L262.6666666666667,112.64786070281232L263,108.15580057926758L263.3333333333333,116.10967385144777L263.6666666666667,104.01191814117446L264,86.43630220300038L264.3333333333333,78.82923738673311L264.6666666666667,67.9478332074502L265,66.51135187611722L265.33333333333337,59.78434598790838L265.6666666666667,61.38967096456126L266,58.96714375188442L266.3333333333333,58.208835183667546L266.66666666666663,82.55444723056108L267,74.49468181343325L267.3333333333333,88.5563099211799L267.6666666666667,84.7799330961709L268,88.85974260657693L268.33333333333337,98.38383117917904L268.6666666666667,98.96204420815347L269,118.11929504265927L269.3333333333333,122.67027772093738L269.66666666666663,125.91679150241671L270,116.6953486683758L270,22.3221317551467L270.3333333333333,12.90642049680477L270.6666666666667,22.68785382048955L271,29.184036418920925L271.33333333333337,22.62793934608041L271.6666666666667,28.931282801196403L272,37.58555313520429L272.3333333333333,26.908055561253377L272.66666666666663,37.351570817396976L273,49.001242589436885L273.3333333333333,67.83225246989154L273.6666666666667,68.42994320178201L274,64.60288021212543L274.3333333333333,80.32947228906221L274.6666666666667,75.90602506904106L275,69.4337561972475L275.3333333333333,90.02980032092981L275.6666666666667,89.14238777530491L276,105.82243662853394L276.3333333333333,89.92693320201947L276.6666666666667,115.39993679386843L277,117.18061194804955L277.3333333333333,126.33787850974352L277.6666666666667,121.49371314165896L278,125.93342840810979L278.33333333333337,118.29175625424011L278.6666666666667,122.63382681242054L279,118.8196419747218L279.3333333333333,131.53454741817228L279.66666666666663,121.47905688913843L280,117.47050933253934L280,13.829049385959593L280.3333333333333,28.2901117256759L280.6666666666667,55.07665218125409L281,53.018289691119705L281.33333333333337,54.49637391578854L281.6666666666667,48.79638691736292L282,60.262398776839305L282.3333333333333,65.82282624783778L282.66666666666663,61.01915333500442L283,62.78903110822908L283.3333333333333,70.20566798419381L283.6666666666667,88.6262549049715L284,100.71870028952816L284.33333333333337,85.91943263350731L284.6666666666667,93.49385827923143" style="fill: none;" fill="none"></path></g></g></g></g><g opacity="0.2"><g><g><g><path stroke="rgb(255, 112, 67)" stroke-width="2px" d="M33.666666666666664,-64.96998537503754L34,164.06123557457556L34.333333333333336,80.23693143404446L34.666666666666664,256.9635411776029L35,190.40523264958307L35.33333333333333,135.868773827186L35.666666666666664,-0.04794898399939029L36,-8.660380436823914L36.333333333333336,26.248151339017426L36.666666666666664,95.1478380056528L37,15.63661810067984L37.333333333333336,158.8650125356821L37.666666666666664,265.6444618518536L38,130.5356245774489L38.33333333333333,82.03060472928561L38.666666666666664,133.6437686039851L39,46.396387540377106L39.333333333333336,56.939470731295074L39.666666666666664,-39.509179335374085L40,135.87561622032752L40,-1029.6478118896484L40.333333333333336,-23.674001253568235L40.66666666666667,39.07100501427283L41,-67.4962387084961L41.333333333333336,242.4223066476675L41.66666666666667,104.54761475783128L42.00000000000001,-45.06823202279895L42.666666666666664,-66.22282233605017L43,31.75246488131009L43.33333333333333,61.52638127253607L43.666666666666664,189.82331584050104L44,154.5040054321289L44.333333333333336,-22.441691471980164L44.666666666666664,261.4272364102877L45,13.254133371206422L45.333333333333336,49.703065432035004L45.66666666666667,26.795856182391816L46,209.05414904080905L46.33333333333333,50.55199226966272L46.666666666666664,-87.99359365609973L47,152.66238315288837L47.33333333333333,3.3409159733699028L47.666666666666664,180.45093477689304L48,320.41369262108435L48.333333333333336,59.72583946814905L48.666666666666664,118.89715781578651L49,250.8088477208064L49.333333333333336,76.82069690410907L49.66666666666667,41.323379810039825L50,330.0120032383845L50,-278.3783252422626L50.333333333333336,120.68398871788612L50.66666666666667,176.43223014244666L51.00000000000001,143.44745547954852L51.33333333333333,-106.9095200758714L51.666666666666664,129.51553344726562L52,71.32322575495795L52.333333333333336,1.656747084397523L52.666666666666664,20.39469293447641L53,175.2957660968487L53.333333333333336,253.43092067425067L53.666666666666664,143.59122408353366L54,65.51084782527045L54.333333333333336,-3.484710693359375L54.66666666666667,66.88008381770209L54.99999999999999,-18.0533147958609L55.33333333333333,130.63831270658054L55.666666666666664,2.2797704843374333L56,66.24337563147913L56.33333333333333,293.7205376258263L56.666666666666664,-0.4107525165264292L57,158.24885764488806L57.333333333333336,188.8100671034593L57.666666666666664,173.4336166381836L58,165.17030393160306L58.333333333333336,86.59698809110202L58.66666666666667,153.7166862487793L59,17.149622697096618L59.333333333333336,110.51747219379132L59.66666666666667,61.89607943021335L60,276.2491526970497L60,-342.5952295156626L60.33333333333333,125.91444983849159L60.666666666666664,18.635231604942902L61,231.1603804368239L61.333333333333336,17.649378556471618L61.666666666666664,17.231757530799285L62,169.8462178156926L62.333333333333336,-47.375372079702515L62.66666666666667,149.17085618239184L63,214.16823724599985L63.333333333333336,141.40729933518628L63.66666666666667,100.30300668569711L64,-49.85367642916168L64.33333333333333,155.59938900287335L64.66666666666667,128.00939735999475L65,-91.99174499511719L65.66666666666667,-37.66068854698767L66,115.75477570753831L66.33333333333334,92.13553971510667L66.66666666666666,-141.45524831918567L67,1.1843607975886528L67.33333333333333,68.66007232666016L67.66666666666667,18.156002924992492L68,167.8197725736178L68.33333333333333,326.0891573979304L68.66666666666667,24.242233276367188L69,30.55439318143405L69.33333333333333,-18.402485774113586L69.66666666666667,116.8022364102877L70,64.3538566002479L70,-650.3640359731821L70.33333333333334,116.00123244065504L70.66666666666666,5.696005014272828L71,-6.147864121657165L71.33333333333333,-153.01837040827826L71.66666666666667,121.04000208928035L72,167.06669147198016L72.33333333333333,57.54875711294321L72.66666666666667,67.11969815767728L73,340.2812340076153L73.33333333333333,288.373690531804L73.66666666666667,141.2430035517766L74,-1.7046960683969132L74.66666666666667,225.03991200373724L75,134.34208444448618L75.33333333333333,96.20214110154372L75.66666666666667,285.0259191072904L76,31.903075878436738L76.33333333333333,159.6043827350323L76.66666666666666,123.57307169987605L77,47.464375422551086L77.33333333333333,-1.999075669508727L77.66666666666667,94.5864744919997L78,232.85823411207934L78.33333333333334,382.6041516524095L78.66666666666667,2.190767141488891L78.99999999999999,65.79838503324069L79.33333333333333,163.5272416334886L79.66666666666666,201.2221421461839L80,60.328309572660004L80,-86.31631939227765L81,192.51383884136493L81.33333333333334,67.73585304847131L81.66666666666666,99.71422136746921L82,194.25277299147385L82.33333333333333,143.41324351384088L82.66666666666667,-86.8845514150766L83,144.0772951566256L83.33333333333334,149.75277299147388L83.66666666666667,218.28276150043195L84.00000000000001,159.74815133901743L84.33333333333333,92.1150125356821L84.66666666666666,212.3197725736178L85,371.9926184140719L85.33333333333333,130.07008068378155L85.66666666666667,181.43676170935998L86.33333333333334,276.3997636941763L86.66666666666666,137.18321844247671L87,193.9926053560697L87.33333333333333,191.94560681856595L87.66666666666667,176.4048344538762L88,158.4131534282978L88.33333333333334,279.8844613295335L88.66666666666667,159.1662345299354L89,75.78007859450119L89.33333333333333,37.058218442476715L89.66666666666666,-71.4464410635141L90,148.94492662869968L90,-368.507946894719L90.33333333333333,60.198225754957946L90.66666666666667,-59.30140216533954L91,194.5950754605807L91.33333333333334,5.339991642878601L91.66666666666667,95.20260326678937L92,138.53192725548377L92.33333333333333,234.49446707505444L92.66666666666666,74.7326178917518L93,207.0071505033053L93.33333333333333,9.981693561260528L93.66666666666667,105.25277299147386L94,94.6480821462778L94.33333333333334,238.1229202563946L94.66666666666666,-19.477316049429078L95,139.81215990506686L95.33333333333333,155.02431458693286L95.66666666666667,87.34322679959811L96,-40.71406731238733L98,-58.60306020883411L98.33333333333333,26.946467179518493L98.66666666666667,23.988934150108918L99,302.24400490980884L99.33333333333334,32.45078072181116L99.66666666666666,8.297524672288148L100,-98.12592433049127L100.33333333333333,316.29231291550855L100.66666666666667,87.21314298189603L101,106.40292182335487L101.33333333333334,289.7223862868089L101.66666666666667,42.49408193734976L102.00000000000001,316.40184343778174L102.33333333333333,58.93170400766226L102.66666666666666,74.4245273883526L103,84.72115384615384L103.33333333333333,78.37478197537936L103.66666666666667,186.83154472937952L104,115.74793331439679L104.33333333333334,87.56231396014874L104.66666666666667,53.85869627732498L105,12.501052269568817L105.33333333333333,119.88301086425781L105.66666666666666,122.64201002854567L106,193.73246383666992L106.33333333333333,60.32146717951849L106.66666666666667,49.38131625835712L107,134.08875920222357L107.33333333333333,-41.22071779691254L107.66666666666666,66.37345944918118L108,-77.62167475773737L109,-16.588206951434813L109.33333333333334,171.92061204176682L109.66666666666667,54.91299937321588L109.99999999999999,98.34501149104192L109.99999999999999,-537.2930192213792L111,-13.623831528883727L111.33333333333333,177.53445610633264L111.66666666666667,16.300695859468902L112,165.13606584989108L112.33333333333334,-16.31440676175629L112.66666666666666,101.96662227924054L113,33.59408716055063L113.33333333333333,-26.720537625826296L114.33333333333334,245.900148831881L114.66666666666667,86.70654472937952L115.00000000000001,354.9525392972506L115.33333333333333,160.21369523268478L115.66666666666666,48.491308945875915L116,282.91045746436487L116.33333333333333,166.5737780057467L116.66666666666667,120.97839443500226L117,102.28152905977689L117.33333333333334,113.42708235520583L117.66666666666667,175.71338712252103L118,41.556151756873504L118.33333333333333,117.99346571702223L118.66666666666667,46.868773827186004L119,105.42391116802509L119.33333333333334,244.05169721750113L119.66666666666667,301.525148831881L120,130.00160452035757L120,-528.598374586839L120.33333333333333,102.17199853750375L120.66666666666666,224.92353908832257L121,108.72377278254582L121.33333333333333,152.00514778724084L121.66666666666667,232.0640725355882L122,197.61424226027268L122.33333333333334,47.1426262488732L122.66666666666667,67.57837354219876L122.99999999999999,211.76522533710187L124,-22.359530522273133L124.33333333333333,138.00477570753833L124.66666666666667,39.50915321936975L125,80.83937542255109L125.33333333333334,-25.99482609675482L125.66666666666666,76.30038774930514L126,205.26824246920071L126.33333333333333,59.15760744535007L126.66666666666667,337.3716107881986L127,235.8020823552058L127.33333333333334,117.82230142446664L127.66666666666667,59.39722178532526L128,198.96976735041693L128.33333333333331,30.266855973463805L128.66666666666666,110.07929787269005L129,124.62053240262546L129.33333333333334,-70.48114131047174L129.66666666666666,86.62438377967248L130,45.14355057936447L130,214.62691263052133L130.66666666666666,234.2274570465088L131,63.313238290640015L131.33333333333334,34.30608778733475L131.66666666666666,97.72198809110202L132,188.97438900287335L132.33333333333334,61.4100083571214L132.66666666666669,88.84938900287335L133,147.493529686561L133.33333333333331,-1.033775916466368L133.66666666666666,61.40316596397986L134,-20.716468224158632L134.33333333333334,253.25976943969727L134.66666666666666,55.597604311429535L135,76.42360305786133L135.33333333333334,60.56108151949368L135.66666666666669,29.09615384615384L136,138.12114862295297L136.33333333333331,255.01923076923077L137,283.47184709402234L137.33333333333334,119.59547365628757L137.66666666666666,204.11122512817383L138,81.03106689453125L138.33333333333334,23.38646404559796L138.66666666666666,-30.80084991455078L139,13.69230769230768L139.33333333333334,193.47916471041165L139.66666666666666,122.2996814434345L140,89.91737688504733L140,-461.41025249774634L140.33333333333334,196.19024100670447L140.66666666666669,37.33891325730545L141,101.15877591646634L141.33333333333331,-15.068359961876524L141.66666666666666,321.522774036114L142,31.088387122521027L142.33333333333334,31.29376338078424L142.66666666666666,332.38076400756836L143.33333333333334,180.6631534282978L143.66666666666666,43.47306647667517L144,77.19723745492789L144.33333333333334,188.83062039888821L144.66666666666666,-12.021823589618407L145,158.97454305795523L145.33333333333334,179.73893415010892L146,375.57999764955963L146.33333333333331,126.79077236468976L146.66666666666666,113.6803814814641L147,146.42554180438702L147.33333333333334,294.8638440645658L147.66666666666666,-74.07538252610425L148,65.3328411395733L148.33333333333334,65.49716303898737L148.66666666666669,174.35783591637244L149,34.956454643836395L149.33333333333334,69.62537207970252L149.66666666666666,185.15421823354868L150,29.58222491924579L150,-299.25222074068506L150.33333333333331,401.6706923338083L150.66666666666666,23.934142772967988L151,196.95700689462515L151.33333333333334,-49.128017132098876L151.66666666666666,109.55898871788612L152,67.50308110163763L152.33333333333334,7.236379183255707L152.66666666666666,57.55562562208908L153,345.4637722602257L154.33333333333334,459.02092292675604L154.66666666666666,77.42314089261569L155.00000000000003,37.55800041785608L155.33333333333334,133.3014661348783L155.66666666666666,141.81123557457556L156,135.6770823552058L156.33333333333331,6.811941880446227L156.66666666666669,-29.986135042630735L157.66666666666666,180.04699853750375L157.99999999999997,132.64423076923077L158.33333333333334,72.52129745483398L158.66666666666666,249.6244608072134L159,22.35268812913162L159.33333333333331,-16.40341010460486L159.66666666666669,95.51753616333008L160,150.64962269709662L160,-451.81878427358777L160.66666666666666,229.49676484328052L161,125.3804558974046L161.33333333333334,-92.64213796762317L162,313.67022690406213L162.33333333333334,161.31592119657077L162.66666666666669,23.920457986684937L163,38.79031019944412L163.33333333333331,258.82569063626806L164,-16.163769648625305L164.33333333333334,46.711320436917816L164.66666666666666,8.174309363731965L165,-3.0602211585411396L165.66666666666666,204.6794571509728L166,110.42162645780124L166.33333333333331,104.93784009493314L166.66666666666669,-14.89040550818811L167,-3.1971734853891007L167.33333333333334,1.691011282113891L167.66666666666666,66.20916366577148L168.00000000000003,304.7086114149827L168.66666666666666,-19.62105853740985L169,70.02246592595026L169.33333333333331,71.0014504652757L169.66666666666669,82.27708757840671L170,233.84407410254846L170,92.10814402653621L170.33333333333334,285.36137918325574L170.66666666666666,-30.561209458571227L170.99999999999997,55.892010028545684L171.33333333333334,94.1003773029034L171.66666666666666,95.85299623929538L172,113.51608569805438L172.33333333333331,182.14876233614407L172.66666666666669,19.963387122521027L173,18.45722491924579L173.33333333333331,-41.097450256347656L174.66666666666666,328.65646509023816L175,49.94267977201022L175.33333333333334,-13.083021310659547L176,265.82931093069226L176.33333333333331,176.02145150991586L176.66666666666669,115.38507754986102L177,13.877156771146332L177.33333333333334,151.012452345628L177.66666666666666,134.25992349477914L178,-45.4721421461839L178.33333333333334,59.49993603046124L178.66666666666666,25.358144026536195L179,46.75924330491287L179.33333333333331,255.875L179.66666666666669,77.29308319091797L180,-51.85275209867035L181.00000000000003,311.54792286799506L181.33333333333334,51.59945297241211L181.66666666666666,8.119517986591035L182,111.03091283944937L182.33333333333331,131.41876338078424L182.66666666666669,76.54684448242188L183,78.0119262108436L183.33333333333334,220.3434709402231L183.66666666666666,19.26507128201999L184,285.27923129155084L184.33333333333334,206.2609117948092L184.66666666666666,37.825010446401734L185,18.149160531850953L185.33333333333331,49.62777299147385L185.66666666666669,57.61039088322565L186,238.44469554607684L186.33333333333331,171.33185283954327L186.66666666666666,92.72429891733023L187,-41.973746666541444L187.33333333333334,46.04037416898288L187.66666666666666,117.93870045588567L188,145.86415217472955L188.33333333333334,27.692679772010223L188.66666666666669,147.8289897625263L189,148.47254034189078L189.33333333333331,86.44637709397537L189.66666666666669,-25.262324406550476L190,-608.123279278095L190.33333333333334,55.71400334284857L190.66666666666666,64.81937437791092L191,241.83353438744177L191.33333333333334,33.881624368520875L191.66666666666666,11.939714871920074L192,-84.57051673302283L192.33333333333331,153.415464254526L192.66666666666669,15.841994358943055L193,120.3416862487793L193.33333333333334,90.83477988609901L193.66666666666666,137.4570708641639L193.99999999999997,219.75468562199518L194.33333333333334,78.19677528968225L194.66666666666666,83.11914590688852L195,133.8423024691068L195.33333333333331,269.2386900094839L197,301.5320042830247L197.33333333333334,43.007548699012176L197.66666666666666,41.788923703707184L198,203.2280863248385L198.33333333333331,17.464529477632965L198.66666666666669,43.60999268751877L199,211.9843124976525L199.33333333333331,97.51661183283879L199.66666666666666,-15.739332345815797L200,159.17991931621845L200,-610.1771463247446L200.33333333333334,102.67862290602464L200.66666666666666,177.06891221266525L201,37.70176902184119L201.33333333333334,-54.55701211782605L201.66666666666669,68.98869000948392L202,130.8231617854192L202.33333333333331,-34.648364140437195L202.66666666666669,33.61461433997522L203,236.7673821082482L203.33333333333334,91.25237479576698L203.66666666666666,411.92623178775494L204.00000000000003,149.09553762582632L204.33333333333334,177.24007650522086L204.66666666666666,215.14037939218375L206.66666666666666,244.53776829059308L206.99999999999997,86.53538043682391L207.33333333333334,195.2454684330867L207.66666666666666,183.57960598285382L208,133.13030184232272L208.33333333333331,186.52345422598032L208.66666666666669,177.349607027494L209,338.78192725548377L209.33333333333334,142.97506919273962L209.66666666666666,30.24630267803485L210,113.3106833237868L210,-117.69908611591046L210.33333333333334,126.02400647676907L210.66666666666666,60.15714528010443L211,91.3961433997521L211.33333333333331,335.55738419752856L211.66666666666669,91.40985430203952L212,51.305073371300324L212.33333333333331,165.23878009502704L212.66666666666666,257.64130372267505L213,178.52030915480393L213.33333333333334,138.0663833618164L213.66666666666666,203.74152697049655L214,-33.88159825251654L214.33333333333334,104.48600710355319L214.66666666666666,56.460242051344665L215,159.43321844247671L215.33333333333331,45.828155517578125L215.66666666666669,359.5257715812096L216,143.09831061730017L216.33333333333334,182.30624184241663L216.66666666666666,339.08314924973706L217.00000000000003,11.029154264009918L217.33333333333334,6.928314795860871L217.66666666666666,191.62385764488806L218,-70.28944983849158L218.33333333333331,52.434695023756774L218.66666666666669,300.5735338651217L219.33333333333334,211.7173024691068L219.66666666666666,14.945144653320312L219.99999999999997,0.21221865140475416L219.99999999999997,-405.44292391263525L220.33333333333334,186.33176275400015L220.66666666666666,65.6409316429725L221,25.501912630521332L221.33333333333331,109.1550785945012L221.66666666666669,300.85422867995044L222,72.35700167142429L222.33333333333334,138.01161810067984L222.66666666666666,50.94224372276892L223,40.87154681865985L223.33333333333334,-62.854536790114196L223.66666666666666,129.52237584040716L224,79.9083137512207L224.33333333333334,43.171844482421875L224.66666666666669,45.62277925931491L225,46.90301190889798L225.33333333333331,306.50915321936975L225.66666666666666,171.95485012347882L226,199.31206981952374L228,-71.419071490948L228.33333333333331,89.42446341881386L228.66666666666669,-6.531247065617492L229,170.39392265906702L229.33333333333334,65.57929787269006L229.66666666666666,45.69807169987604L230.00000000000003,-109.75068018986627L230.66666666666666,254.3277703798734L231,149.33515196580151L231.33333333333331,60.22562144352838L231.66666666666669,83.08493394118088L232,220.7405386704665L232.33333333333334,-80.66136873685394L232.66666666666666,37.54431563157303L232.99999999999997,91.38930100661058L233.33333333333334,206.41839130108173L233.66666666666666,329.3273852421687L234,55.96730246910681L234.33333333333331,172.42039401714618L234.66666666666669,235.69938116807202L235,12.569528432992797L235.33333333333334,251.8494660304143L235.66666666666666,-34.45667266845703L236,49.10746383666992L236.33333333333334,159.37845318134015L236.66666666666666,-110.5517102755033L237,34.99753511868991L237.33333333333334,118.27416053185097L237.66666666666669,65.31915635329025L238,390.27184317662164L238.33333333333331,100.47414486224835L238.66666666666669,205.61054493830756L239,219.09745025634766L239.33333333333334,69.92662018996018L239.66666666666666,179.43768603985126L240,162.86316387469952L240,-923.5735860971304L240.33333333333334,164.38985325739935L240.66666666666666,266.95207713200494L241,66.79792286799506L241.33333333333331,127.03038670466496L241.66666666666669,5.182564368614777L242,-187.15329390305737L242.33333333333334,119.90353804368239L242.66666666666666,-7.674553504356993L243.00000000000003,2.005918062650238L243.33333333333334,57.00107838557318L243.66666666666666,309.80215938274677L244,-36.948714036207946L244.33333333333331,159.52222178532526L244.66666666666669,1.4718980055588986L245,82.47562144352838L245.33333333333334,257.2168403038612L245.66666666666666,61.44422032282904L245.99999999999997,24.536612877478973L246.33333333333334,141.70854744544397L246.66666666666666,16.33493394118088L247,297.698148727417L247.33333333333331,47.450690636268035L247.66666666666669,111.42116429255559L248,-86.74759908822864L248.33333333333331,68.10555120614859L248.66666666666666,307.364922450139L249.33333333333334,228.25077027540942L249.66666666666666,41.337064596322875L250,259.0653049762432L250,-594.4446563720703L250.33333333333334,58.6304558974046L250.66666666666669,84.70062666672928L251,160.53547052236704L251.33333333333331,50.504069401667664L251.66666666666669,-61.225159278282774L252,-37.47583946814905L252.33333333333334,13.349979107196503L252.66666666666666,3.313546400803773L253,106.67677424504207L253.33333333333334,6.277921823354859L253.66666666666666,239.06085043687085L254,54.92668415949896L254.33333333333331,2.6289414625901486L254.66666666666669,330.10784897437463L255.33333333333334,221.69899603036734L255.66666666666666,5.723374586838929L256,47.26584155742938L256.3333333333333,191.87031437800482L256.66666666666663,12.71332315298227L257,80.5792339031513L257.3333333333333,34.20337354219876L257.6666666666667,187.2286124596229L258.33333333333337,192.39062353280875L258.6666666666667,102.76075773972731L259,146.15168938269983L259.3333333333333,88.60977466289813L259.66666666666663,146.5145451472356L260,-3.327231187086852L262,186.27015509972205L262.3333333333333,52.85915844257062L262.6666666666667,49.518242469200715L263,70.6659903893104L263.3333333333333,182.49106480525091L263.6666666666667,3.0465363722581174L264,-60.246174738957336L264.3333333333333,15.342238499568055L264.6666666666667,-22.866128774789672L265,54.52277403611404L265.33333333333337,3.6421379676231993L265.6666666666667,74.78738315288837L266,38.749229724590606L266.3333333333333,51.880147787240844L266.66666666666663,285.7379197340745L267,7.229536790114196L267.3333333333333,205.91176693256085L267.6666666666667,53.263068565955535L268,122.90899394108699L268.33333333333337,177.8699161822979L268.6666666666667,103.78769126305214L269,278.00177163344165L269.3333333333333,160.6518434377817L269.66666666666663,153.01152801513672L270,39.73508277306189L270,-765.2973327636719L270.3333333333333,-65.67516972468451L270.6666666666667,104.32168520413913L271,83.39984072171725L271.33333333333337,-32.087898841271056L271.6666666666667,81.53769126305212L272,109.81231396014874L272.3333333333333,-62.204143817608156L272.66666666666663,124.51100188035231L273,146.22700793926532L273.3333333333333,224.9919891357422L273.6666666666667,73.41814716045673L274,32.66299937321588L274.3333333333333,211.58037625826321L274.6666666666667,38.9888440645658L275,15.417530940129211L275.3333333333333,261.9201498765212L275.6666666666667,81.73622512817383L276,245.03069481482873L276.6666666666667,327.9923873314491L277,132.0417606647198L277.3333333333333,202.76254243117114L277.6666666666667,81.06530497624323L278,162.9863791832557L278.33333333333337,54.515931642972504L278.6666666666667,158.8718549288236L279,86.98723954420822L279.3333333333333,237.6505339695857L279.66666666666663,37.55800041785608L280,84.01599561251126L280,-851.1412658691406L280.3333333333333,148.97916471041165L280.6666666666667,278.6316113105187L281,35.839619563176086L281.33333333333337,66.83216094970703L281.6666666666667,1.2254673884465035L282,155.95537625826321L282.3333333333333,112.22901065532977L282.66666666666663,20.928686875563415L283,77.56006710345929L283.3333333333333,132.10339443500226L283.6666666666667,242.36068593538724L284.33333333333337,-37.59221238356372L284.6666666666667,156.70845735990085" style="fill: none;" fill="none"></path></g></g></g></g></g></g><g transform="translate(30, 178)" clip-path="url(#clip_1)"><clipPath id="clip_1"><rect width="300" height="21"></rect></clipPath><g><g><line x1="0" y1="0" x2="0" y2="5" style="visibility: inherit;" fill="rgb(0, 0, 0)" stroke="rgb(204, 204, 204)" stroke-width="1px"></line><line x1="33.33333333333333" y1="0" x2="33.33333333333333" y2="5" style="visibility: inherit;" fill="rgb(0, 0, 0)" stroke="rgb(204, 204, 204)" stroke-width="1px"></line><line x1="66.66666666666666" y1="0" x2="66.66666666666666" y2="5" style="visibility: inherit;" fill="rgb(0, 0, 0)" stroke="rgb(204, 204, 204)" stroke-width="1px"></line><line x1="100" y1="0" x2="100" y2="5" style="visibility: inherit;" fill="rgb(0, 0, 0)" stroke="rgb(204, 204, 204)" stroke-width="1px"></line><line x1="133.33333333333331" y1="0" x2="133.33333333333331" y2="5" style="visibility: inherit;" fill="rgb(0, 0, 0)" stroke="rgb(204, 204, 204)" stroke-width="1px"></line><line x1="166.66666666666669" y1="0" x2="166.66666666666669" y2="5" style="visibility: inherit;" fill="rgb(0, 0, 0)" stroke="rgb(204, 204, 204)" stroke-width="1px"></line><line x1="200" y1="0" x2="200" y2="5" style="visibility: inherit;" fill="rgb(0, 0, 0)" stroke="rgb(204, 204, 204)" stroke-width="1px"></line><line x1="233.33333333333334" y1="0" x2="233.33333333333334" y2="5" style="visibility: inherit;" fill="rgb(0, 0, 0)" stroke="rgb(204, 204, 204)" stroke-width="1px"></line><line x1="266.66666666666663" y1="0" x2="266.66666666666663" y2="5" style="visibility: inherit;" fill="rgb(0, 0, 0)" stroke="rgb(204, 204, 204)" stroke-width="1px"></line><line x1="300" y1="0" x2="300" y2="5" style="visibility: inherit;" fill="rgb(0, 0, 0)" stroke="rgb(204, 204, 204)" stroke-width="1px"></line></g><g transform="translate(0, 8)"><text x="0" y="0" dx="0em" dy="0.95em" style="text-anchor: middle; visibility: hidden; font-family: &quot;Helvetica Neue&quot;, sans-serif; font-size: 12px; font-weight: 200;" fill="rgb(50, 49, 63)" stroke="none" stroke-width="1px">900</text><text x="33.33333333333333" y="0" dx="0em" dy="0.95em" style="text-anchor: middle; visibility: inherit; font-family: &quot;Helvetica Neue&quot;, sans-serif; font-size: 12px; font-weight: 200;" fill="rgb(50, 49, 63)" stroke="none" stroke-width="1px">1k</text><text x="66.66666666666666" y="0" dx="0em" dy="0.95em" style="text-anchor: middle; visibility: inherit; font-family: &quot;Helvetica Neue&quot;, sans-serif; font-size: 12px; font-weight: 200;" fill="rgb(50, 49, 63)" stroke="none" stroke-width="1px">1.1k</text><text x="100" y="0" dx="0em" dy="0.95em" style="text-anchor: middle; visibility: inherit; font-family: &quot;Helvetica Neue&quot;, sans-serif; font-size: 12px; font-weight: 200;" fill="rgb(50, 49, 63)" stroke="none" stroke-width="1px">1.2k</text><text x="133.33333333333331" y="0" dx="0em" dy="0.95em" style="text-anchor: middle; visibility: inherit; font-family: &quot;Helvetica Neue&quot;, sans-serif; font-size: 12px; font-weight: 200;" fill="rgb(50, 49, 63)" stroke="none" stroke-width="1px">1.3k</text><text x="166.66666666666669" y="0" dx="0em" dy="0.95em" style="text-anchor: middle; visibility: inherit; font-family: &quot;Helvetica Neue&quot;, sans-serif; font-size: 12px; font-weight: 200;" fill="rgb(50, 49, 63)" stroke="none" stroke-width="1px">1.4k</text><text x="200" y="0" dx="0em" dy="0.95em" style="text-anchor: middle; visibility: inherit; font-family: &quot;Helvetica Neue&quot;, sans-serif; font-size: 12px; font-weight: 200;" fill="rgb(50, 49, 63)" stroke="none" stroke-width="1px">1.5k</text><text x="233.33333333333334" y="0" dx="0em" dy="0.95em" style="text-anchor: middle; visibility: inherit; font-family: &quot;Helvetica Neue&quot;, sans-serif; font-size: 12px; font-weight: 200;" fill="rgb(50, 49, 63)" stroke="none" stroke-width="1px">1.6k</text><text x="266.66666666666663" y="0" dx="0em" dy="0.95em" style="text-anchor: middle; visibility: inherit; font-family: &quot;Helvetica Neue&quot;, sans-serif; font-size: 12px; font-weight: 200;" fill="rgb(50, 49, 63)" stroke="none" stroke-width="1px">1.7k</text><text x="300" y="0" dx="0em" dy="0.95em" style="text-anchor: middle; visibility: hidden; font-family: &quot;Helvetica Neue&quot;, sans-serif; font-size: 12px; font-weight: 200;" fill="rgb(50, 49, 63)" stroke="none" stroke-width="1px">1.8k</text></g><line x1="0" y1="0" x2="300" y2="0" fill="rgb(0, 0, 0)" stroke="rgb(204, 204, 204)" stroke-width="1px"></line></g></g></g></g></svg>