<svg viewBox="0 0 330 200" xmlns="http://www.w3.org/2000/svg"><g><g><g><g><g><line x1="40" y1="167.74938880862004" x2="35" y2="167.74938880862004" style="visibility: inherit;" fill="rgb(0, 0, 0)" stroke="rgb(204, 204, 204)" stroke-width="1px"></line><line x1="40" y1="140.29011042193878" x2="35" y2="140.29011042193878" style="visibility: inherit;" fill="rgb(0, 0, 0)" stroke="rgb(204, 204, 204)" stroke-width="1px"></line><line x1="40" y1="112.83083203525753" x2="35" y2="112.83083203525753" style="visibility: inherit;" fill="rgb(0, 0, 0)" stroke="rgb(204, 204, 204)" stroke-width="1px"></line><line x1="40" y1="85.37155364857627" x2="35" y2="85.37155364857627" style="visibility: inherit;" fill="rgb(0, 0, 0)" stroke="rgb(204, 204, 204)" stroke-width="1px"></line><line x1="40" y1="57.91227526189502" x2="35" y2="57.91227526189502" style="visibility: inherit;" fill="rgb(0, 0, 0)" stroke="rgb(204, 204, 204)" stroke-width="1px"></line><line x1="40" y1="30.452996875213756" x2="35" y2="30.452996875213756" style="visibility: inherit;" fill="rgb(0, 0, 0)" stroke="rgb(204, 204, 204)" stroke-width="1px"></line><line x1="40" y1="2.993718488532494" x2="35" y2="2.993718488532494" style="visibility: inherit;" fill="rgb(0, 0, 0)" stroke="rgb(204, 204, 204)" stroke-width="1px"></line></g><g transform="translate(30, 0)"><text x="0" y="167.74938880862004" dx="0em" dy="0.3em" style="text-anchor: end; visibility: inherit; font-family: &quot;Helvetica Neue&quot;, sans-serif; font-size: 12px; font-weight: 200;" fill="rgb(50, 49, 63)" stroke="none" stroke-width="1px">140</text><text x="0" y="140.29011042193878" dx="0em" dy="0.3em" style="text-anchor: end; visibility: inherit; font-family: &quot;Helvetica Neue&quot;, sans-serif; font-size: 12px; font-weight: 200;" fill="rgb(50, 49, 63)" stroke="none" stroke-width="1px">145</text><text x="0" y="112.83083203525753" dx="0em" dy="0.3em" style="text-anchor: end; visibility: inherit; font-family: &quot;Helvetica Neue&quot;, sans-serif; font-size: 12px; font-weight: 200;" fill="rgb(50, 49, 63)" stroke="none" stroke-width="1px">150</text><text x="0" y="85.37155364857627" dx="0em" dy="0.3em" style="text-anchor: end; visibility: inherit; font-family: &quot;Helvetica Neue&quot;, sans-serif; font-size: 12px; font-weight: 200;" fill="rgb(50, 49, 63)" stroke="none" stroke-width="1px">155</text><text x="0" y="57.91227526189502" dx="0em" dy="0.3em" style="text-anchor: end; visibility: inherit; font-family: &quot;Helvetica Neue&quot;, sans-serif; font-size: 12px; font-weight: 200;" fill="rgb(50, 49, 63)" stroke="none" stroke-width="1px">160</text><text x="0" y="30.452996875213756" dx="0em" dy="0.3em" style="text-anchor: end; visibility: inherit; font-family: &quot;Helvetica Neue&quot;, sans-serif; font-size: 12px; font-weight: 200;" fill="rgb(50, 49, 63)" stroke="none" stroke-width="1px">165</text><text x="0" y="2.993718488532494" dx="0em" dy="0.3em" style="text-anchor: end; visibility: hidden; font-family: &quot;Helvetica Neue&quot;, sans-serif; font-size: 12px; font-weight: 200;" fill="rgb(50, 49, 63)" stroke="none" stroke-width="1px">170</text></g><line x1="40" y1="0" x2="40" y2="178" fill="rgb(0, 0, 0)" stroke="rgb(204, 204, 204)" stroke-width="1px"></line></g></g><g transform="translate(40, 0)" clip-path="url(#clip_0)"><clipPath id="clip_0"><rect width="290" height="177"></rect></clipPath><g><g><g><line x1="11.707716450822003" y1="0" x2="11.707716450822003" y2="178" fill="rgb(0, 0, 0)" stroke="rgb(60, 60, 60)" stroke-width="1px" opacity="0.25"></line><line x1="32.856129018296635" y1="0" x2="32.856129018296635" y2="178" fill="rgb(0, 0, 0)" stroke="rgb(60, 60, 60)" stroke-width="1px" opacity="0.25"></line><line x1="54.00454158577127" y1="0" x2="54.00454158577127" y2="178" fill="rgb(0, 0, 0)" stroke="rgb(60, 60, 60)" stroke-width="1px" opacity="0.25"></line><line x1="75.15295415324591" y1="0" x2="75.15295415324591" y2="178" fill="rgb(0, 0, 0)" stroke="rgb(60, 60, 60)" stroke-width="1px" opacity="0.25"></line><line x1="96.30136672072054" y1="0" x2="96.30136672072054" y2="178" fill="rgb(0, 0, 0)" stroke="rgb(60, 60, 60)" stroke-width="1px" opacity="0.25"></line><line x1="117.44977928819519" y1="0" x2="117.44977928819519" y2="178" fill="rgb(0, 0, 0)" stroke="rgb(60, 60, 60)" stroke-width="1px" opacity="0.25"></line><line x1="138.59819185566982" y1="0" x2="138.59819185566982" y2="178" fill="rgb(0, 0, 0)" stroke="rgb(60, 60, 60)" stroke-width="1px" opacity="0.25"></line><line x1="159.74660442314445" y1="0" x2="159.74660442314445" y2="178" fill="rgb(0, 0, 0)" stroke="rgb(60, 60, 60)" stroke-width="1px" opacity="0.25"></line><line x1="180.89501699061907" y1="0" x2="180.89501699061907" y2="178" fill="rgb(0, 0, 0)" stroke="rgb(60, 60, 60)" stroke-width="1px" opacity="0.25"></line><line x1="202.04342955809372" y1="0" x2="202.04342955809372" y2="178" fill="rgb(0, 0, 0)" stroke="rgb(60, 60, 60)" stroke-width="1px" opacity="0.25"></line><line x1="223.19184212556837" y1="0" x2="223.19184212556837" y2="178" fill="rgb(0, 0, 0)" stroke="rgb(60, 60, 60)" stroke-width="1px" opacity="0.25"></line><line x1="244.340254693043" y1="0" x2="244.340254693043" y2="178" fill="rgb(0, 0, 0)" stroke="rgb(60, 60, 60)" stroke-width="1px" opacity="0.25"></line><line x1="265.4886672605176" y1="0" x2="265.4886672605176" y2="178" fill="rgb(0, 0, 0)" stroke="rgb(60, 60, 60)" stroke-width="1px" opacity="0.25"></line><line x1="286.63707982799224" y1="0" x2="286.63707982799224" y2="178" fill="rgb(0, 0, 0)" stroke="rgb(60, 60, 60)" stroke-width="1px" opacity="0.25"></line></g><g><line x1="0" y1="167.74938880862004" x2="290" y2="167.74938880862004" fill="rgb(0, 0, 0)" stroke="rgb(60, 60, 60)" stroke-width="1px" opacity="0.25"></line><line x1="0" y1="140.29011042193878" x2="290" y2="140.29011042193878" fill="rgb(0, 0, 0)" stroke="rgb(60, 60, 60)" stroke-width="1px" opacity="0.25"></line><line x1="0" y1="112.83083203525753" x2="290" y2="112.83083203525753" fill="rgb(0, 0, 0)" stroke="rgb(60, 60, 60)" stroke-width="1px" opacity="0.25"></line><line x1="0" y1="85.37155364857627" x2="290" y2="85.37155364857627" fill="rgb(0, 0, 0)" stroke="rgb(60, 60, 60)" stroke-width="1px" opacity="0.25"></line><line x1="0" y1="57.91227526189502" x2="290" y2="57.91227526189502" fill="rgb(0, 0, 0)" stroke="rgb(60, 60, 60)" stroke-width="1px" opacity="0.25"></line><line x1="0" y1="30.452996875213756" x2="290" y2="30.452996875213756" fill="rgb(0, 0, 0)" stroke="rgb(60, 60, 60)" stroke-width="1px" opacity="0.25"></line><line x1="0" y1="2.993718488532494" x2="290" y2="2.993718488532494" fill="rgb(0, 0, 0)" stroke="rgb(60, 60, 60)" stroke-width="1px" opacity="0.25"></line></g></g></g><g><g><line x1="0" y1="936.6091836356951" x2="290" y2="936.6091836356951" fill="rgb(0, 0, 0)" stroke="rgb(153, 153, 153)" stroke-width="1.5px"></line></g></g><g><g><line x1="75.15295415324591" y1="0" x2="75.15295415324591" y2="178" fill="rgb(0, 0, 0)" stroke="rgb(153, 153, 153)" stroke-width="1.5px"></line></g></g><g><g><g><g><g><path stroke="rgb(255, 112, 67)" stroke-width="2px" d="M79.80560491809032,168.69640206865387L80.22857316943981,138.9601573592851L80.65154142078931,112.69509681792569L81.0745096721388,129.93644084165888L81.4974779234883,135.0349763224774L81.92044617483779,157.16388270097787L82.34341442618728,193.8685512195385L82.76638267753678,166.08832239649675L83.18935092888628,181.51123950145222L86.15012868833271,178.52477498661622L86.57309693968222,156.7296678114977L86.9960651910317,136.1586286051874L87.4190334423812,148.96597101648865L87.84200169373068,166.68936192092332L88.26496994508018,158.09653313274947L88.68793819642968,143.76780384589983L89.11090644777916,133.0463560171906L89.53387469912866,147.5646776659956L89.95684295047816,150.5257035678711L90.37981120182764,140.6309654491979L90.80277945317714,158.67732681737215L91.22574770452663,166.80489214228348L91.64871595587613,165.92857250319304L92.07168420722562,148.6047385460554L92.4946524585751,134.61268508675906L92.9176207099246,141.0045024756965L93.34058896127411,128.14006004245863L93.76355721262358,142.0196701633228L94.18652546397308,134.75395902036672L94.60949371532259,144.74261520326854L95.03246196667206,137.6641041443532L95.45543021802156,131.52147901682648L95.87839846937105,127.95289923445301L96.30136672072054,134.8309289449594L96.72433497207004,144.75498813378974L97.14730322341953,147.7047546630499L97.57027147476903,139.21265011076963L97.99323972611852,148.41879948545676L98.416207977468,144.77725630824852L98.83917622881751,143.02515111760883L99.26214448016698,140.91709470040038L99.68511273151648,139.60732556686293L100.10808098286599,141.37266121981955L100.53104923421546,138.64824354984532L100.95401748556496,126.48379115132803L101.37698573691446,121.60886294922207L101.79995398826395,125.07438133340311L102.22292223961344,116.8949952069519L102.64589049096293,115.20142443942692L103.06885874231243,120.4561065260562L103.49182699366193,118.7438323516342L103.9147952450114,131.54728119310587L104.3377634963609,130.35452356706963L104.76073174771041,126.45811737568118L105.18369999905988,124.38310908580422L105.60666825040938,124.94505667586586L106.02963650175889,127.57388152167275L106.45260475310836,130.51193238370348L106.87557300445786,128.7423942954104L107.29854125580735,118.47483375805707L107.72150950715685,100.71172979226442L108.14447775850634,103.04909491822495L108.56744600985583,97.3296397151601L108.99041426120533,98.16091463776706L109.41338251255482,91.23278189289861L109.8363507639043,88.50973495445778L110.25931901525381,87.10382613916471L110.68228726660328,89.69374104371157L111.10525551795278,93.8756246095868L111.52822376930229,97.52166213571634L111.95119202065177,107.99458999950146L112.37416027200126,107.98217030878038L112.79712852335076,92.77622976105532L113.22009677470025,102.70517840916106L113.64306502604974,95.23512786486377L114.06603327739923,99.00344909766119L114.48900152874873,98.53542487262584L114.91196978009823,92.23725061001143L115.3349380314477,97.06725953236699L115.75790628279721,99.49993788838388L116.18087453414671,100.93612872970583L116.60384278549618,98.26734828440607L117.02681103684569,99.08832845053489L117.44977928819519,89.14069554925841L117.87274753954468,85.54825190817716L118.29571579089416,81.27828306014594L118.71868404224365,89.79889703055967L119.14165229359315,89.28801279124711L119.56462054494264,107.57124425423463L119.98758879629213,106.46740334260149L120.41055704764163,96.78441424402948L120.83352529899113,105.93973046701923L121.25649355034061,106.68284496442566L121.67946180169011,98.53599647906806L122.1024300530396,104.43427487930735L122.52539830438909,95.82449199132081L122.94836655573859,88.85927396053745L123.37133480708808,98.08998650264087L123.79430305843756,107.18938707094675L124.21727130978707,103.95170912398822L124.64023956113655,101.997512126501L125.06320781248606,104.86738123332317L125.48617606383553,101.04579033739094L125.90914431518503,94.36637267409326L126.33211256653453,98.22646477808519L126.75508081788401,93.57647336124548L127.17804906923351,82.514462159567L127.60101732058301,85.21758991857378L128.02398557193249,86.93265367677961L128.446953823282,84.96578874864886L128.8699220746315,81.17653956683266L129.29289032598098,83.89542353873918L129.71585857733047,74.40078097303059L130.13882682867995,81.69032462299052L130.56179508002944,86.01909366980296L130.98476333137896,84.3008980026478L131.40773158272845,74.68804282227693L131.83069983407793,73.45508890528745L132.25366808542742,79.20441814264187L132.6766363367769,71.06152064719599L133.09960458812643,62.72150604637338L133.52257283947588,69.51875772372158L133.9455410908254,71.33328340679022L134.3685093421749,73.75218855508717L134.79147759352438,84.34936925963375L135.21444584487386,88.44107913343579L135.63741409622338,93.88554601666276L136.06038234757284,89.90416487304888L136.48335059892236,88.15374829142583L136.90631885027184,83.08188804105917L137.32928710162133,83.54726889451238L137.75225535297082,77.02947330241386L138.1752236043203,90.18075548367902L138.59819185566982,86.3304177551993L139.0211601070193,78.41380347822287L139.4441283583688,76.8308921897968L139.8670966097183,79.93557515789041L140.2900648610678,75.65072064691373L140.71303311241726,87.95726872879989L141.13600136376678,97.02314601693067L141.55896961511627,96.63748299974306L141.98193786646576,89.27877776236089L142.40490611781524,90.53688421330303L142.82787436916473,94.61710809790401L143.25084262051425,86.68830397602824L143.67381087186374,87.4366427062423L144.09677912321322,86.05163602559297L144.5197473745627,80.45940851005908L144.9427156259122,73.14601681295845L145.3656838772617,79.89615070160454L145.78865212861118,75.50745875029156L146.2116203799607,74.05559004239092L146.63458863131018,68.84884817422545L147.05755688265967,65.87547232803593L147.48052513400918,67.28603882126299L147.90349338535864,77.67403280254784L148.32646163670813,65.72000592088935L148.74942988805765,60.41304119058526L149.17239813940714,69.31281119921688L149.59536639075662,66.77079461798891L150.0183346421061,66.00038736727787L150.44130289345563,81.7493821833708L150.8642711448051,83.34645394902242L151.28723939615458,83.851562942345L151.7102076475041,77.73322780038933L152.13317589885358,73.13826468473808L152.55614415020307,74.8934728420627L152.97911240155258,81.51159570582865L153.40208065290207,76.07451945966912L153.82504890425153,77.30922404249205L154.24801715560105,68.19941020202832L154.67098540695054,79.67667610478138L155.09395365830002,90.30444847888184L155.51692190964954,78.39394525543533L155.93989016099903,70.5150380423792L156.3628584123485,64.7425209414155L156.785826663698,71.60664866040332L157.2087949150475,75.26749121666053L157.63176316639698,78.34914698237249L158.05473141774647,80.27349193897535L158.47769966909598,83.9926601920801L158.90066792044547,80.76692851496846L159.32363617179493,87.58124166089453L159.74660442314445,104.35022782815527L160.16957267449393,103.59030252294843L160.59254092584342,95.39756008167097L161.01550917719294,100.24601580515045L161.43847742854243,89.96386947328878L161.86144567989192,91.8880140347005L162.28441393124143,93.09055249989233L162.7073821825909,86.30928424978771L163.13035043394038,80.47708395920382L163.5533186852899,89.3048612859332L163.97628693663938,89.49319745463589L164.39925518798887,93.25205874123033L164.8222234393384,88.21942776690426L165.24519169068785,87.60463624815897L165.66815994203733,81.55945375553513L166.09112819338682,74.93446166020601L166.51409644473634,65.96344419551905L166.93706469608583,64.8271398175955L167.36003294743531,67.36972795856963L167.78300119878483,79.67978480322024L168.2059694501343,85.99537000195754L168.62893770148378,96.25828868726096L169.0519059528333,100.08659932162158L169.47487420418278,100.16893497519153L169.89784245553227,97.77677127662555L170.3208107068818,83.05509116271433L170.74377895823127,80.49882953234564L171.16674720958073,79.88088411951301L171.58971546093025,86.50159277227428L172.01268371227974,86.69221376954977L172.43565196362923,89.88598161439752L172.8586202149787,78.52549113417469L173.28158846632823,71.63507750498214L173.70455671767772,80.95807921594258L174.12752496902718,79.35382990550256L174.5504932203767,66.95153793797573L174.97346147172618,65.09555268411687L175.39642972307567,61.15659617566796L175.8193979744252,70.01379048314507L176.24236622577467,79.401546675184L176.66533447712413,72.28663201152531L177.08830272847365,79.52098329278465L177.51127097982314,87.21549855468359L177.93423923117263,89.60929358746354L178.35720748252214,85.29534880749523L178.78017573387163,85.14210426201588L179.20314398522112,88.30530707817536L179.62611223657063,88.35274208367348L180.0490804879201,91.31460924083429L180.47204873926958,86.31576097283613L180.89501699061907,80.15559271332113L181.3179852419686,87.02049458507278L181.74095349331807,97.224564360087L182.16392174466756,95.7793322343857L182.58688999601708,100.93348865769322L183.00985824736654,109.77443760841625L183.43282649871603,99.43745872154255L183.85579475006554,95.7549063385764L184.27876300141503,90.31722168845408L184.70173125276452,89.80388778254323L185.12469950411403,86.33130427970721L185.5476677554635,80.40170737833932L185.97063600681298,75.57400368545005L186.3936042581625,75.11971167149737L186.81657250951199,73.7018191066611L187.23954076086147,77.16281246335244L187.662509012211,82.13906060082346L188.08547726356048,95.04172795950201L188.50844551490994,95.4408069599458L188.93141376625942,111.49283803214456L189.35438201760894,108.57138811629736L189.77735026895843,107.51169483902633L190.20031852030792,99.54535379793542L190.62328677165743,87.79922897237282L191.04625502300692,86.42505882736637L191.46922327435638,78.81040639542167L191.8921915257059,75.87515184357429L192.31515977705538,75.12177766383195L192.73812802840487,82.6211529651252L193.1610962797544,65.89779743767596L193.58406453110388,61.45897403100433L194.00703278245336,52.42212628599525L194.43000103380285,59.461225664684804L194.85296928515234,67.21687003230174L195.27593753650183,62.32293914041004L195.69890578785132,68.74859736958996L196.12187403920083,71.1976176610737L196.54484229055032,76.4657324871003L196.96781054189978,82.54680517221877L197.3907787932493,84.25974208803282L197.81374704459878,76.81923884418846L198.23671529594827,63.96756941616299L198.6596835472978,76.7256942979691L199.08265179864728,69.85374145349297L199.50562004999676,77.7652853187353L199.92858830134628,66.79118641055496L200.35155655269574,74.68979896721008L200.77452480404523,66.40124305256937L201.19749305539474,85.44667347560686L201.62046130674423,92.40453719226491L202.04342955809372,84.06419608327259L202.46639780944324,82.03673417954023L202.88936606079272,91.71720628190931L203.31233431214218,92.92066912932376L203.73530256349167,92.80012494588348L204.1582708148412,88.39385761717095L204.58123906619068,87.94220910012652L205.00420731754016,81.57602631625721L205.42717556888968,71.56312255731093L205.85014382023914,64.00327160506636L206.27311207158863,59.42343879629955L206.69608032293814,63.76074846903241L207.11904857428763,67.40775653425655L207.54201682563712,74.0428789659781L207.96498507698664,83.96721626031778L208.38795332833612,86.29178961058903L208.81092157968558,84.7649264206691L209.2338898310351,80.56866272344L209.6568580823846,93.50170363423348L210.07982633373408,91.58034702645075L210.5027945850836,90.55621030446177L210.92576283643308,89.56631016758327L211.34873108778257,93.34296570210863L211.77169933913203,93.60793876238016L212.19466759048154,103.93883915417155L212.61763584183103,103.80364893838444L213.04060409318052,100.84395394468866L213.46357234453004,99.66497340844407L213.88654059587952,94.18604443788486L214.309508847229,91.04233022072322L214.7324770985785,89.32873276318652L215.155445349928,95.61374474676364L215.57841360127748,85.04760568866035L216.001381852627,81.89719882262126L216.42435010397648,80.26718820475092L216.84731835532597,80.9393279386305L217.27028660667548,93.22726093531483L217.69325485802494,91.95663753844316L218.11622310937443,104.62991175876185L218.53919136072392,113.25701557604462L218.96215961207344,116.19418982971357L219.38512786342292,113.06163757315782L219.8080961147724,106.27892846402864L220.23106436612193,97.45135050707499L220.6540326174714,98.29665803769689L221.07700086882087,103.64404576562784L221.4999691201704,101.2137196899361L221.92293737151988,102.47346578295635L222.34590562286937,100.18999525053195L222.76887387421888,93.2941176986168L223.19184212556837,97.8692510698057L223.61481037691783,93.33327445949605L224.03777862826735,96.43696454039583L224.46074687961683,90.52731054700212L224.88371513096632,83.54610796423492L225.30668338231584,84.66972046793133L225.72965163366533,83.40592509519267L226.1526198850148,81.23255266331672L226.57558813636427,87.30749080994735L226.9985563877138,88.91023588322531L227.42152463906328,98.69897076975118L227.84449289041277,97.90785692856427L228.26746114176228,97.17329528508303L228.69042939311177,91.2185040233805L229.11339764446123,95.7553676433969L229.53636589581075,83.39740960521364L229.95933414716023,79.82298537985673L230.38230239850972,79.29748688921829L230.80527064985924,74.2290797027038L231.22823890120873,74.31563784264839L231.65120715255821,71.10897305612203L232.0741754039077,72.0531503999094L232.4971436552572,88.62387134463428L232.92011190660668,85.5300058545982L233.3430801579562,86.24552912430349L233.76604840930568,88.14393157215022L234.18901666065517,89.1646971313204L234.61198491200466,96.12056632283817L235.03495316335415,100.59192430017724L235.45792141470363,98.67927183877318L235.88088966605312,97.01108640261954L236.30385791740264,91.61478840924903L236.72682616875213,96.31316779382625L237.1497944201016,90.39389967995356L237.57276267145113,90.65533697182286L237.9957309228006,90.1549157017329L238.41869917415008,85.70364694157428L238.8416674254996,86.50282403855734L239.26463567684908,76.91115968214673L239.68760392819857,71.81184252479702L240.1105721795481,79.54019324975087L240.53354043089757,77.80643726257348L240.95650868224703,88.7783160362206L241.37947693359652,92.80997029586668L241.80244518494604,97.225509547451L242.22541343629553,98.07565820090477L242.648381687645,96.49573273577838L243.07134993899453,96.12033110819051L243.49431819034402,95.53424809901223L243.91728644169348,89.31110693885738L244.340254693043,95.91415470125055L244.76322294439248,88.37990204424781L245.18619119574197,89.21501574772142L245.60915944709149,96.49151086845144L246.03212769844097,94.70839019923444L246.45509594979043,92.51635447432726L246.87806420113995,91.63020810710078L247.30103245248944,93.00720918845205L247.72400070383893,79.11621504742956L248.14696895518844,83.23975994433604L248.56993720653793,79.43115088025573L248.99290545788742,74.82284975932122L249.41587370923688,75.06507738447323L249.8388419605864,78.54288078268765L250.26181021193588,75.05187365420973L250.68477846328537,70.12876755309526L251.10774671463489,64.32329826090509L251.53071496598437,73.27835588243403L251.95368321733386,69.81307477771307L252.37665146868335,66.98814354940693L252.79961972003284,61.63565661254279L253.22258797138232,68.20864340991882L253.64555622273184,75.79815977245867L254.06852447408133,68.96186187898472L254.49149272543082,63.34777844301205L254.91446097678033,68.26996045228161L255.3374292281298,56.92010178868138L255.76039747947928,51.13353313624985L256.1833657308288,44.613916352879755L256.6063339821783,30.516795498376297L257.02930223352774,28.8781212802962L257.45227048487726,26.391292840597146L257.8752387362268,28.335909932790145L258.29820698757624,36.41598644120606L258.72117523892575,25.45047818534252L259.14414349027527,30.95351352561289L259.56711174162473,48.02639133760567L259.9900799929742,49.558642934498664L260.4130482443237,48.79836719567868L260.8360164956732,54.66780463296753L261.2589847470227,56.01448142910327L261.6819529983722,50.77485137877868L262.1049212497217,64.01308895959143L262.5278895010712,63.11150159096137L262.9508577524207,62.79343264134705L263.37382600377015,65.84077606554074L263.79679425511966,59.09184734787732L264.2197625064691,55.758286197543384L264.64273075781864,51.22419496733339L265.06569900916816,63.041207319734L265.4886672605176,65.14790939828191L265.91163551186713,57.927312637765795L266.3346037632166,50.47313287541952L266.7575720145661,49.96206524712039L267.1805402659156,42.90186484803394L267.6035085172651,37.50244026800581L268.0264767686146,40.41765500033122L268.44944501996406,46.91996233274938L268.8724132713136,39.69264273937219L269.29538152266304,44.29408981168052L269.71834977401255,39.75899116416744L270.14131802536207,35.41762220807831L270.5642862767115,32.02750667138628L270.98725452806104,33.03686235050628L271.4102227794105,42.6663165459226L271.83319103076,38.57147101578559L272.2561592821095,46.002076217898235L272.679127533459,56.074992845287625" style="fill: none;" fill="none"></path></g></g></g></g><g opacity="0.2"><g><g><g><path stroke="rgb(255, 112, 67)" stroke-width="2px" d="M79.80560491809032,168.69640206865387L80.22857316943981,110.53230741712923L80.65154142078931,63.58111456945794L81.0745096721388,177.24080637206322L81.4974779234883,153.28231782266835L81.92044617483779,254.0323862054098L82.34341442618728,382.5619711106806L82.76638267753678,3.0000872176505027L83.18935092888628,282.8143490710198L83.61231918023576,154.4338846060844L84.03528743158526,352.3227005644566L84.45825568293475,354.8543541879308L84.88122393428424,49.11052402267785L85.30419218563374,126.76762252306798L85.72716043698323,203.108070077378L86.15012868833271,31.226713663983986L86.57309693968222,-86.30818220879246L87.84200169373068,387.9936590576652L88.26496994508018,47.30783848601317L88.68793819642968,-46.54435156799153L91.22574770452663,290.9950235226305L91.64871595587613,152.28971787000037L92.07168420722562,-125.71787799100548L93.76355721262358,375.27438521926905L94.18652546397308,11.076138533684514L94.60949371532259,316.8386558909548L95.03246196667206,14.306424981590368L95.45543021802156,23.311305160044924L95.87839846937105,64.44231758453337L96.30136672072054,258.42970036465636L97.99323972611852,319.5516506961575L98.416207977468,76.58186947505638L98.83917622881751,109.98208274096056L99.26214448016698,100.89507947651067L99.68511273151648,114.58298673431489L100.10808098286599,175.30462892112246L100.53104923421546,85.9811080644232L100.95401748556496,-109.95586001741526L101.37698573691446,26.363937585185397L101.79995398826395,193.11653968003677L102.22292223961344,-44.45281064619837L102.64589049096293,81.64467392760075L103.06885874231243,225.01574405170805L103.49182699366193,84.53456856396271L103.9147952450114,388.3304056097797L104.3377634963609,106.34511941924318L104.76073174771041,47.752141141061344L105.18369999905988,82.3292285087189L105.60666825040938,136.37007385073957L106.02963650175889,181.18229550450206L106.45260475310836,190.59879670174135L106.87557300445786,92.45374802593217L107.29854125580735,-92.63735816701166L107.72150950715685,-265.4284372554722L108.14447775850634,151.34245321276453L108.56744600985583,-21.110831835239793L108.99041426120533,115.41251370193501L109.41338251255482,-52.84495204424698L109.8363507639043,31.769564022226547L110.25931901525381,57.753811225550976L110.68228726660328,143.85827470936826L111.10525551795278,181.48372074973182L111.52822376930229,174.02887191990533L111.95119202065177,328.09760528231266L112.37416027200126,107.72076490873219L112.79712852335076,-227.72790725077004L114.06603327739923,178.73963649054522L114.48900152874873,88.62052728849942L114.91196978009823,-41.33732892055127L115.3349380314477,199.6145707589504L115.75790628279721,151.20192217683172L116.18087453414671,131.48961616873174L116.60384278549618,41.438551809367794L117.02681103684569,116.58586824286002L117.44977928819519,-123.05440843460201L117.87274753954468,8.85445766030898L118.29571579089416,-9.950891041946704L118.71868404224365,271.98009335295205L119.14165229359315,78.35690131949816L119.56462054494264,499.033708216087L119.98758879629213,82.81769327225639L120.41055704764163,-110.80172780316713L120.83352529899113,302.329936768534L121.25649355034061,122.63238994693408L121.67946180169011,-76.41536711278033L123.79430305843756,303.0595333483486L124.21727130978707,34.22998843845991L124.64023956113655,59.89831315790438L125.06320781248606,166.71614630829112L125.48617606383553,18.656769763591598L125.90914431518503,-49.6835484296964L127.17804906923351,-156.27646488333676L127.60101732058301,143.58559254423685L128.02398557193249,123.97577279549637L128.446953823282,42.472967496639484L128.8699220746315,-0.7081891103750593L129.29289032598098,142.66388660254034L129.71585857733047,-130.87210722602015L130.56179508002944,179.64650999732217L130.98476333137896,47.13043586044981L131.40773158272845,-133.31066008567717L131.83069983407793,46.77211104849471L132.25366808542742,203.65025004308183L133.52257283947588,216.71754140814997L133.9455410908254,110.63370428861326L134.3685093421749,126.15002339675621L134.79147759352438,313.93388692013957L135.21444584487386,177.09792896224485L135.63741409622338,211.86750278758737L136.06038234757284,3.617351147692915L136.48335059892236,50.21348734703545L136.90631885027184,-26.862297023202075L137.32928710162133,93.63648806239951L137.75225535297082,-64.28670910101181L138.1752236043203,375.3479189008618L138.59819185566982,2.833829868043665L139.0211601070193,-93.27666125176506L139.4441283583688,42.49894520751556L139.8670966097183,147.27861744200612L140.2900648610678,-17.29805807023851L141.13600136376678,293.7109931947238L141.55896961511627,88.26982819167246L141.98193786646576,-70.39147115688866L142.40490611781524,117.83707211734591L142.82787436916473,183.16062388631593L143.25084262051425,-85.38119692585343L143.67381087186374,103.677795105742L144.09677912321322,55.99143304027787L144.5197473745627,-40.920093364254626L145.78865212861118,-19.761583051963555L146.2116203799607,42.53740897942561L146.63458863131018,-44.18700000458898L147.05755688265967,1.3225974875950044L147.48052513400918,97.91091088938876L147.90349338535864,303.21565101080705L149.17239813940714,262.5599049967497L149.59536639075662,11.572648007686837L150.0183346421061,49.27108303570543L150.44130289345563,423.7455674499263L150.8642711448051,118.02838538808808L151.28723939615458,94.82073648207901L151.7102076475041,-55.138197321132765L152.13317589885358,-26.65229656044258L152.55614415020307,113.01275981045737L152.97911240155258,225.24552109436024L153.40208065290207,-42.011324819184324L153.82504890425153,104.12578491975323L154.24801715560105,-129.66003751598305L156.785826663698,220.70403063975152L157.2087949150475,154.78651108146025L157.63176316639698,145.28813819542765L158.05473141774647,122.07412056030057L158.47769966909598,164.78130964242783L158.90066792044547,10.69610976328778L159.32363617179493,235.60631208194476L159.74660442314445,468.6207641027964L160.16957267449393,87.08239540743395L160.59254092584342,-82.57543655310303L161.43847742854243,-133.40133067654142L161.86144567989192,133.68766570511679L162.28441393124143,119.21439358818178L162.7073821825909,-61.00740019871074L163.5533186852899,281.08247374625927L163.97628693663938,93.58470023878205L164.39925518798887,174.9117788934224L164.8222234393384,-21.1130106109907L165.24519169068785,74.24840064584642L165.66815994203733,-49.771705048540355L166.51409644473634,-128.93308060678976L166.93706469608583,40.1406718543723L167.36003294743531,122.60825581553954L167.78300119878483,347.12070586105693L169.0519059528333,183.25908779044298L169.47487420418278,101.95773544947669L169.89784245553227,45.80515361043342L170.3208107068818,-236.7858322388522L170.74377895823127,24.961727791348892L171.16674720958073,66.45542257929425L171.58971546093025,230.3432697579863L172.01268371227974,90.83366065700606L172.43565196362923,159.2742025348353L172.8586202149787,-168.294591925281L173.70455671767772,283.5121858043117L174.12752496902718,44.499396543107764L174.5504932203767,-202.50514217238396L174.97346147172618,24.771671506616855L175.39642972307567,-24.422906172871592L177.51127097982314,254.39121381176895L177.93423923117263,141.61840943837947L178.35720748252214,-8.43228434357195L178.78017573387163,81.81260725855445L179.20314398522112,157.0313204974222L179.62611223657063,89.38335019851517L180.0490804879201,155.666401288553L180.47204873926958,-22.293152876370414L181.74095349331807,318.92684485005424L182.16392174466756,64.37896548962269L182.58688999601708,212.91725370418268L183.43282649871603,-125.15323987525397L183.85579475006554,15.744333178114601L184.27876300141503,-27.827075685512426L184.70173125276452,78.6507008495998L185.12469950411403,10.882562688124096L185.5476677554635,-48.43058477479633L185.97063600681298,-29.317525897260225L186.3936042581625,65.24930260303843L186.81657250951199,42.89523099697669L187.23954076086147,152.3599414884331L187.662509012211,190.25823729206277L188.08547726356048,375.37871505811006L188.50844551490994,104.11162287737241L188.93141376625942,460.2565277941727L189.35438201760894,45.09680009419009L189.77735026895843,84.48764108625109L190.20031852030792,-73.54013731320325L190.62328677165743,-167.41009276948444L191.04625502300692,56.56830581986135L191.46922327435638,-86.63407678168613L191.8921915257059,12.100498332875134L192.31515977705538,58.75311510360632L192.73812802840487,245.56113848779015L195.69890578785132,208.36000902491364L196.12187403920083,124.40792458577991L196.54484229055032,190.9270376485206L196.96781054189978,214.67141958085628L197.3907787932493,121.47705220548762L197.81374704459878,-84.8420337265739L202.04342955809372,-97.14826196204052L202.46639780944324,37.985611239533796L202.88936606079272,302.04703111718686L203.31233431214218,119.0685832110064L203.73530256349167,90.18103352054526L204.1582708148412,-7.342142276517706L204.58123906619068,78.12913545446214L205.00420731754016,-56.74353605420663L206.27311207158863,-40.08369487311245L206.69608032293814,157.9985293326855L207.11904857428763,146.6471914695829L207.54201682563712,218.20581284414686L207.96498507698664,299.5957407992938L208.38795332833612,136.79837088392537L208.81092157968558,51.590389822534604L209.2338898310351,-10.604607566282937L209.6568580823846,374.5011293253692L210.07982633373408,49.83454796451417L210.5027945850836,68.3045327992665L210.92576283643308,68.0584987375499L211.34873108778257,175.3993218672191L211.77169933913203,99.36507610497738L212.19466759048154,328.4009579060913L212.61763584183103,100.86633639641231L213.04060409318052,36.53789855213054L213.46357234453004,74.04895886557205L213.88654059587952,-24.856063551963246L214.309508847229,22.738035740357162L214.7324770985785,52.096955184618L215.155445349928,232.16983802884351L215.57841360127748,-144.5256568662141L216.001381852627,13.447484541333154L216.42435010397648,44.851520224079565L216.84731835532597,95.5430844425685L217.27028660667548,360.21041347663913L217.69325485802494,64.34946821791824L218.11622310937443,379.98548498617834L218.96215961207344,180.01095214119326L219.38512786342292,44.9998445732752L219.8080961147724,-41.090792064430616L220.23106436612193,-94.34778093053262L220.6540326174714,116.66287958574748L221.07700086882087,219.8281627878912L221.4999691201704,48.409377226225956L221.92293737151988,129.84430528053565L222.34590562286937,50.57642110769439L222.76887387421888,-56.534457381187906L223.61481037691783,-5.221104083020094L224.03777862826735,163.87167076642862L224.46074687961683,-37.87332687382809L224.88371513096632,-68.13635445564358L225.30668338231584,109.08275115024443L225.72965163366533,55.94710333365387L226.1526198850148,34.01110527456217L226.57558813636427,219.29930687389478L226.9985563877138,123.73350969181016L227.42152463906328,311.3814511279645L227.84449289041277,80.7191132288065L228.26746114176228,81.21327632892327L228.69042939311177,-38.162852651495285L229.53636589581075,-185.10728260520733L229.95933414716023,2.160504361949336L230.38230239850972,67.8798391259764L230.80527064985924,-35.89357390786941L231.22823890120873,76.19630996621508L231.65120715255821,1.4368994154497443L232.0741754039077,92.56754715938283L232.4971436552572,448.66041285536363L232.92011190660668,18.308752236919588L233.3430801579562,101.79189709520654L233.76604840930568,129.39103612528186L234.18901666065517,111.34314719273203L234.61198491200466,247.25262266209177L235.03495316335415,197.74233199639173L235.45792141470363,57.12255285126244L235.88088966605312,60.765968701165164L236.30385791740264,-25.63204291555172L237.1497944201016,-38.21564606392087L237.57276267145113,96.3356560214907L237.9957309228006,79.28212682202303L238.41869917415008,-11.010278851286358L238.8416674254996,103.86676200259859L239.26463567684908,-131.4895387541972L240.1105721795481,247.4561705966659L240.53354043089757,40.13664949913988L240.95650868224703,327.16730993621354L241.80244518494604,193.163131961479L242.22541343629553,116.54706927468061L242.648381687645,62.16826229406898L243.07134993899453,87.9638777968062L243.49431819034402,82.80026306624922L243.91728644169348,-45.900774730803676L244.76322294439248,-75.31885631660808L245.18619119574197,107.35975852662213L245.60915944709149,254.5899014004372L246.03212769844097,55.96604192287319L246.45509594979043,44.88939740251823L246.87806420113995,72.37666467769175L247.30103245248944,122.92568668263166L247.72400070383893,-222.69719784101784L248.14696895518844,172.83314302799994L248.56993720653793,-3.319535646891694L248.99290545788742,-25.302963978099L249.41587370923688,80.3280229815206L249.8388419605864,154.10606265464185L250.26181021193588,-0.7981893087005574L251.95368321733386,-5.47803202349121L252.37665146868335,5.610092969089635L252.79961972003284,-54.659285651272256L254.49149272543082,-58.630942447954254L254.91446097678033,175.21555051253773L255.3374292281298,-189.68137089701213L257.45227048487726,-27.640706559743478L257.8752387362268,70.5871355945998L258.29820698757624,211.97401140217926L258.72117523892575,-212.80010899257115L259.14414349027527,150.5194625723971L259.56711174162473,418.97346196199186L259.9900799929742,82.85029110945248L260.4130482443237,32.27964894513832L260.8360164956732,182.19467203706276L261.2589847470227,85.27409533325734L261.6819529983722,-63.06801926465465L262.1049212497217,351.64388621945136L262.5278895010712,43.522467016032806L262.9508577524207,55.88266185086772L263.37382600377015,132.05123751805897L263.79679425511966,-87.54396705488739L265.06569900916816,319.7926568138335L265.4886672605176,110.92079989332751L265.91163551186713,-98.95656203621712L266.3346037632166,-111.48586338894853L266.7575720145661,38.85795953056575L267.1805402659156,-110.49703439431102L267.6035085172651,-79.81232990562972L268.0264767686146,103.75732042064972L268.44944501996406,188.19736682891687L268.8724132713136,-117.33730086425004L269.29538152266304,144.2709851160284L269.71834977401255,-58.77633382979292L270.5642862767115,-41.630458058114186L270.98725452806104,54.967408437356596L271.4102227794105,251.88809377072477" style="fill: none;" fill="none"></path></g></g></g></g></g></g><g transform="translate(40, 178)" clip-path="url(#clip_1)"><clipPath id="clip_1"><rect width="290" height="21"></rect></clipPath><g><g><line x1="11.707716450822003" y1="0" x2="11.707716450822003" y2="5" style="visibility: inherit;" fill="rgb(0, 0, 0)" stroke="rgb(204, 204, 204)" stroke-width="1px"></line><line x1="32.856129018296635" y1="0" x2="32.856129018296635" y2="5" style="visibility: inherit;" fill="rgb(0, 0, 0)" stroke="rgb(204, 204, 204)" stroke-width="1px"></line><line x1="54.00454158577127" y1="0" x2="54.00454158577127" y2="5" style="visibility: inherit;" fill="rgb(0, 0, 0)" stroke="rgb(204, 204, 204)" stroke-width="1px"></line><line x1="75.15295415324591" y1="0" x2="75.15295415324591" y2="5" style="visibility: inherit;" fill="rgb(0, 0, 0)" stroke="rgb(204, 204, 204)" stroke-width="1px"></line><line x1="96.30136672072054" y1="0" x2="96.30136672072054" y2="5" style="visibility: inherit;" fill="rgb(0, 0, 0)" stroke="rgb(204, 204, 204)" stroke-width="1px"></line><line x1="117.44977928819519" y1="0" x2="117.44977928819519" y2="5" style="visibility: inherit;" fill="rgb(0, 0, 0)" stroke="rgb(204, 204, 204)" stroke-width="1px"></line><line x1="138.59819185566982" y1="0" x2="138.59819185566982" y2="5" style="visibility: inherit;" fill="rgb(0, 0, 0)" stroke="rgb(204, 204, 204)" stroke-width="1px"></line><line x1="159.74660442314445" y1="0" x2="159.74660442314445" y2="5" style="visibility: inherit;" fill="rgb(0, 0, 0)" stroke="rgb(204, 204, 204)" stroke-width="1px"></line><line x1="180.89501699061907" y1="0" x2="180.89501699061907" y2="5" style="visibility: inherit;" fill="rgb(0, 0, 0)" stroke="rgb(204, 204, 204)" stroke-width="1px"></line><line x1="202.04342955809372" y1="0" x2="202.04342955809372" y2="5" style="visibility: inherit;" fill="rgb(0, 0, 0)" stroke="rgb(204, 204, 204)" stroke-width="1px"></line><line x1="223.19184212556837" y1="0" x2="223.19184212556837" y2="5" style="visibility: inherit;" fill="rgb(0, 0, 0)" stroke="rgb(204, 204, 204)" stroke-width="1px"></line><line x1="244.340254693043" y1="0" x2="244.340254693043" y2="5" style="visibility: inherit;" fill="rgb(0, 0, 0)" stroke="rgb(204, 204, 204)" stroke-width="1px"></line><line x1="265.4886672605176" y1="0" x2="265.4886672605176" y2="5" style="visibility: inherit;" fill="rgb(0, 0, 0)" stroke="rgb(204, 204, 204)" stroke-width="1px"></line><line x1="286.63707982799224" y1="0" x2="286.63707982799224" y2="5" style="visibility: inherit;" fill="rgb(0, 0, 0)" stroke="rgb(204, 204, 204)" stroke-width="1px"></line></g><g transform="translate(0, 8)"><text x="11.707716450822003" y="0" dx="0em" dy="0.95em" style="text-anchor: middle; visibility: inherit; font-family: &quot;Helvetica Neue&quot;, sans-serif; font-size: 12px; font-weight: 200;" fill="rgb(50, 49, 63)" stroke="none" stroke-width="1px">-150</text><text x="32.856129018296635" y="0" dx="0em" dy="0.95em" style="text-anchor: middle; visibility: hidden; font-family: &quot;Helvetica Neue&quot;, sans-serif; font-size: 12px; font-weight: 200;" fill="rgb(50, 49, 63)" stroke="none" stroke-width="1px">-100</text><text x="54.00454158577127" y="0" dx="0em" dy="0.95em" style="text-anchor: middle; visibility: inherit; font-family: &quot;Helvetica Neue&quot;, sans-serif; font-size: 12px; font-weight: 200;" fill="rgb(50, 49, 63)" stroke="none" stroke-width="1px">-50</text><text x="75.15295415324591" y="0" dx="0em" dy="0.95em" style="text-anchor: middle; visibility: hidden; font-family: &quot;Helvetica Neue&quot;, sans-serif; font-size: 12px; font-weight: 200;" fill="rgb(50, 49, 63)" stroke="none" stroke-width="1px">0</text><text x="96.30136672072054" y="0" dx="0em" dy="0.95em" style="text-anchor: middle; visibility: inherit; font-family: &quot;Helvetica Neue&quot;, sans-serif; font-size: 12px; font-weight: 200;" fill="rgb(50, 49, 63)" stroke="none" stroke-width="1px">50</text><text x="117.44977928819519" y="0" dx="0em" dy="0.95em" style="text-anchor: middle; visibility: hidden; font-family: &quot;Helvetica Neue&quot;, sans-serif; font-size: 12px; font-weight: 200;" fill="rgb(50, 49, 63)" stroke="none" stroke-width="1px">100</text><text x="138.59819185566982" y="0" dx="0em" dy="0.95em" style="text-anchor: middle; visibility: inherit; font-family: &quot;Helvetica Neue&quot;, sans-serif; font-size: 12px; font-weight: 200;" fill="rgb(50, 49, 63)" stroke="none" stroke-width="1px">150</text><text x="159.74660442314445" y="0" dx="0em" dy="0.95em" style="text-anchor: middle; visibility: hidden; font-family: &quot;Helvetica Neue&quot;, sans-serif; font-size: 12px; font-weight: 200;" fill="rgb(50, 49, 63)" stroke="none" stroke-width="1px">200</text><text x="180.89501699061907" y="0" dx="0em" dy="0.95em" style="text-anchor: middle; visibility: inherit; font-family: &quot;Helvetica Neue&quot;, sans-serif; font-size: 12px; font-weight: 200;" fill="rgb(50, 49, 63)" stroke="none" stroke-width="1px">250</text><text x="202.04342955809372" y="0" dx="0em" dy="0.95em" style="text-anchor: middle; visibility: hidden; font-family: &quot;Helvetica Neue&quot;, sans-serif; font-size: 12px; font-weight: 200;" fill="rgb(50, 49, 63)" stroke="none" stroke-width="1px">300</text><text x="223.19184212556837" y="0" dx="0em" dy="0.95em" style="text-anchor: middle; visibility: inherit; font-family: &quot;Helvetica Neue&quot;, sans-serif; font-size: 12px; font-weight: 200;" fill="rgb(50, 49, 63)" stroke="none" stroke-width="1px">350</text><text x="244.340254693043" y="0" dx="0em" dy="0.95em" style="text-anchor: middle; visibility: hidden; font-family: &quot;Helvetica Neue&quot;, sans-serif; font-size: 12px; font-weight: 200;" fill="rgb(50, 49, 63)" stroke="none" stroke-width="1px">400</text><text x="265.4886672605176" y="0" dx="0em" dy="0.95em" style="text-anchor: middle; visibility: inherit; font-family: &quot;Helvetica Neue&quot;, sans-serif; font-size: 12px; font-weight: 200;" fill="rgb(50, 49, 63)" stroke="none" stroke-width="1px">450</text><text x="286.63707982799224" y="0" dx="0em" dy="0.95em" style="text-anchor: middle; visibility: hidden; font-family: &quot;Helvetica Neue&quot;, sans-serif; font-size: 12px; font-weight: 200;" fill="rgb(50, 49, 63)" stroke="none" stroke-width="1px">500</text></g><line x1="0" y1="0" x2="290" y2="0" fill="rgb(0, 0, 0)" stroke="rgb(204, 204, 204)" stroke-width="1px"></line></g></g></g></g></svg>